<svg width="85" height="88" viewBox="0 0 85 88" fill="none" xmlns="http://www.w3.org/2000/svg">
<path d="M66.198 44.0001C66.381 43.8171 66.4725 43.6341 66.6555 43.4511C70.2239 38.3272 70.9559 33.6608 68.7599 30.1839C66.747 26.9815 62.3551 25.1516 56.4992 25.1516C55.4927 25.1516 54.3947 25.2431 53.2968 25.3346C50.6433 19.9362 46.8004 16.5508 42.5 16.5508C38.1996 16.5508 34.3567 19.9362 31.7032 25.3346C30.6053 25.2431 29.5073 25.1516 28.5008 25.1516C22.6449 25.1516 18.253 26.89 16.2401 30.1839C14.0441 33.6608 14.7761 38.4187 18.3445 43.4511C18.5275 43.6341 18.7105 43.8171 18.802 44.0001C18.619 44.1831 18.5275 44.3661 18.3445 44.5491C14.8676 49.6729 14.1356 54.4308 16.3316 57.9077C18.3445 61.1101 22.7364 62.9401 28.5923 62.9401C29.5988 62.9401 30.6968 62.8486 31.7947 62.7571C34.3567 68.064 38.1996 71.4494 42.5 71.4494C46.8004 71.4494 50.6433 68.064 53.2968 62.6656C54.3947 62.7571 55.4927 62.8486 56.4992 62.8486C62.3551 62.8486 66.747 61.1101 68.7599 57.8162C70.9559 54.3393 70.2239 49.5814 66.6555 44.5491C66.4725 44.3661 66.2895 44.1831 66.198 44.0001ZM56.4077 26.707C61.6231 26.707 65.466 28.171 67.2044 30.9159C69.0344 33.8438 68.3024 37.9612 65.1 42.5361L65.0085 42.6276C62.721 39.8827 59.7016 37.1378 56.1332 34.7588C55.5842 31.8309 54.8522 29.1775 53.8457 26.7985C54.7607 26.707 55.6757 26.707 56.4077 26.707ZM49.6368 55.3458C47.2579 56.6268 44.8789 57.6332 42.5 58.5482C40.1211 57.6332 37.6506 56.6268 35.3632 55.3458C33.6247 54.4308 31.9777 53.4243 30.3308 52.3264C29.8733 49.6729 29.5988 46.8365 29.5988 43.9086C29.5988 40.9807 29.8733 38.1442 30.3308 35.4908C31.8862 34.3928 33.5332 33.4778 35.3632 32.4714C37.7421 31.1904 40.1211 30.1839 42.5 29.269C44.8789 30.1839 47.3494 31.1904 49.6368 32.4714C51.3753 33.3864 53.0223 34.3928 54.6692 35.4908C55.1267 38.1442 55.4012 40.9807 55.4012 43.9086C55.4012 46.8365 55.1267 49.6729 54.6692 52.3264C53.1138 53.4243 51.3753 54.4308 49.6368 55.3458ZM54.2117 54.6138C53.6627 56.9013 53.0223 59.0972 52.1073 61.0186C49.7283 60.7442 47.3494 60.1952 44.8789 59.3717C46.8004 58.6397 48.6304 57.7247 50.4603 56.8098C51.8328 56.0778 53.0223 55.3458 54.2117 54.6138ZM40.1211 59.3717C37.6506 60.1037 35.1802 60.6527 32.8927 61.0186C32.0692 59.0972 31.3373 56.9927 30.7883 54.6138C31.9777 55.3458 33.1672 56.0778 34.4482 56.7183C36.3696 57.7247 38.1996 58.5482 40.1211 59.3717ZM28.4093 51.0454C25.4814 48.8495 22.9194 46.4705 20.998 44.0001C22.9194 41.5296 25.4814 39.1507 28.4093 36.9548C28.1348 39.1507 27.9518 41.5296 27.9518 44.0001C27.9518 46.4705 28.0433 48.758 28.4093 51.0454ZM30.7883 33.3864C31.3373 31.0989 31.9777 28.903 32.8927 26.9815C35.2717 27.256 37.6506 27.805 40.1211 28.6285C38.1996 29.3605 36.3696 30.2754 34.5397 31.2819C33.1672 31.9224 31.9777 32.6544 30.7883 33.3864ZM44.8789 28.6285C47.3494 27.8965 49.8198 27.3475 52.1073 26.9815C52.9308 28.903 53.6627 31.0074 54.2117 33.3864C53.0223 32.6544 51.8328 31.9224 50.5518 31.2819C48.6304 30.2754 46.8004 29.452 44.8789 28.6285ZM56.5907 36.9548C59.5186 39.1507 62.0806 41.5296 64.002 44.0001C62.0806 46.4705 59.5186 48.8495 56.5907 51.0454C56.8652 48.8495 57.0482 46.4705 57.0482 44.0001C57.0482 41.5296 56.9567 39.2422 56.5907 36.9548ZM42.5 18.2892C45.9769 18.2892 49.0879 21.0342 51.4668 25.5176C48.6304 25.975 45.6109 26.707 42.5 27.805C39.4806 26.707 36.4611 25.975 33.5332 25.5176C35.9121 21.0342 39.0231 18.2892 42.5 18.2892ZM19.8085 42.5361C16.6061 37.9612 15.8741 33.8438 17.7041 30.9159C19.4425 28.171 23.2854 26.707 28.5008 26.707C29.3243 26.707 30.1478 26.707 30.9713 26.7985C29.9648 29.1775 29.2328 31.8309 28.6838 34.7588C25.2069 37.1378 22.1875 39.8827 19.8085 42.5361ZM28.5923 61.2931C23.3769 61.2931 19.534 59.8292 17.7956 57.0842C15.9656 54.1563 16.6976 50.0389 19.9 45.464C19.9 45.464 19.9 45.3725 19.9915 45.3725C22.279 48.1175 25.2984 50.8624 28.8668 53.2413C29.4158 56.1693 30.1478 58.8227 31.1543 61.2016C30.2393 61.2931 29.4158 61.2931 28.5923 61.2931ZM42.5 69.7109C39.0231 69.7109 35.9121 66.966 33.5332 62.4826C36.3696 62.0251 39.3891 61.2931 42.5 60.1952C45.5194 61.2931 48.5389 62.0251 51.4668 62.4826C49.0879 66.966 45.9769 69.7109 42.5 69.7109ZM67.2044 57.0842C65.466 59.8292 61.6231 61.2931 56.4077 61.2931C55.5842 61.2931 54.7607 61.2931 53.9372 61.2016C54.9437 58.8227 55.6757 56.1693 56.2247 53.2413C59.7016 50.8624 62.721 48.1175 65.1 45.3725C65.1 45.3725 65.1 45.464 65.1915 45.464C68.3939 50.0389 69.1259 54.1563 67.2044 57.0842Z" fill="#450ADF"/>
<path d="M42.5001 49.1237C45.3299 49.1237 47.624 46.8297 47.624 43.9998C47.624 41.17 45.3299 38.876 42.5001 38.876C39.6703 38.876 37.3762 41.17 37.3762 43.9998C37.3762 46.8297 39.6703 49.1237 42.5001 49.1237Z" fill="#FF24A1"/>
</svg>
