<svg width="85" height="88" viewBox="0 0 85 88" fill="none" xmlns="http://www.w3.org/2000/svg">
<path d="M32.4692 27.2204C32.2952 27.3943 32.1633 27.604 32.053 27.8338L32.0406 27.8213L14.6247 67.0538L14.6417 67.0709C14.3188 67.6966 14.8591 68.9699 15.9663 70.0786C17.0734 71.1857 18.3467 71.7261 18.9724 71.4031L18.988 71.4186L58.2204 54.0012L58.208 53.9872C58.4362 53.8785 58.6459 53.7465 58.8213 53.5695C61.2468 51.144 57.3136 43.2792 50.0388 36.0029C42.761 28.7266 34.8961 24.795 32.4692 27.2204Z" fill="#FBC02D"/>
<path d="M34.6027 34.2285L15.0625 66.0697L14.6247 67.0558L14.6417 67.0728C14.3188 67.6986 14.8591 68.9719 15.9663 70.0806C16.3265 70.4408 16.7007 70.7141 17.0672 70.9455L40.8138 41.9924L34.6027 34.2285Z" fill="#FBC02D"/>
<path d="M50.2813 35.8907C57.5328 43.1453 61.5591 50.8781 59.2704 53.1638C56.9831 55.4526 49.2503 51.4278 41.9942 44.1763C34.7411 36.9218 30.7164 29.1858 33.0036 26.8986C35.2924 24.6114 43.0252 28.6362 50.2813 35.8907Z" fill="#450ADF"/>
<path d="M43.4153 36.7335C43.1063 36.9835 42.7026 37.1139 42.2755 37.0673C40.9277 36.9214 39.7942 36.4524 39.0007 35.7117C38.1607 34.9276 37.7461 33.8748 37.8594 32.8205C38.0582 30.9696 39.9153 29.2708 43.0814 29.6124C44.3128 29.7444 44.8625 29.3485 44.8811 29.159C44.9028 28.9711 44.451 28.4665 43.2196 28.333C41.8718 28.187 40.7383 27.7181 39.9433 26.9774C39.1032 26.1932 38.6871 25.1404 38.802 24.0861C39.0038 22.2352 40.8594 20.5365 44.0224 20.8796C44.9199 20.9759 45.3935 20.7911 45.5938 20.6716C45.7538 20.5737 45.8174 20.4806 45.8236 20.4262C45.8423 20.2383 45.3966 19.7337 44.1622 19.6001C43.3097 19.507 42.6917 18.743 42.7864 17.889C42.878 17.0365 43.6404 16.4201 44.496 16.5132C47.659 16.8533 49.1124 18.9076 48.9121 20.7601C48.7102 22.6141 46.8547 24.3097 43.6886 23.9696C42.7911 23.8718 42.3221 24.0582 42.1203 24.1777C41.9603 24.274 41.8951 24.3687 41.8889 24.4215C41.8687 24.6109 42.3175 25.114 43.5519 25.2476C46.7149 25.5892 48.1683 27.642 47.968 29.4944C47.7677 31.3453 45.9121 33.0441 42.7476 32.7009C41.8501 32.6046 41.378 32.791 41.1762 32.909C41.0147 33.0084 40.9526 33.1015 40.9464 33.1543C40.9262 33.3422 41.3749 33.8469 42.6078 33.9804C43.4588 34.0736 44.0783 34.8391 43.9836 35.6916C43.9401 36.117 43.7243 36.485 43.4153 36.7335Z" fill="#450ADF"/>
<path d="M62.1586 51.0926C65.2222 50.2277 67.3355 51.5941 67.8386 53.3876C68.3417 55.1795 67.2517 57.4481 64.1896 58.3099C62.9939 58.6453 62.6353 59.2167 62.6834 59.3984C62.7362 59.5816 63.3433 59.8828 64.5359 59.5459C67.5979 58.6841 69.7113 60.0505 70.2144 61.8425C70.7206 63.6359 69.6274 65.9014 66.5638 66.7648C65.3697 67.1002 65.0094 67.6731 65.0622 67.8548C65.1135 68.0365 65.7191 68.3377 66.9132 68.0023C67.7361 67.771 68.5964 68.2508 68.8277 69.0753C69.0575 69.9014 68.5777 70.7585 67.7517 70.9914C64.6911 71.8532 62.5762 70.4899 62.07 68.6949C61.5669 66.903 62.6585 64.6374 65.7237 63.7741C66.9194 63.4372 67.2781 62.8673 67.2253 62.6841C67.1756 62.5024 66.57 62.1996 65.3775 62.535C62.3123 63.3983 60.2005 62.035 59.6959 60.2384C59.1912 58.4465 60.2828 56.181 63.3464 55.3161C64.539 54.9823 64.8977 54.4078 64.848 54.2276C64.7952 54.0444 64.1911 53.7432 62.9971 54.0786C62.171 54.3115 61.3154 53.8301 61.0825 53.0056C60.8511 52.1826 61.3325 51.3255 62.1586 51.0926Z" fill="#FBC02D"/>
<path d="M50.2645 46.9065C49.808 46.9065 49.3577 46.7062 49.0503 46.3242C48.5145 45.6534 48.6248 44.6767 49.2925 44.141C49.631 43.8692 57.7054 37.5277 69.1168 39.1597C69.9661 39.2808 70.5562 40.0665 70.4351 40.9159C70.314 41.7637 69.5345 42.3599 68.6773 42.2326C58.5952 40.801 51.3064 46.509 51.235 46.5664C50.9462 46.7962 50.6046 46.9065 50.2645 46.9065Z" fill="#450ADF"/>
<path d="M23.4836 40.4465C23.3361 40.4465 23.1854 40.4248 23.0364 40.3813C22.215 40.1344 21.7491 39.2695 21.996 38.4481C23.7553 32.5895 25.35 23.2402 23.3904 20.8024C23.1715 20.526 22.8407 20.2542 22.083 20.3117C20.6265 20.4235 20.7647 23.4964 20.7662 23.5275C20.8314 24.3831 20.1886 25.1284 19.3346 25.1921C18.4666 25.2449 17.7337 24.6144 17.67 23.7589C17.5101 21.6176 18.1762 17.4934 21.8501 17.2155C23.4898 17.0912 24.8516 17.6611 25.8127 18.8567C29.4944 23.439 25.7568 36.723 24.9711 39.341C24.7693 40.0133 24.1513 40.4465 23.4836 40.4465Z" fill="#FBC02D"/>
<path d="M54.1448 32.6837C55.4312 32.6837 56.474 31.6409 56.474 30.3546C56.474 29.0682 55.4312 28.0254 54.1448 28.0254C52.8585 28.0254 51.8157 29.0682 51.8157 30.3546C51.8157 31.6409 52.8585 32.6837 54.1448 32.6837Z" fill="#FBC02D"/>
<path d="M17.6546 46.6584C19.3698 46.6584 20.7602 45.268 20.7602 43.5528C20.7602 41.8377 19.3698 40.4473 17.6546 40.4473C15.9395 40.4473 14.5491 41.8377 14.5491 43.5528C14.5491 45.268 15.9395 46.6584 17.6546 46.6584Z" fill="#450ADF"/>
<path d="M65.0142 48.2116C66.3006 48.2116 67.3434 47.1687 67.3434 45.8824C67.3434 44.596 66.3006 43.5532 65.0142 43.5532C63.7279 43.5532 62.6851 44.596 62.6851 45.8824C62.6851 47.1687 63.7279 48.2116 65.0142 48.2116Z" fill="#FBC02D"/>
<path d="M51.0394 66.8449C52.3257 66.8449 53.3685 65.802 53.3685 64.5157C53.3685 63.2293 52.3257 62.1865 51.0394 62.1865C49.753 62.1865 48.7102 63.2293 48.7102 64.5157C48.7102 65.802 49.753 66.8449 51.0394 66.8449Z" fill="#FBC02D"/>
<path d="M58.0267 24.9191C59.7418 24.9191 61.1322 23.5287 61.1322 21.8136C61.1322 20.0984 59.7418 18.708 58.0267 18.708C56.3115 18.708 54.9211 20.0984 54.9211 21.8136C54.9211 23.5287 56.3115 24.9191 58.0267 24.9191Z" fill="#450ADF"/>
<path d="M65.0142 31.1305C66.3006 31.1305 67.3434 30.0877 67.3434 28.8013C67.3434 27.515 66.3006 26.4722 65.0142 26.4722C63.7279 26.4722 62.6851 27.515 62.6851 28.8013C62.6851 30.0877 63.7279 31.1305 65.0142 31.1305Z" fill="#450ADF"/>
<path d="M60.356 37.3414C61.6424 37.3414 62.6852 36.2986 62.6852 35.0123C62.6852 33.7259 61.6424 32.6831 60.356 32.6831C59.0697 32.6831 58.0269 33.7259 58.0269 35.0123C58.0269 36.2986 59.0697 37.3414 60.356 37.3414Z" fill="#450ADF"/>
<path d="M26.1949 54.422C27.4812 54.422 28.5241 53.3792 28.5241 52.0928C28.5241 50.8065 27.4812 49.7637 26.1949 49.7637C24.9085 49.7637 23.8657 50.8065 23.8657 52.0928C23.8657 53.3792 24.9085 54.422 26.1949 54.422Z" fill="#450ADF"/>
</svg>
