<svg width="85" height="88" viewBox="0 0 85 88" fill="none" xmlns="http://www.w3.org/2000/svg">
<path d="M58.1598 51.5735C58.1598 44.3961 50.8888 41.5997 45.0467 39.3541C41.1608 37.8641 37.4858 36.4475 37.4858 34.4066C37.4858 31.0331 42.0255 30.8652 42.9377 30.8652C46.1487 30.8652 47.7463 32.0666 49.1594 33.1212C50.2403 33.9344 51.3634 34.7739 52.9188 34.7739C55.8187 34.7739 57.1422 32.7382 57.1422 30.8547C57.1422 27.0929 52.5075 24.4328 47.5881 23.3153V21.3059C47.5881 18.6563 45.4211 16.5 42.7584 16.5C40.0957 16.5 37.9287 18.6563 37.9287 21.3059V23.4832C32.0497 25.1831 28.4432 29.4905 28.4432 34.9155C28.4432 41.6207 35.092 44.3751 40.9552 46.7991C45.1575 48.5357 49.1225 50.1779 49.1225 52.7382C49.1225 54.6112 46.7603 56.6364 42.9377 56.6364C39.0834 56.6364 36.8742 55.1044 34.9233 53.7455C33.5788 52.8116 32.3028 51.925 30.7843 51.925C28.575 51.925 26.8403 53.7823 26.8403 56.1432C26.8403 59.6217 31.6226 63.0792 37.9234 64.2964V66.7046C37.9234 69.3489 40.0905 71.5 42.7584 71.5C45.4211 71.5 47.5829 69.3489 47.5829 66.7046L47.5671 64.1548C54.2264 62.5336 58.1598 57.8956 58.1598 51.5735Z" fill="#450ADF"/>
</svg>
