<svg width="85" height="88" viewBox="0 0 85 88" fill="none" xmlns="http://www.w3.org/2000/svg">
<path d="M42.5 16.5C57.7167 16.5 70 28.7833 70 44C70 59.2167 57.7167 71.5 42.5 71.5C27.2833 71.5 15 59.2167 15 44C15 28.7833 27.2833 16.5 42.5 16.5Z" fill="#FBC02D"/>
<path d="M45.9834 33.4585C43.9667 34.4669 40.9417 34.4669 38.9251 33.4585C36.8167 32.3585 34.1584 31.6252 30.9501 31.3502C27.8334 31.0752 21.3251 31.0752 18.1167 32.2669C17.7501 32.3585 17.3834 32.5419 17.0167 32.7252C16.9251 32.8169 16.8334 32.9085 16.8334 33.2752V33.7335C16.8334 34.6502 16.7417 34.2835 17.3834 34.6502C18.6667 35.3835 19.4001 37.3085 19.7667 39.9669C20.3167 43.8169 22.2417 46.2919 25.2667 47.3919C28.1084 48.4919 31.3167 48.4002 34.1584 47.3002C35.7167 46.6585 37.0917 45.7419 38.1917 44.0919C40.1167 41.3419 39.4751 39.6002 40.4834 37.2169C41.3084 35.1085 43.6917 35.1085 44.6084 37.2169C45.6167 39.6002 44.9751 41.3419 46.9001 44.0919C48.0001 45.6502 49.3751 46.6585 50.9334 47.3002C53.7751 48.4002 56.9834 48.4919 59.8251 47.3919C62.9417 46.2002 64.7751 43.8169 65.3251 39.9669C65.6917 37.3085 66.4251 35.3835 67.7084 34.6502C68.3501 34.2835 68.2584 34.6502 68.2584 33.7335V33.2752C68.2584 32.9085 68.2584 32.8169 67.9834 32.7252C67.6167 32.5419 67.2501 32.3585 66.8834 32.2669C63.5834 31.0752 57.0751 31.0752 54.0501 31.3502C50.8417 31.6252 48.1834 32.3585 45.9834 33.4585Z" fill="#450ADF"/>
<path d="M54.0499 53.4418C46.6249 58.6668 38.3749 58.5752 30.9499 53.4418C30.0332 52.8002 29.2999 53.9002 29.8499 54.9085C32.1415 58.5752 36.6332 61.9668 42.4999 61.9668C48.3665 61.9668 52.8582 58.6668 55.1499 54.9085C55.6999 53.9002 54.9665 52.8002 54.0499 53.4418Z" fill="#450ADF"/>
</svg>
