<svg width="197" height="67" viewBox="0 0 197 67" fill="none" xmlns="http://www.w3.org/2000/svg">
<path d="M40.8525 0.301854V6.2459H34.7632V38.129H28.7851V6.2459H22.6958V0.301854H40.8525ZM59.311 6.2459H49.5518V15.7577H56.2789V21.7018H49.545V32.185H59.3042V38.129H43.576V0.301854H59.311V6.2459ZM70.9631 38.7327C73.5443 38.7327 75.6233 37.9936 77.1999 36.5154C78.9929 34.7844 79.8894 32.4225 79.8894 29.4297V24.5592H73.9748V29.4297C73.9748 30.762 73.7229 31.6653 73.2213 32.1328C72.7197 32.6003 72.0025 32.7819 70.9631 32.7819C69.9236 32.7819 69.2246 32.5663 68.757 32.1328C68.2184 31.6289 67.9498 30.7279 67.9513 29.4297V9.30303C67.9513 8.00483 68.2199 7.1038 68.757 6.59995C69.2246 6.16646 69.9576 5.95085 70.9631 5.95085C71.9685 5.95085 72.7538 6.16646 73.2213 6.59995C73.6888 7.03344 73.9748 7.96171 73.9748 9.30303V12.6575H79.8894V9.30303C79.8894 6.31172 78.9929 3.94983 77.1999 2.21738C75.6233 0.737615 73.5443 -0.00151074 70.9631 2.31828e-06C68.4529 2.31828e-06 66.3732 0.739128 64.724 2.21738C62.931 4.01944 62.0345 6.38132 62.0345 9.30303V29.4297C62.0345 32.3514 62.931 34.7133 64.724 36.5154C66.3747 37.9951 68.4544 38.7342 70.9631 38.7327ZM95.4587 0.301854H101.376V38.129H95.4587V21.7018H89.4352V38.129H83.5207V0.301854H89.4352V15.7577H95.4587V0.301854Z" fill="black"/>
<path d="M146.313 2.3254e-06C148.893 2.3254e-06 150.972 0.739128 152.55 2.21738C154.343 3.94983 155.24 6.31172 155.24 9.30303V12.603H149.325V9.30303C149.325 7.97078 149.055 7.06749 148.517 6.59995C148.089 6.16571 147.354 5.94934 146.313 5.95085C145.308 5.95085 144.575 6.16646 144.107 6.59995C143.569 7.1038 143.3 8.00483 143.302 9.30303V10.2245C143.302 11.8888 143.964 13.3134 145.29 14.4981C145.746 14.8373 146.224 15.1451 146.722 15.4196L147.389 15.7963C149.253 16.807 150.544 17.6392 151.261 18.2929C153.913 20.6729 155.24 23.5916 155.24 27.0489V29.4297C155.24 32.421 154.343 34.7829 152.55 36.5154C150.974 37.9951 148.895 38.7342 146.313 38.7327C143.732 38.7312 141.652 37.9921 140.074 36.5154C138.281 34.7844 137.385 32.4225 137.385 29.4297V24.5047H143.302V29.4297C143.302 30.7279 143.57 31.6289 144.107 32.1328C144.575 32.5663 145.308 32.7819 146.313 32.7819C147.353 32.7819 148.087 32.5655 148.517 32.1328C149.055 31.6653 149.325 30.771 149.325 29.4297V27.0489C149.325 25.3846 148.662 23.9419 147.335 22.7208C146.822 22.3309 146.279 21.9818 145.712 21.6768L145.076 21.3137C143.389 20.4058 142.152 19.6122 141.366 18.9329C140.119 17.8354 139.114 16.4905 138.415 14.9838C137.728 13.4895 137.379 11.8623 137.392 10.2177V9.29622C137.392 6.30491 138.288 3.94303 140.081 2.21058C141.655 0.735346 143.732 -0.00151073 146.313 2.3254e-06ZM115.143 0.301854C117.689 0.301854 119.769 1.05838 121.382 2.57144C123.175 4.2358 124.071 6.57726 124.071 9.59581V13.6493C124.071 16.5922 123.239 18.8867 121.575 20.5329L121.373 20.7281C121.109 20.9896 120.821 21.2252 120.513 21.4317L123.919 38.129H117.887L114.821 22.9432H112.131V38.129H106.217V0.301854H115.143ZM174.304 0.301854V6.2459H164.545V15.7577H171.272V21.7018H164.545V32.185H174.304V38.129H158.569V0.301854H174.304ZM137.689 0.301854L131.139 38.129H125.281L131.831 0.301854H137.689ZM15.4332 0.301854H20.5783C18.8504 2.46553 17.9721 3.56552 17.9433 3.60183L5.09295 19.2098L17.7028 34.7088L20.4013 37.9066L20.5897 38.1336H15.4332L1.06897 20.5216L0 19.2098L1.06897 17.9002C10.4091 6.46151 15.1971 0.595387 15.4332 0.301854ZM181.567 0.301854C181.804 0.595387 186.592 6.46151 195.931 17.9002L197 19.2098L195.931 20.517L181.567 38.129H176.422C178.339 35.8594 179.301 34.7194 179.309 34.7088L191.907 19.2098L179.057 3.60637C179.025 3.57006 178.147 2.47006 176.422 0.306391L181.567 0.301854ZM115.295 6.35484H112.27V17.2488H115.295C116.303 17.2488 117.041 17.0294 117.51 16.5907C118.05 16.0808 118.32 15.1684 118.32 13.8535V9.74787C118.32 8.47085 118.05 7.55847 117.51 7.01075C117.043 6.57347 116.304 6.35484 115.295 6.35484Z" fill="url(#paint0_linear_395_1831)"/>
<path d="M29.668 53.6802C30.1752 53.6705 30.6807 53.741 31.1659 53.889C31.5518 54.0065 31.9084 54.2045 32.2122 54.47C32.4828 54.714 32.6913 55.019 32.8205 55.3597C32.9574 55.7222 33.0258 56.107 33.0224 56.4945C33.0281 56.8968 32.9572 57.2965 32.8136 57.6724C32.6771 58.0189 32.4628 58.3295 32.1872 58.5802C31.8829 58.8514 31.5249 59.0556 31.1364 59.1794C30.6617 59.3296 30.1658 59.4016 29.668 59.3927H28.4697V62.502H26.8628V53.6688L29.668 53.6802ZM29.668 58.1217C29.9296 58.127 30.1902 58.0895 30.4397 58.0105C30.6416 57.9436 30.8267 57.8336 30.9821 57.6883C31.1298 57.5449 31.2424 57.3693 31.3112 57.1753C31.3844 56.9559 31.4205 56.7258 31.4178 56.4945C31.4204 56.2758 31.3842 56.0583 31.3112 55.8522C31.2428 55.6663 31.1316 55.4991 30.9866 55.3642C30.8317 55.2223 30.646 55.1183 30.4442 55.0601C30.1933 54.9806 29.9311 54.9431 29.668 54.9489H28.4697V58.1263L29.668 58.1217Z" fill="black"/>
<path d="M44.6631 58.0969C44.6696 57.656 44.6053 57.2169 44.4725 56.7964C44.3595 56.4346 44.1742 56.0994 43.9278 55.8114C43.6935 55.5425 43.3997 55.3319 43.0699 55.1964C42.71 55.049 42.3239 54.9764 41.9351 54.983C41.5463 54.9772 41.1604 55.0498 40.8003 55.1964C40.4707 55.3336 40.1766 55.5439 39.9401 55.8114C39.6952 56.1001 39.5107 56.4351 39.3977 56.7964C39.2648 57.2169 39.2005 57.656 39.207 58.0969C39.2006 58.54 39.265 58.9813 39.3977 59.4042C39.5118 59.763 39.6962 60.0955 39.9401 60.3824C40.1786 60.6464 40.4723 60.8549 40.8003 60.9929C41.1604 61.1395 41.5463 61.212 41.9351 61.2062C42.3239 61.2128 42.71 61.1402 43.0699 60.9929C43.3981 60.8566 43.6914 60.6479 43.9278 60.3824C44.1732 60.0962 44.3585 59.7635 44.4725 59.4042C44.6051 58.9813 44.6695 58.54 44.6631 58.0969ZM46.304 58.0969C46.309 58.7117 46.2021 59.3224 45.9885 59.8989C45.7922 60.43 45.4912 60.9162 45.1034 61.3288C44.7143 61.7358 44.2453 62.058 43.7258 62.2752C43.1572 62.5054 42.5484 62.6196 41.9351 62.6111C41.324 62.6194 40.7174 62.5052 40.1512 62.2752C39.6301 62.0572 39.159 61.7352 38.7667 61.3288C38.3783 60.9159 38.0759 60.4298 37.877 59.8989C37.6617 59.3228 37.554 58.712 37.5593 58.0969C37.5535 57.484 37.6612 56.8753 37.877 56.3017C38.0748 55.7682 38.3773 55.2797 38.7667 54.865C39.1581 54.4592 39.6296 54.1393 40.1512 53.9254C40.7163 53.691 41.3233 53.5744 41.9351 53.5827C42.3526 53.5809 42.7685 53.6343 43.172 53.7416C43.5445 53.839 43.9019 53.9872 44.2342 54.1819C44.5541 54.3654 44.8454 54.5948 45.0989 54.8627C45.3579 55.134 45.5786 55.4394 45.7548 55.7706C45.9377 56.1134 46.0744 56.4789 46.161 56.8577C46.2577 57.2621 46.3057 57.6766 46.304 58.0924V58.0969Z" fill="black"/>
<path d="M62.8426 53.6802L60.1622 62.5134H58.7119L56.8259 56.4786C56.7661 56.3027 56.7183 56.123 56.6829 55.9407C56.6579 56.0428 56.6352 56.1381 56.6103 56.2289C56.5853 56.3197 56.5604 56.4014 56.5331 56.4786L54.6289 62.5134H53.1741L50.4983 53.6802H51.8419C51.9659 53.6762 52.0878 53.7129 52.1891 53.7846C52.2835 53.8484 52.3512 53.9444 52.3798 54.0547L53.8482 59.336C53.88 59.4676 53.9095 59.6106 53.9367 59.7649C53.9639 59.9193 53.9957 60.0781 54.032 60.2416C54.0638 60.0691 54.0979 59.9102 54.1342 59.7581C54.1705 59.6061 54.2159 59.4676 54.259 59.336L55.9544 54.0547C55.9906 53.9537 56.0543 53.8649 56.1382 53.7982C56.2363 53.7189 56.3594 53.677 56.4855 53.6802H56.9666C57.0886 53.6757 57.2085 53.7125 57.307 53.7846C57.3953 53.8553 57.4627 53.9487 57.5022 54.0547L59.1931 59.336C59.2853 59.6227 59.361 59.9144 59.42 60.2098C59.47 59.8875 59.529 59.597 59.5925 59.336L61.0519 54.0547C61.0779 53.9481 61.1416 53.8546 61.2312 53.7914C61.3332 53.7171 61.4567 53.678 61.5829 53.6802H62.8426Z" fill="black"/>
<path d="M69.3336 54.9875V57.4387H72.3521V58.7028H69.3336V61.2016H73.1646V62.5135H67.7222V53.6825H73.1646V54.9875H69.3336Z" fill="black"/>
<path d="M85.1457 62.5134H83.6955C83.5747 62.521 83.4543 62.4938 83.3485 62.4351C83.2427 62.3764 83.156 62.2886 83.0986 62.1821L81.2829 59.3565C81.2279 59.2626 81.1498 59.1845 81.0559 59.1295C80.944 59.0771 80.8207 59.0537 80.6973 59.0614H80.0165V62.5134H78.4119V53.6802H81.0423C81.5505 53.6702 82.0574 53.7344 82.547 53.8709C82.9239 53.9697 83.2758 54.1468 83.5797 54.3906C83.8434 54.6046 84.0487 54.8817 84.1766 55.1963C84.3069 55.5224 84.3717 55.871 84.3673 56.2222C84.3695 56.5081 84.325 56.7925 84.2356 57.0642C84.1557 57.3246 84.0305 57.569 83.8657 57.7859C83.7 58.0073 83.4982 58.1991 83.2688 58.3533C83.0214 58.5221 82.7497 58.6522 82.4631 58.7391C82.5676 58.8034 82.6643 58.8796 82.7513 58.9661C82.8429 59.054 82.923 59.1531 82.9896 59.2611L85.1457 62.5134ZM81.0242 57.8835C81.2913 57.8888 81.5574 57.8497 81.8117 57.7677C82.0171 57.7031 82.206 57.5947 82.3655 57.45C82.5118 57.3144 82.6245 57.1466 82.6946 56.9598C82.7689 56.7633 82.8059 56.5547 82.8035 56.3447C82.8154 56.1504 82.7821 55.956 82.706 55.7768C82.63 55.5976 82.5135 55.4385 82.3655 55.3121C82.0825 55.0715 81.643 54.9512 81.0469 54.9512H80.021V57.8835H81.0242Z" fill="black"/>
<path d="M91.5074 54.9875V57.4387H94.5282V58.7028H91.5074V61.2016H95.3407V62.5135H89.896V53.6825H95.3407V54.9875H91.5074Z" fill="black"/>
<path d="M106.598 58.0968C106.604 57.6559 106.54 57.2168 106.407 56.7963C106.299 56.4351 106.114 56.1014 105.865 55.8181C105.629 55.5496 105.335 55.3391 105.005 55.2031C104.646 55.0508 104.26 54.9736 103.87 54.9761H102.193V61.1948H103.87C104.259 61.2016 104.645 61.129 105.005 60.9814C105.333 60.8446 105.627 60.636 105.865 60.3709C106.112 60.0863 106.297 59.7531 106.407 59.3927C106.539 58.9735 106.603 58.5361 106.598 58.0968ZM108.246 58.0968C108.253 58.7059 108.146 59.311 107.93 59.8807C107.732 60.4023 107.429 60.878 107.04 61.2787C106.649 61.6743 106.179 61.9836 105.661 62.1866C105.09 62.4088 104.482 62.519 103.87 62.5111H100.583V53.6779H103.87C104.483 53.6697 105.091 53.7823 105.661 54.0093C106.179 54.2114 106.65 54.5208 107.04 54.9171C107.429 55.3149 107.732 55.7885 107.93 56.3084C108.146 56.8795 108.253 57.4862 108.246 58.0968Z" fill="black"/>
<path d="M123.177 53.6802C123.666 53.6707 124.154 53.7265 124.628 53.8459C124.985 53.9331 125.32 54.093 125.613 54.3157C125.862 54.5092 126.058 54.7641 126.18 55.0556C126.302 55.3663 126.362 55.6978 126.357 56.0315C126.359 56.2346 126.329 56.4368 126.268 56.6307C126.207 56.8224 126.112 57.0021 125.989 57.1618C125.855 57.3377 125.693 57.491 125.51 57.6157C125.3 57.7595 125.071 57.8748 124.83 57.9584C126.014 58.2308 126.607 58.8859 126.607 59.9239C126.611 60.2812 126.54 60.6354 126.398 60.9633C126.26 61.2807 126.052 61.5625 125.79 61.7872C125.499 62.0279 125.164 62.2105 124.805 62.3251C124.372 62.4614 123.921 62.5273 123.468 62.5203H120.204V53.687L123.177 53.6802ZM121.816 54.9512V57.4954H123.093C123.529 57.5246 123.962 57.4184 124.335 57.1913C124.48 57.0768 124.594 56.9282 124.668 56.7587C124.742 56.5892 124.772 56.4041 124.757 56.2199C124.757 55.766 124.63 55.4376 124.376 55.2349C124.121 55.0397 123.722 54.9421 123.182 54.9421L121.816 54.9512ZM123.438 61.2311C123.693 61.2384 123.948 61.2007 124.189 61.1199C124.372 61.0606 124.538 60.9605 124.675 60.8272C124.795 60.7079 124.885 60.5616 124.936 60.4005C124.993 60.2332 125.022 60.0575 125.02 59.8807C125.023 59.7057 124.993 59.5317 124.932 59.3678C124.873 59.2157 124.776 59.0813 124.65 58.9774C124.506 58.8577 124.337 58.7716 124.155 58.7255C123.92 58.6648 123.677 58.6365 123.434 58.6415H121.816V61.2311H123.438Z" fill="black"/>
<path d="M135.285 59.0841V62.5044H133.679V59.0841L130.533 53.6712H131.947C132.066 53.6651 132.182 53.7022 132.276 53.7756C132.363 53.8483 132.434 53.9379 132.485 54.0388L134.06 56.9893C134.151 57.1641 134.23 57.3275 134.287 57.4841C134.358 57.6321 134.421 57.7836 134.477 57.938C134.53 57.7837 134.591 57.6293 134.657 57.4841C134.723 57.3388 134.802 57.1641 134.884 56.9893L136.452 54.0388C136.501 53.9438 136.568 53.8591 136.649 53.7892C136.742 53.7083 136.862 53.6661 136.985 53.6712H138.406L135.285 59.0841Z" fill="black"/>
<path d="M154.343 52.2458H150.281V61.5807H152.096V57.8381H154.223C155.398 57.8381 156.719 56.2812 156.719 55.0964C156.735 53.6916 155.482 52.2458 154.343 52.2458ZM153.925 55.9884H152.255V54.0252H153.925C154.23 54.0252 154.761 54.3566 154.761 55.0987C154.761 55.6911 154.202 55.9385 153.925 55.9884Z" fill="black"/>
<path d="M162.77 52.171H157.455V54.0616H159.951L158.471 57.2844H160.287C161.649 58.0266 161.236 59.5086 160.096 59.7673C159.005 59.7673 158.655 59.0025 158.617 58.5826H156.756C156.756 61.0269 159.148 61.6579 160.096 61.6579C161.045 61.6579 163.047 60.8045 163.047 58.5826C163.047 56.8032 161.833 55.9635 161.231 55.766L162.75 52.171" fill="black"/>
<path d="M169.833 52.171H164.518V54.0616H167.014L165.532 57.2844H167.348C168.71 58.0266 168.299 59.5086 167.159 59.7673C166.066 59.7673 165.716 59.0025 165.677 58.5826H163.819C163.819 61.0269 166.211 61.6579 167.159 61.6579C168.108 61.6579 170.11 60.8045 170.11 58.5826C170.11 56.8032 168.893 55.9635 168.294 55.766L169.813 52.171" fill="black"/>
<path d="M170.06 47.2437H150.242V48.9844H170.06V47.2437Z" fill="black"/>
<path d="M170.06 64.8444H150.242V66.542H170.06V64.8444Z" fill="black"/>
<defs>
<linearGradient id="paint0_linear_395_1831" x1="98.5" y1="2.32539e-06" x2="98.5" y2="38.7327" gradientUnits="userSpaceOnUse">
<stop stop-color="#FBC02D"/>
<stop offset="1" stop-color="#FF7043"/>
</linearGradient>
</defs>
</svg>
