<svg width="97" height="98" viewBox="0 0 97 98" fill="none" xmlns="http://www.w3.org/2000/svg">
<g clip-path="url(#clip0_1063_3939)">
<path d="M53.7698 0.726074H42.5938V26.1702H53.7698V0.726074Z" fill="#FBC02D"/>
<path d="M53.7698 71.6318H42.5938V97.076H53.7698V71.6318Z" fill="#FBC02D"/>
<path d="M96.3504 43.3193H70.9062V54.4954H96.3504V43.3193Z" fill="#FBC02D"/>
<path d="M25.4441 43.3193H0V54.4954H25.4441V43.3193Z" fill="#FBC02D"/>
<path d="M78.2964 10.8891L60.3047 28.8809L68.2074 36.7835L86.1991 18.7918L78.2964 10.8891Z" fill="#FBC02D"/>
<path d="M28.1441 61.0185L10.1523 79.0103L18.055 86.9129L36.0467 68.9212L28.1441 61.0185Z" fill="#FBC02D"/>
<path d="M68.1995 61.0236L60.2969 68.9263L78.2886 86.918L86.1913 79.0153L68.1995 61.0236Z" fill="#FBC02D"/>
<path d="M18.0589 10.884L10.1562 18.7866L28.148 36.7784L36.0506 28.8757L18.0589 10.884Z" fill="#FBC02D"/>
</g>
<defs>
<clipPath id="clip0_1063_3939">
<rect width="96.35" height="96.35" fill="white" transform="translate(0 0.726074)"/>
</clipPath>
</defs>
</svg>
