<svg width="418" height="152" viewBox="0 0 418 152" fill="none" xmlns="http://www.w3.org/2000/svg">
<path d="M19.68 20.98V25.09H7.89V29.89H21L20.4 34H2.76V12.88H20.31V16.99H7.89V20.98H19.68ZM22.7287 18.49H28.3688C28.8488 19.09 29.2888 19.65 29.6888 20.17C30.1088 20.67 30.4788 21.13 30.7988 21.55C31.1188 21.95 31.3888 22.3 31.6088 22.6C31.8488 22.88 32.0288 23.1 32.1488 23.26H32.2088C32.4488 22.94 32.7388 22.55 33.0788 22.09C33.4388 21.61 33.8488 21.07 34.3088 20.47C34.7888 19.87 35.2988 19.21 35.8388 18.49H41.0588L34.8488 25.9L41.3588 34H35.8088C35.3288 33.38 34.8788 32.81 34.4588 32.29C34.0588 31.77 33.6988 31.3 33.3788 30.88C33.0588 30.46 32.7688 30.1 32.5088 29.8C32.2688 29.48 32.0788 29.22 31.9388 29.02H31.8788C31.6988 29.24 31.4388 29.57 31.0988 30.01C30.7788 30.43 30.3688 30.97 29.8688 31.63C29.3688 32.27 28.7588 33.06 28.0388 34H22.8187L29.1188 26.14L22.7287 18.49ZM52.9807 34.42C52.1407 34.42 51.4107 34.32 50.7907 34.12C50.1707 33.94 49.6407 33.7 49.2007 33.4C48.7807 33.1 48.4507 32.8 48.2107 32.5V40.54H43.3207V22.3C43.3207 21.88 43.3207 21.46 43.3207 21.04C43.3207 20.6 43.3207 20.17 43.3207 19.75C43.3207 19.33 43.3107 18.91 43.2907 18.49H48.0907C48.1107 18.59 48.1307 18.76 48.1507 19C48.1707 19.22 48.1807 19.47 48.1807 19.75C48.2007 20.03 48.2107 20.28 48.2107 20.5C48.5107 20.08 48.8907 19.69 49.3507 19.33C49.8107 18.95 50.3907 18.65 51.0907 18.43C51.7907 18.19 52.6307 18.07 53.6107 18.07C54.6107 18.07 55.5507 18.27 56.4307 18.67C57.3107 19.05 58.0807 19.6 58.7407 20.32C59.4207 21.02 59.9507 21.85 60.3307 22.81C60.7107 23.77 60.9007 24.81 60.9007 25.93C60.9007 27.01 60.7507 28 60.4507 28.9C60.1707 29.8 59.7707 30.59 59.2507 31.27C58.7507 31.95 58.1707 32.53 57.5107 33.01C56.8507 33.47 56.1307 33.82 55.3507 34.06C54.5707 34.3 53.7807 34.42 52.9807 34.42ZM51.9607 30.55C52.4607 30.55 52.9207 30.49 53.3407 30.37C53.7607 30.23 54.1207 30.04 54.4207 29.8C54.7407 29.54 55.0007 29.23 55.2007 28.87C55.4207 28.51 55.5807 28.11 55.6807 27.67C55.8007 27.21 55.8607 26.72 55.8607 26.2C55.8607 25.64 55.7807 25.1 55.6207 24.58C55.4607 24.06 55.2207 23.6 54.9007 23.2C54.5807 22.8 54.1807 22.48 53.7007 22.24C53.2207 22 52.6607 21.88 52.0207 21.88C51.4607 21.88 50.9607 21.95 50.5207 22.09C50.0807 22.23 49.7007 22.43 49.3807 22.69C49.0807 22.95 48.8307 23.26 48.6307 23.62C48.4507 23.98 48.3107 24.39 48.2107 24.85C48.1307 25.29 48.0907 25.76 48.0907 26.26C48.0907 26.94 48.1707 27.55 48.3307 28.09C48.5107 28.61 48.7607 29.06 49.0807 29.44C49.4007 29.8 49.8007 30.08 50.2807 30.28C50.7607 30.46 51.3207 30.55 51.9607 30.55ZM69.0401 34H64.1501V11.65H69.0401V34ZM81.1835 18.07C82.4035 18.07 83.4935 18.23 84.4535 18.55C85.4135 18.87 86.2335 19.3 86.9135 19.84C87.6135 20.38 88.1935 21 88.6535 21.7C89.1335 22.4 89.4835 23.14 89.7035 23.92C89.9435 24.7 90.0635 25.47 90.0635 26.23C90.0635 27.19 89.9235 28.09 89.6435 28.93C89.3835 29.75 89.0035 30.5 88.5035 31.18C88.0235 31.86 87.4135 32.44 86.6735 32.92C85.9535 33.4 85.1135 33.77 84.1535 34.03C83.1935 34.29 82.1435 34.42 81.0035 34.42C79.5435 34.42 78.2735 34.2 77.1935 33.76C76.1135 33.3 75.2035 32.69 74.4635 31.93C73.7435 31.17 73.1935 30.3 72.8135 29.32C72.4535 28.34 72.2735 27.31 72.2735 26.23C72.2735 25.39 72.3935 24.57 72.6335 23.77C72.8735 22.97 73.2335 22.23 73.7135 21.55C74.1935 20.85 74.7935 20.24 75.5135 19.72C76.2335 19.2 77.0635 18.8 78.0035 18.52C78.9635 18.22 80.0235 18.07 81.1835 18.07ZM81.1235 21.79C80.5835 21.79 80.1035 21.87 79.6835 22.03C79.2835 22.17 78.9235 22.38 78.6035 22.66C78.3035 22.94 78.0535 23.27 77.8535 23.65C77.6535 24.01 77.5035 24.41 77.4035 24.85C77.3035 25.29 77.2535 25.75 77.2535 26.23C77.2535 26.85 77.3335 27.43 77.4935 27.97C77.6735 28.51 77.9235 28.99 78.2435 29.41C78.5835 29.81 78.9935 30.13 79.4735 30.37C79.9535 30.61 80.5135 30.73 81.1535 30.73C81.6935 30.73 82.1635 30.66 82.5635 30.52C82.9835 30.36 83.3435 30.14 83.6435 29.86C83.9435 29.58 84.1935 29.26 84.3935 28.9C84.6135 28.52 84.7735 28.11 84.8735 27.67C84.9735 27.23 85.0235 26.78 85.0235 26.32C85.0235 25.74 84.9435 25.18 84.7835 24.64C84.6435 24.08 84.4135 23.59 84.0935 23.17C83.7735 22.75 83.3635 22.42 82.8635 22.18C82.3835 21.92 81.8035 21.79 81.1235 21.79ZM93.3305 34V22.72C93.3305 22.24 93.3305 21.77 93.3305 21.31C93.3305 20.83 93.3305 20.36 93.3305 19.9C93.3305 19.42 93.3205 18.95 93.3005 18.49H98.0705C98.1105 18.69 98.1405 18.98 98.1605 19.36C98.1805 19.74 98.1905 20.14 98.1905 20.56C98.2105 20.98 98.2205 21.33 98.2205 21.61C98.4405 21.09 98.7205 20.62 99.0605 20.2C99.4005 19.76 99.8205 19.38 100.32 19.06C100.82 18.74 101.39 18.5 102.03 18.34C102.67 18.16 103.39 18.08 104.19 18.1V22.57C103.03 22.55 102 22.71 101.1 23.05C100.2 23.39 99.4905 23.99 98.9705 24.85C98.4705 25.69 98.2205 26.85 98.2205 28.33V34H93.3305ZM114.636 30.79C115.096 30.79 115.496 30.76 115.836 30.7C116.176 30.62 116.476 30.52 116.736 30.4C117.016 30.26 117.246 30.09 117.426 29.89C117.606 29.69 117.766 29.48 117.906 29.26H122.826C122.626 29.8 122.376 30.33 122.076 30.85C121.776 31.37 121.396 31.85 120.936 32.29C120.476 32.71 119.936 33.08 119.316 33.4C118.716 33.72 118.026 33.97 117.246 34.15C116.466 34.33 115.576 34.42 114.576 34.42C112.976 34.42 111.626 34.18 110.526 33.7C109.426 33.22 108.536 32.59 107.856 31.81C107.196 31.03 106.706 30.16 106.386 29.2C106.086 28.22 105.936 27.24 105.936 26.26C105.936 25.4 106.046 24.57 106.266 23.77C106.506 22.95 106.856 22.2 107.316 21.52C107.796 20.82 108.376 20.22 109.056 19.72C109.756 19.2 110.556 18.8 111.456 18.52C112.376 18.22 113.406 18.07 114.546 18.07C116.046 18.07 117.326 18.31 118.386 18.79C119.466 19.25 120.346 19.88 121.026 20.68C121.706 21.46 122.206 22.34 122.526 23.32C122.846 24.28 123.006 25.26 123.006 26.26C123.006 26.4 123.006 26.53 123.006 26.65C123.006 26.75 123.006 26.87 123.006 27.01C123.006 27.13 122.996 27.27 122.976 27.43H110.826C110.866 28.05 111.036 28.62 111.336 29.14C111.636 29.64 112.066 30.04 112.626 30.34C113.186 30.64 113.856 30.79 114.636 30.79ZM114.516 21.52C113.996 21.52 113.546 21.57 113.166 21.67C112.786 21.77 112.456 21.91 112.176 22.09C111.896 22.27 111.666 22.49 111.486 22.75C111.306 22.99 111.166 23.26 111.066 23.56C110.966 23.84 110.906 24.13 110.886 24.43H118.026C118.006 24.15 117.936 23.84 117.816 23.5C117.716 23.16 117.536 22.84 117.276 22.54C117.036 22.24 116.686 22 116.226 21.82C115.786 21.62 115.216 21.52 114.516 21.52ZM134.521 11.65H139.381V20.44C139.581 20.14 139.871 19.81 140.251 19.45C140.651 19.07 141.191 18.75 141.871 18.49C142.571 18.21 143.461 18.07 144.541 18.07C145.501 18.07 146.351 18.21 147.091 18.49C147.851 18.75 148.491 19.16 149.011 19.72C149.531 20.28 149.921 20.97 150.181 21.79C150.461 22.61 150.601 23.58 150.601 24.7V34H145.651V25.24C145.651 24.58 145.571 24 145.411 23.5C145.271 22.98 145.001 22.58 144.601 22.3C144.201 22.02 143.631 21.88 142.891 21.88C142.131 21.88 141.491 22.07 140.971 22.45C140.451 22.81 140.061 23.34 139.801 24.04C139.541 24.72 139.411 25.56 139.411 26.56V34H134.521V11.65ZM154.854 34V18.49H159.744V34H154.854ZM154.854 15.58V11.65H159.744V15.58H154.854ZM180.643 23.05V32.26C180.643 33.66 180.473 34.9 180.133 35.98C179.813 37.06 179.293 37.96 178.573 38.68C177.873 39.42 176.943 39.98 175.783 40.36C174.643 40.76 173.253 40.96 171.613 40.96C170.233 40.96 169.063 40.82 168.103 40.54C167.163 40.28 166.383 39.93 165.763 39.49C165.143 39.07 164.663 38.61 164.323 38.11C163.983 37.61 163.733 37.12 163.573 36.64C163.413 36.18 163.303 35.78 163.243 35.44H168.193C168.333 35.76 168.523 36.06 168.763 36.34C169.023 36.64 169.403 36.88 169.903 37.06C170.403 37.24 171.063 37.33 171.883 37.33C172.663 37.33 173.313 37.21 173.833 36.97C174.353 36.73 174.753 36.4 175.033 35.98C175.313 35.56 175.503 35.06 175.603 34.48C175.723 33.92 175.783 33.31 175.783 32.65V31.99C175.483 32.41 175.123 32.79 174.703 33.13C174.283 33.45 173.753 33.71 173.113 33.91C172.473 34.09 171.643 34.18 170.623 34.18C169.503 34.18 168.483 33.98 167.563 33.58C166.643 33.18 165.853 32.62 165.193 31.9C164.533 31.18 164.023 30.35 163.663 29.41C163.303 28.47 163.123 27.48 163.123 26.44C163.123 25.24 163.323 24.13 163.723 23.11C164.123 22.09 164.683 21.21 165.403 20.47C166.123 19.71 166.963 19.12 167.923 18.7C168.883 18.28 169.913 18.07 171.013 18.07C172.113 18.07 172.983 18.19 173.623 18.43C174.263 18.67 174.753 18.96 175.093 19.3C175.433 19.62 175.663 19.93 175.783 20.23C175.803 20.05 175.813 19.85 175.813 19.63C175.833 19.41 175.843 19.2 175.843 19C175.863 18.78 175.873 18.61 175.873 18.49H180.673C180.673 18.87 180.663 19.25 180.643 19.63C180.643 20.01 180.643 20.4 180.643 20.8C180.643 21.18 180.643 21.56 180.643 21.94C180.643 22.3 180.643 22.67 180.643 23.05ZM172.123 21.88C171.463 21.88 170.883 21.99 170.383 22.21C169.903 22.43 169.493 22.74 169.153 23.14C168.813 23.54 168.553 24.01 168.373 24.55C168.213 25.07 168.133 25.64 168.133 26.26C168.133 27.02 168.273 27.71 168.553 28.33C168.853 28.95 169.293 29.46 169.873 29.86C170.453 30.24 171.153 30.43 171.973 30.43C172.473 30.43 172.923 30.37 173.323 30.25C173.743 30.13 174.103 29.96 174.403 29.74C174.723 29.5 174.993 29.21 175.213 28.87C175.433 28.53 175.593 28.13 175.693 27.67C175.813 27.21 175.873 26.69 175.873 26.11C175.873 25.49 175.793 24.92 175.633 24.4C175.473 23.88 175.233 23.43 174.913 23.05C174.593 22.67 174.193 22.38 173.713 22.18C173.253 21.98 172.723 21.88 172.123 21.88ZM184.853 11.65H189.713V20.44C189.913 20.14 190.203 19.81 190.583 19.45C190.983 19.07 191.523 18.75 192.203 18.49C192.903 18.21 193.793 18.07 194.873 18.07C195.833 18.07 196.683 18.21 197.423 18.49C198.183 18.75 198.823 19.16 199.343 19.72C199.863 20.28 200.253 20.97 200.513 21.79C200.793 22.61 200.933 23.58 200.933 24.7V34H195.983V25.24C195.983 24.58 195.903 24 195.743 23.5C195.603 22.98 195.333 22.58 194.933 22.3C194.533 22.02 193.963 21.88 193.223 21.88C192.463 21.88 191.823 22.07 191.303 22.45C190.783 22.81 190.393 23.34 190.133 24.04C189.873 24.72 189.743 25.56 189.743 26.56V34H184.853V11.65ZM209.958 34H205.068V11.65H209.958V34ZM214.151 34V18.49H219.041V34H214.151ZM214.151 15.58V11.65H219.041V15.58H214.151ZM239.94 23.05V32.26C239.94 33.66 239.77 34.9 239.43 35.98C239.11 37.06 238.59 37.96 237.87 38.68C237.17 39.42 236.24 39.98 235.08 40.36C233.94 40.76 232.55 40.96 230.91 40.96C229.53 40.96 228.36 40.82 227.4 40.54C226.46 40.28 225.68 39.93 225.06 39.49C224.44 39.07 223.96 38.61 223.62 38.11C223.28 37.61 223.03 37.12 222.87 36.64C222.71 36.18 222.6 35.78 222.54 35.44H227.49C227.63 35.76 227.82 36.06 228.06 36.34C228.32 36.64 228.7 36.88 229.2 37.06C229.7 37.24 230.36 37.33 231.18 37.33C231.96 37.33 232.61 37.21 233.13 36.97C233.65 36.73 234.05 36.4 234.33 35.98C234.61 35.56 234.8 35.06 234.9 34.48C235.02 33.92 235.08 33.31 235.08 32.65V31.99C234.78 32.41 234.42 32.79 234 33.13C233.58 33.45 233.05 33.71 232.41 33.91C231.77 34.09 230.94 34.18 229.92 34.18C228.8 34.18 227.78 33.98 226.86 33.58C225.94 33.18 225.15 32.62 224.49 31.9C223.83 31.18 223.32 30.35 222.96 29.41C222.6 28.47 222.42 27.48 222.42 26.44C222.42 25.24 222.62 24.13 223.02 23.11C223.42 22.09 223.98 21.21 224.7 20.47C225.42 19.71 226.26 19.12 227.22 18.7C228.18 18.28 229.21 18.07 230.31 18.07C231.41 18.07 232.28 18.19 232.92 18.43C233.56 18.67 234.05 18.96 234.39 19.3C234.73 19.62 234.96 19.93 235.08 20.23C235.1 20.05 235.11 19.85 235.11 19.63C235.13 19.41 235.14 19.2 235.14 19C235.16 18.78 235.17 18.61 235.17 18.49H239.97C239.97 18.87 239.96 19.25 239.94 19.63C239.94 20.01 239.94 20.4 239.94 20.8C239.94 21.18 239.94 21.56 239.94 21.94C239.94 22.3 239.94 22.67 239.94 23.05ZM231.42 21.88C230.76 21.88 230.18 21.99 229.68 22.21C229.2 22.43 228.79 22.74 228.45 23.14C228.11 23.54 227.85 24.01 227.67 24.55C227.51 25.07 227.43 25.64 227.43 26.26C227.43 27.02 227.57 27.71 227.85 28.33C228.15 28.95 228.59 29.46 229.17 29.86C229.75 30.24 230.45 30.43 231.27 30.43C231.77 30.43 232.22 30.37 232.62 30.25C233.04 30.13 233.4 29.96 233.7 29.74C234.02 29.5 234.29 29.21 234.51 28.87C234.73 28.53 234.89 28.13 234.99 27.67C235.11 27.21 235.17 26.69 235.17 26.11C235.17 25.49 235.09 24.92 234.93 24.4C234.77 23.88 234.53 23.43 234.21 23.05C233.89 22.67 233.49 22.38 233.01 22.18C232.55 21.98 232.02 21.88 231.42 21.88ZM244.15 11.65H249.01V20.44C249.21 20.14 249.5 19.81 249.88 19.45C250.28 19.07 250.82 18.75 251.5 18.49C252.2 18.21 253.09 18.07 254.17 18.07C255.13 18.07 255.98 18.21 256.72 18.49C257.48 18.75 258.12 19.16 258.64 19.72C259.16 20.28 259.55 20.97 259.81 21.79C260.09 22.61 260.23 23.58 260.23 24.7V34H255.28V25.24C255.28 24.58 255.2 24 255.04 23.5C254.9 22.98 254.63 22.58 254.23 22.3C253.83 22.02 253.26 21.88 252.52 21.88C251.76 21.88 251.12 22.07 250.6 22.45C250.08 22.81 249.69 23.34 249.43 24.04C249.17 24.72 249.04 25.56 249.04 26.56V34H244.15V11.65ZM262.511 22.06V18.49H265.301V13.93H270.221V18.49H273.821V22.06H270.221V28.6C270.221 29.02 270.261 29.38 270.341 29.68C270.441 29.96 270.621 30.17 270.881 30.31C271.141 30.45 271.511 30.52 271.991 30.52C272.211 30.52 272.431 30.52 272.651 30.52C272.891 30.5 273.111 30.47 273.311 30.43V33.79C273.051 33.87 272.751 33.93 272.411 33.97C272.071 34.01 271.711 34.04 271.331 34.06C270.971 34.1 270.601 34.12 270.221 34.12C269.281 34.12 268.491 34.02 267.851 33.82C267.211 33.62 266.701 33.32 266.321 32.92C265.941 32.52 265.671 32.03 265.511 31.45C265.371 30.87 265.301 30.2 265.301 29.44V22.06H262.511ZM284.28 31.06C284.98 31.06 285.52 31 285.9 30.88C286.3 30.76 286.57 30.59 286.71 30.37C286.87 30.15 286.95 29.92 286.95 29.68C286.95 29.46 286.9 29.27 286.8 29.11C286.7 28.95 286.51 28.8 286.23 28.66C285.97 28.52 285.59 28.4 285.09 28.3C284.59 28.18 283.95 28.07 283.17 27.97C281.71 27.77 280.53 27.49 279.63 27.13C278.73 26.77 278.05 26.37 277.59 25.93C277.13 25.47 276.82 25 276.66 24.52C276.52 24.04 276.45 23.56 276.45 23.08C276.45 22.5 276.57 21.91 276.81 21.31C277.05 20.71 277.45 20.17 278.01 19.69C278.57 19.21 279.3 18.82 280.2 18.52C281.12 18.22 282.26 18.07 283.62 18.07C284.98 18.07 286.13 18.22 287.07 18.52C288.01 18.8 288.78 19.18 289.38 19.66C289.98 20.12 290.42 20.63 290.7 21.19C291 21.75 291.18 22.31 291.24 22.87H286.41C286.35 22.69 286.26 22.51 286.14 22.33C286.04 22.15 285.88 21.99 285.66 21.85C285.44 21.69 285.15 21.56 284.79 21.46C284.43 21.36 283.98 21.31 283.44 21.31C282.82 21.31 282.35 21.38 282.03 21.52C281.73 21.64 281.52 21.8 281.4 22C281.3 22.2 281.25 22.39 281.25 22.57C281.25 22.79 281.33 22.98 281.49 23.14C281.65 23.3 281.97 23.46 282.45 23.62C282.95 23.76 283.68 23.9 284.64 24.04C286.2 24.28 287.45 24.59 288.39 24.97C289.35 25.33 290.07 25.74 290.55 26.2C291.03 26.66 291.35 27.15 291.51 27.67C291.67 28.19 291.75 28.72 291.75 29.26C291.75 29.98 291.61 30.65 291.33 31.27C291.05 31.89 290.6 32.44 289.98 32.92C289.36 33.38 288.55 33.74 287.55 34C286.57 34.28 285.37 34.42 283.95 34.42C282.91 34.42 281.92 34.31 280.98 34.09C280.06 33.87 279.24 33.54 278.52 33.1C277.8 32.66 277.21 32.12 276.75 31.48C276.31 30.82 276.03 30.07 275.91 29.23H280.77C280.87 29.51 281.01 29.77 281.19 30.01C281.37 30.23 281.6 30.42 281.88 30.58C282.16 30.74 282.5 30.86 282.9 30.94C283.3 31.02 283.76 31.06 284.28 31.06ZM318.543 23.83V29.65C318.543 30.17 318.543 30.67 318.543 31.15C318.563 31.61 318.573 32.05 318.573 32.47C318.593 32.87 318.613 33.21 318.633 33.49C318.653 33.75 318.663 33.92 318.663 34H314.043C314.003 33.86 313.973 33.69 313.953 33.49C313.933 33.27 313.913 33.05 313.893 32.83C313.893 32.59 313.883 32.4 313.863 32.26C313.583 32.68 313.193 33.06 312.693 33.4C312.193 33.72 311.583 33.97 310.863 34.15C310.143 34.33 309.293 34.42 308.313 34.42C306.913 34.42 305.773 34.17 304.893 33.67C304.013 33.17 303.373 32.54 302.973 31.78C302.573 31 302.373 30.19 302.373 29.35C302.373 28.55 302.503 27.85 302.763 27.25C303.043 26.65 303.423 26.16 303.903 25.78C304.403 25.38 304.983 25.06 305.643 24.82C306.323 24.58 307.073 24.41 307.893 24.31C308.733 24.21 309.603 24.16 310.503 24.16C310.903 24.16 311.323 24.16 311.763 24.16C312.203 24.16 312.593 24.16 312.933 24.16C313.293 24.16 313.563 24.16 313.743 24.16V23.68C313.743 23.36 313.703 23.06 313.623 22.78C313.543 22.5 313.393 22.26 313.173 22.06C312.973 21.84 312.693 21.68 312.333 21.58C311.973 21.46 311.503 21.4 310.923 21.4C310.403 21.4 309.963 21.45 309.603 21.55C309.263 21.63 308.993 21.75 308.793 21.91C308.613 22.07 308.473 22.25 308.373 22.45C308.273 22.65 308.193 22.86 308.133 23.08H303.243C303.283 22.6 303.413 22.08 303.633 21.52C303.853 20.94 304.233 20.39 304.773 19.87C305.333 19.35 306.103 18.92 307.083 18.58C308.063 18.24 309.323 18.07 310.863 18.07C312.543 18.07 313.893 18.25 314.913 18.61C315.933 18.95 316.703 19.41 317.223 19.99C317.743 20.57 318.093 21.2 318.273 21.88C318.453 22.54 318.543 23.19 318.543 23.83ZM313.743 27.49V27.25C313.583 27.23 313.233 27.22 312.693 27.22C312.153 27.22 311.453 27.22 310.593 27.22C309.973 27.22 309.443 27.27 309.003 27.37C308.563 27.45 308.203 27.57 307.923 27.73C307.643 27.87 307.433 28.06 307.293 28.3C307.173 28.54 307.113 28.81 307.113 29.11C307.113 29.45 307.203 29.76 307.383 30.04C307.583 30.3 307.873 30.52 308.253 30.7C308.633 30.86 309.123 30.94 309.723 30.94C310.383 30.94 310.963 30.86 311.463 30.7C311.983 30.54 312.413 30.32 312.753 30.04C313.093 29.76 313.343 29.41 313.503 28.99C313.663 28.55 313.743 28.05 313.743 27.49ZM330.406 30.73C330.826 30.73 331.206 30.69 331.546 30.61C331.886 30.53 332.186 30.41 332.446 30.25C332.726 30.09 332.966 29.89 333.166 29.65C333.366 29.39 333.546 29.09 333.706 28.75H338.596C338.476 29.35 338.276 29.93 337.996 30.49C337.716 31.03 337.346 31.54 336.886 32.02C336.426 32.5 335.886 32.92 335.266 33.28C334.646 33.62 333.926 33.89 333.106 34.09C332.306 34.31 331.396 34.42 330.376 34.42C328.876 34.42 327.586 34.21 326.506 33.79C325.426 33.35 324.536 32.75 323.836 31.99C323.136 31.23 322.616 30.36 322.276 29.38C321.936 28.38 321.766 27.33 321.766 26.23C321.766 25.17 321.946 24.16 322.306 23.2C322.686 22.22 323.236 21.35 323.956 20.59C324.696 19.81 325.596 19.2 326.656 18.76C327.716 18.3 328.956 18.07 330.376 18.07C331.616 18.07 332.676 18.21 333.556 18.49C334.456 18.77 335.216 19.14 335.836 19.6C336.456 20.06 336.956 20.55 337.336 21.07C337.716 21.59 337.996 22.09 338.176 22.57C338.356 23.03 338.466 23.44 338.506 23.8H333.586C333.526 23.58 333.426 23.36 333.286 23.14C333.146 22.9 332.946 22.68 332.686 22.48C332.446 22.26 332.136 22.09 331.756 21.97C331.396 21.83 330.946 21.76 330.406 21.76C329.906 21.76 329.456 21.83 329.056 21.97C328.656 22.09 328.306 22.29 328.006 22.57C327.726 22.83 327.486 23.15 327.286 23.53C327.106 23.89 326.966 24.3 326.866 24.76C326.786 25.2 326.746 25.68 326.746 26.2C326.746 26.82 326.816 27.4 326.956 27.94C327.096 28.48 327.306 28.96 327.586 29.38C327.886 29.8 328.266 30.13 328.726 30.37C329.206 30.61 329.766 30.73 330.406 30.73ZM341.475 34V22.72C341.475 22.24 341.475 21.77 341.475 21.31C341.475 20.83 341.475 20.36 341.475 19.9C341.475 19.42 341.465 18.95 341.445 18.49H346.215C346.255 18.69 346.285 18.98 346.305 19.36C346.325 19.74 346.335 20.14 346.335 20.56C346.355 20.98 346.365 21.33 346.365 21.61C346.585 21.09 346.865 20.62 347.205 20.2C347.545 19.76 347.965 19.38 348.465 19.06C348.965 18.74 349.535 18.5 350.175 18.34C350.815 18.16 351.535 18.08 352.335 18.1V22.57C351.175 22.55 350.145 22.71 349.245 23.05C348.345 23.39 347.635 23.99 347.115 24.85C346.615 25.69 346.365 26.85 346.365 28.33V34H341.475ZM362.99 18.07C364.21 18.07 365.3 18.23 366.26 18.55C367.22 18.87 368.04 19.3 368.72 19.84C369.42 20.38 370 21 370.46 21.7C370.94 22.4 371.29 23.14 371.51 23.92C371.75 24.7 371.87 25.47 371.87 26.23C371.87 27.19 371.73 28.09 371.45 28.93C371.19 29.75 370.81 30.5 370.31 31.18C369.83 31.86 369.22 32.44 368.48 32.92C367.76 33.4 366.92 33.77 365.96 34.03C365 34.29 363.95 34.42 362.81 34.42C361.35 34.42 360.08 34.2 359 33.76C357.92 33.3 357.01 32.69 356.27 31.93C355.55 31.17 355 30.3 354.62 29.32C354.26 28.34 354.08 27.31 354.08 26.23C354.08 25.39 354.2 24.57 354.44 23.77C354.68 22.97 355.04 22.23 355.52 21.55C356 20.85 356.6 20.24 357.32 19.72C358.04 19.2 358.87 18.8 359.81 18.52C360.77 18.22 361.83 18.07 362.99 18.07ZM362.93 21.79C362.39 21.79 361.91 21.87 361.49 22.03C361.09 22.17 360.73 22.38 360.41 22.66C360.11 22.94 359.86 23.27 359.66 23.65C359.46 24.01 359.31 24.41 359.21 24.85C359.11 25.29 359.06 25.75 359.06 26.23C359.06 26.85 359.14 27.43 359.3 27.97C359.48 28.51 359.73 28.99 360.05 29.41C360.39 29.81 360.8 30.13 361.28 30.37C361.76 30.61 362.32 30.73 362.96 30.73C363.5 30.73 363.97 30.66 364.37 30.52C364.79 30.36 365.15 30.14 365.45 29.86C365.75 29.58 366 29.26 366.2 28.9C366.42 28.52 366.58 28.11 366.68 27.67C366.78 27.23 366.83 26.78 366.83 26.32C366.83 25.74 366.75 25.18 366.59 24.64C366.45 24.08 366.22 23.59 365.9 23.17C365.58 22.75 365.17 22.42 364.67 22.18C364.19 21.92 363.61 21.79 362.93 21.79ZM382.336 31.06C383.036 31.06 383.576 31 383.956 30.88C384.356 30.76 384.626 30.59 384.766 30.37C384.926 30.15 385.006 29.92 385.006 29.68C385.006 29.46 384.956 29.27 384.856 29.11C384.756 28.95 384.566 28.8 384.286 28.66C384.026 28.52 383.646 28.4 383.146 28.3C382.646 28.18 382.006 28.07 381.226 27.97C379.766 27.77 378.586 27.49 377.686 27.13C376.786 26.77 376.106 26.37 375.646 25.93C375.186 25.47 374.876 25 374.716 24.52C374.576 24.04 374.506 23.56 374.506 23.08C374.506 22.5 374.626 21.91 374.866 21.31C375.106 20.71 375.506 20.17 376.066 19.69C376.626 19.21 377.356 18.82 378.256 18.52C379.176 18.22 380.316 18.07 381.676 18.07C383.036 18.07 384.186 18.22 385.126 18.52C386.066 18.8 386.836 19.18 387.436 19.66C388.036 20.12 388.476 20.63 388.756 21.19C389.056 21.75 389.236 22.31 389.296 22.87H384.466C384.406 22.69 384.316 22.51 384.196 22.33C384.096 22.15 383.936 21.99 383.716 21.85C383.496 21.69 383.206 21.56 382.846 21.46C382.486 21.36 382.036 21.31 381.496 21.31C380.876 21.31 380.406 21.38 380.086 21.52C379.786 21.64 379.576 21.8 379.456 22C379.356 22.2 379.306 22.39 379.306 22.57C379.306 22.79 379.386 22.98 379.546 23.14C379.706 23.3 380.026 23.46 380.506 23.62C381.006 23.76 381.736 23.9 382.696 24.04C384.256 24.28 385.506 24.59 386.446 24.97C387.406 25.33 388.126 25.74 388.606 26.2C389.086 26.66 389.406 27.15 389.566 27.67C389.726 28.19 389.806 28.72 389.806 29.26C389.806 29.98 389.666 30.65 389.386 31.27C389.106 31.89 388.656 32.44 388.036 32.92C387.416 33.38 386.606 33.74 385.606 34C384.626 34.28 383.426 34.42 382.006 34.42C380.966 34.42 379.976 34.31 379.036 34.09C378.116 33.87 377.296 33.54 376.576 33.1C375.856 32.66 375.266 32.12 374.806 31.48C374.366 30.82 374.086 30.07 373.966 29.23H378.826C378.926 29.51 379.066 29.77 379.246 30.01C379.426 30.23 379.656 30.42 379.936 30.58C380.216 30.74 380.556 30.86 380.956 30.94C381.356 31.02 381.816 31.06 382.336 31.06ZM400.295 31.06C400.995 31.06 401.535 31 401.915 30.88C402.315 30.76 402.585 30.59 402.725 30.37C402.885 30.15 402.965 29.92 402.965 29.68C402.965 29.46 402.915 29.27 402.815 29.11C402.715 28.95 402.525 28.8 402.245 28.66C401.985 28.52 401.605 28.4 401.105 28.3C400.605 28.18 399.965 28.07 399.185 27.97C397.725 27.77 396.545 27.49 395.645 27.13C394.745 26.77 394.065 26.37 393.605 25.93C393.145 25.47 392.835 25 392.675 24.52C392.535 24.04 392.465 23.56 392.465 23.08C392.465 22.5 392.585 21.91 392.825 21.31C393.065 20.71 393.465 20.17 394.025 19.69C394.585 19.21 395.315 18.82 396.215 18.52C397.135 18.22 398.275 18.07 399.635 18.07C400.995 18.07 402.145 18.22 403.085 18.52C404.025 18.8 404.795 19.18 405.395 19.66C405.995 20.12 406.435 20.63 406.715 21.19C407.015 21.75 407.195 22.31 407.255 22.87H402.425C402.365 22.69 402.275 22.51 402.155 22.33C402.055 22.15 401.895 21.99 401.675 21.85C401.455 21.69 401.165 21.56 400.805 21.46C400.445 21.36 399.995 21.31 399.455 21.31C398.835 21.31 398.365 21.38 398.045 21.52C397.745 21.64 397.535 21.8 397.415 22C397.315 22.2 397.265 22.39 397.265 22.57C397.265 22.79 397.345 22.98 397.505 23.14C397.665 23.3 397.985 23.46 398.465 23.62C398.965 23.76 399.695 23.9 400.655 24.04C402.215 24.28 403.465 24.59 404.405 24.97C405.365 25.33 406.085 25.74 406.565 26.2C407.045 26.66 407.365 27.15 407.525 27.67C407.685 28.19 407.765 28.72 407.765 29.26C407.765 29.98 407.625 30.65 407.345 31.27C407.065 31.89 406.615 32.44 405.995 32.92C405.375 33.38 404.565 33.74 403.565 34C402.585 34.28 401.385 34.42 399.965 34.42C398.925 34.42 397.935 34.31 396.995 34.09C396.075 33.87 395.255 33.54 394.535 33.1C393.815 32.66 393.225 32.12 392.765 31.48C392.325 30.82 392.045 30.07 391.925 29.23H396.785C396.885 29.51 397.025 29.77 397.205 30.01C397.385 30.23 397.615 30.42 397.895 30.58C398.175 30.74 398.515 30.86 398.915 30.94C399.315 31.02 399.775 31.06 400.295 31.06ZM10.08 60.07C11.3 60.07 12.39 60.23 13.35 60.55C14.31 60.87 15.13 61.3 15.81 61.84C16.51 62.38 17.09 63 17.55 63.7C18.03 64.4 18.38 65.14 18.6 65.92C18.84 66.7 18.96 67.47 18.96 68.23C18.96 69.19 18.82 70.09 18.54 70.93C18.28 71.75 17.9 72.5 17.4 73.18C16.92 73.86 16.31 74.44 15.57 74.92C14.85 75.4 14.01 75.77 13.05 76.03C12.09 76.29 11.04 76.42 9.9 76.42C8.44 76.42 7.17 76.2 6.09 75.76C5.01 75.3 4.1 74.69 3.36 73.93C2.64 73.17 2.09 72.3 1.71 71.32C1.35 70.34 1.17 69.31 1.17 68.23C1.17 67.39 1.29 66.57 1.53 65.77C1.77 64.97 2.13 64.23 2.61 63.55C3.09 62.85 3.69 62.24 4.41 61.72C5.13 61.2 5.96 60.8 6.9 60.52C7.86 60.22 8.92 60.07 10.08 60.07ZM10.02 63.79C9.48 63.79 9 63.87 8.58 64.03C8.18 64.17 7.82 64.38 7.5 64.66C7.2 64.94 6.95 65.27 6.75 65.65C6.55 66.01 6.4 66.41 6.3 66.85C6.2 67.29 6.15 67.75 6.15 68.23C6.15 68.85 6.23 69.43 6.39 69.97C6.57 70.51 6.82 70.99 7.14 71.41C7.48 71.81 7.89 72.13 8.37 72.37C8.85 72.61 9.41 72.73 10.05 72.73C10.59 72.73 11.06 72.66 11.46 72.52C11.88 72.36 12.24 72.14 12.54 71.86C12.84 71.58 13.09 71.26 13.29 70.9C13.51 70.52 13.67 70.11 13.77 69.67C13.87 69.23 13.92 68.78 13.92 68.32C13.92 67.74 13.84 67.18 13.68 66.64C13.54 66.08 13.31 65.59 12.99 65.17C12.67 64.75 12.26 64.42 11.76 64.18C11.28 63.92 10.7 63.79 10.02 63.79ZM37.9191 60.49V71.5C37.9191 72 37.9191 72.5 37.9191 73C37.9191 73.48 37.9191 73.98 37.9191 74.5C37.9391 75 37.9491 75.5 37.9491 76H33.1491C33.1291 75.86 33.1091 75.69 33.0891 75.49C33.0891 75.29 33.0891 75.08 33.0891 74.86C33.0891 74.64 33.0791 74.42 33.0591 74.2C32.7991 74.58 32.4691 74.95 32.0691 75.31C31.6691 75.65 31.1391 75.92 30.4791 76.12C29.8191 76.32 28.9391 76.42 27.8391 76.42C27.0391 76.42 26.2891 76.29 25.5891 76.03C24.8891 75.79 24.2791 75.42 23.7591 74.92C23.2391 74.4 22.8291 73.73 22.5291 72.91C22.2291 72.09 22.0791 71.11 22.0791 69.97V60.49H26.9691V69.16C26.9691 69.68 27.0191 70.15 27.1191 70.57C27.2391 70.99 27.3991 71.35 27.5991 71.65C27.8191 71.95 28.0991 72.19 28.4391 72.37C28.7991 72.53 29.2391 72.61 29.7591 72.61C30.5591 72.61 31.1991 72.45 31.6791 72.13C32.1591 71.79 32.4991 71.26 32.6991 70.54C32.9191 69.8 33.0291 68.84 33.0291 67.66V60.49H37.9191ZM42.0902 76V64.72C42.0902 64.24 42.0902 63.77 42.0902 63.31C42.0902 62.83 42.0902 62.36 42.0902 61.9C42.0902 61.42 42.0802 60.95 42.0602 60.49H46.8302C46.8702 60.69 46.9002 60.98 46.9202 61.36C46.9402 61.74 46.9502 62.14 46.9502 62.56C46.9702 62.98 46.9802 63.33 46.9802 63.61C47.2002 63.09 47.4802 62.62 47.8202 62.2C48.1602 61.76 48.5802 61.38 49.0802 61.06C49.5802 60.74 50.1502 60.5 50.7902 60.34C51.4302 60.16 52.1502 60.08 52.9502 60.1V64.57C51.7902 64.55 50.7602 64.71 49.8602 65.05C48.9602 65.39 48.2502 65.99 47.7302 66.85C47.2302 67.69 46.9802 68.85 46.9802 70.33V76H42.0902ZM62.4429 64.06V60.49H65.2329V55.93H70.1529V60.49H73.7529V64.06H70.1529V70.6C70.1529 71.02 70.1929 71.38 70.2729 71.68C70.3729 71.96 70.5529 72.17 70.8129 72.31C71.0729 72.45 71.4429 72.52 71.9229 72.52C72.1429 72.52 72.3629 72.52 72.5829 72.52C72.8229 72.5 73.0429 72.47 73.2429 72.43V75.79C72.9829 75.87 72.6829 75.93 72.3429 75.97C72.0029 76.01 71.6429 76.04 71.2629 76.06C70.9029 76.1 70.5329 76.12 70.1529 76.12C69.2129 76.12 68.4229 76.02 67.7829 75.82C67.1429 75.62 66.6329 75.32 66.2529 74.92C65.8729 74.52 65.6029 74.03 65.4429 73.45C65.3029 72.87 65.2329 72.2 65.2329 71.44V64.06H62.4429ZM76.6305 53.65H81.4905V62.44C81.6905 62.14 81.9805 61.81 82.3605 61.45C82.7605 61.07 83.3005 60.75 83.9805 60.49C84.6805 60.21 85.5705 60.07 86.6505 60.07C87.6105 60.07 88.4605 60.21 89.2005 60.49C89.9605 60.75 90.6005 61.16 91.1205 61.72C91.6405 62.28 92.0305 62.97 92.2905 63.79C92.5705 64.61 92.7105 65.58 92.7105 66.7V76H87.7605V67.24C87.7605 66.58 87.6805 66 87.5205 65.5C87.3805 64.98 87.1105 64.58 86.7105 64.3C86.3105 64.02 85.7405 63.88 85.0005 63.88C84.2405 63.88 83.6005 64.07 83.0805 64.45C82.5605 64.81 82.1705 65.34 81.9105 66.04C81.6505 66.72 81.5205 67.56 81.5205 68.56V76H76.6305V53.65ZM96.9633 76V64.72C96.9633 64.24 96.9633 63.77 96.9633 63.31C96.9633 62.83 96.9633 62.36 96.9633 61.9C96.9633 61.42 96.9533 60.95 96.9333 60.49H101.703C101.743 60.69 101.773 60.98 101.793 61.36C101.813 61.74 101.823 62.14 101.823 62.56C101.843 62.98 101.853 63.33 101.853 63.61C102.073 63.09 102.353 62.62 102.693 62.2C103.033 61.76 103.453 61.38 103.953 61.06C104.453 60.74 105.023 60.5 105.663 60.34C106.303 60.16 107.023 60.08 107.823 60.1V64.57C106.663 64.55 105.633 64.71 104.733 65.05C103.833 65.39 103.123 65.99 102.603 66.85C102.103 67.69 101.853 68.85 101.853 70.33V76H96.9633ZM118.268 72.79C118.728 72.79 119.128 72.76 119.468 72.7C119.808 72.62 120.108 72.52 120.368 72.4C120.648 72.26 120.878 72.09 121.058 71.89C121.238 71.69 121.398 71.48 121.538 71.26H126.458C126.258 71.8 126.008 72.33 125.708 72.85C125.408 73.37 125.028 73.85 124.568 74.29C124.108 74.71 123.568 75.08 122.948 75.4C122.348 75.72 121.658 75.97 120.878 76.15C120.098 76.33 119.208 76.42 118.208 76.42C116.608 76.42 115.258 76.18 114.158 75.7C113.058 75.22 112.168 74.59 111.488 73.81C110.828 73.03 110.338 72.16 110.018 71.2C109.718 70.22 109.568 69.24 109.568 68.26C109.568 67.4 109.678 66.57 109.898 65.77C110.138 64.95 110.488 64.2 110.948 63.52C111.428 62.82 112.008 62.22 112.688 61.72C113.388 61.2 114.188 60.8 115.088 60.52C116.008 60.22 117.038 60.07 118.178 60.07C119.678 60.07 120.958 60.31 122.018 60.79C123.098 61.25 123.978 61.88 124.658 62.68C125.338 63.46 125.838 64.34 126.158 65.32C126.478 66.28 126.638 67.26 126.638 68.26C126.638 68.4 126.638 68.53 126.638 68.65C126.638 68.75 126.638 68.87 126.638 69.01C126.638 69.13 126.628 69.27 126.608 69.43H114.458C114.498 70.05 114.668 70.62 114.968 71.14C115.268 71.64 115.698 72.04 116.258 72.34C116.818 72.64 117.488 72.79 118.268 72.79ZM118.148 63.52C117.628 63.52 117.178 63.57 116.798 63.67C116.418 63.77 116.088 63.91 115.808 64.09C115.528 64.27 115.298 64.49 115.118 64.75C114.938 64.99 114.798 65.26 114.698 65.56C114.598 65.84 114.538 66.13 114.518 66.43H121.658C121.638 66.15 121.568 65.84 121.448 65.5C121.348 65.16 121.168 64.84 120.908 64.54C120.668 64.24 120.318 64 119.858 63.82C119.418 63.62 118.848 63.52 118.148 63.52ZM137.78 72.79C138.24 72.79 138.64 72.76 138.98 72.7C139.32 72.62 139.62 72.52 139.88 72.4C140.16 72.26 140.39 72.09 140.57 71.89C140.75 71.69 140.91 71.48 141.05 71.26H145.97C145.77 71.8 145.52 72.33 145.22 72.85C144.92 73.37 144.54 73.85 144.08 74.29C143.62 74.71 143.08 75.08 142.46 75.4C141.86 75.72 141.17 75.97 140.39 76.15C139.61 76.33 138.72 76.42 137.72 76.42C136.12 76.42 134.77 76.18 133.67 75.7C132.57 75.22 131.68 74.59 131 73.81C130.34 73.03 129.85 72.16 129.53 71.2C129.23 70.22 129.08 69.24 129.08 68.26C129.08 67.4 129.19 66.57 129.41 65.77C129.65 64.95 130 64.2 130.46 63.52C130.94 62.82 131.52 62.22 132.2 61.72C132.9 61.2 133.7 60.8 134.6 60.52C135.52 60.22 136.55 60.07 137.69 60.07C139.19 60.07 140.47 60.31 141.53 60.79C142.61 61.25 143.49 61.88 144.17 62.68C144.85 63.46 145.35 64.34 145.67 65.32C145.99 66.28 146.15 67.26 146.15 68.26C146.15 68.4 146.15 68.53 146.15 68.65C146.15 68.75 146.15 68.87 146.15 69.01C146.15 69.13 146.14 69.27 146.12 69.43H133.97C134.01 70.05 134.18 70.62 134.48 71.14C134.78 71.64 135.21 72.04 135.77 72.34C136.33 72.64 137 72.79 137.78 72.79ZM137.66 63.52C137.14 63.52 136.69 63.57 136.31 63.67C135.93 63.77 135.6 63.91 135.32 64.09C135.04 64.27 134.81 64.49 134.63 64.75C134.45 64.99 134.31 65.26 134.21 65.56C134.11 65.84 134.05 66.13 134.03 66.43H141.17C141.15 66.15 141.08 65.84 140.96 65.5C140.86 65.16 140.68 64.84 140.42 64.54C140.18 64.24 139.83 64 139.37 63.82C138.93 63.62 138.36 63.52 137.66 63.52ZM167.356 76.42C166.516 76.42 165.786 76.32 165.166 76.12C164.546 75.94 164.016 75.7 163.576 75.4C163.156 75.1 162.826 74.8 162.586 74.5V82.54H157.696V64.3C157.696 63.88 157.696 63.46 157.696 63.04C157.696 62.6 157.696 62.17 157.696 61.75C157.696 61.33 157.686 60.91 157.666 60.49H162.466C162.486 60.59 162.506 60.76 162.526 61C162.546 61.22 162.556 61.47 162.556 61.75C162.576 62.03 162.586 62.28 162.586 62.5C162.886 62.08 163.266 61.69 163.726 61.33C164.186 60.95 164.766 60.65 165.466 60.43C166.166 60.19 167.006 60.07 167.986 60.07C168.986 60.07 169.926 60.27 170.806 60.67C171.686 61.05 172.456 61.6 173.116 62.32C173.796 63.02 174.326 63.85 174.706 64.81C175.086 65.77 175.276 66.81 175.276 67.93C175.276 69.01 175.126 70 174.826 70.9C174.546 71.8 174.146 72.59 173.626 73.27C173.126 73.95 172.546 74.53 171.886 75.01C171.226 75.47 170.506 75.82 169.726 76.06C168.946 76.3 168.156 76.42 167.356 76.42ZM166.336 72.55C166.836 72.55 167.296 72.49 167.716 72.37C168.136 72.23 168.496 72.04 168.796 71.8C169.116 71.54 169.376 71.23 169.576 70.87C169.796 70.51 169.956 70.11 170.056 69.67C170.176 69.21 170.236 68.72 170.236 68.2C170.236 67.64 170.156 67.1 169.996 66.58C169.836 66.06 169.596 65.6 169.276 65.2C168.956 64.8 168.556 64.48 168.076 64.24C167.596 64 167.036 63.88 166.396 63.88C165.836 63.88 165.336 63.95 164.896 64.09C164.456 64.23 164.076 64.43 163.756 64.69C163.456 64.95 163.206 65.26 163.006 65.62C162.826 65.98 162.686 66.39 162.586 66.85C162.506 67.29 162.466 67.76 162.466 68.26C162.466 68.94 162.546 69.55 162.706 70.09C162.886 70.61 163.136 71.06 163.456 71.44C163.776 71.8 164.176 72.08 164.656 72.28C165.136 72.46 165.696 72.55 166.336 72.55ZM178.555 76V60.49H183.445V76H178.555ZM178.555 57.58V53.65H183.445V57.58H178.555ZM192.614 76H187.724V53.65H192.614V76ZM201.784 76H196.894V53.65H201.784V76ZM221.394 65.83V71.65C221.394 72.17 221.394 72.67 221.394 73.15C221.414 73.61 221.424 74.05 221.424 74.47C221.444 74.87 221.464 75.21 221.484 75.49C221.504 75.75 221.514 75.92 221.514 76H216.894C216.854 75.86 216.824 75.69 216.804 75.49C216.784 75.27 216.764 75.05 216.744 74.83C216.744 74.59 216.734 74.4 216.714 74.26C216.434 74.68 216.044 75.06 215.544 75.4C215.044 75.72 214.434 75.97 213.714 76.15C212.994 76.33 212.144 76.42 211.164 76.42C209.764 76.42 208.624 76.17 207.744 75.67C206.864 75.17 206.224 74.54 205.824 73.78C205.424 73 205.224 72.19 205.224 71.35C205.224 70.55 205.354 69.85 205.614 69.25C205.894 68.65 206.274 68.16 206.754 67.78C207.254 67.38 207.834 67.06 208.494 66.82C209.174 66.58 209.924 66.41 210.744 66.31C211.584 66.21 212.454 66.16 213.354 66.16C213.754 66.16 214.174 66.16 214.614 66.16C215.054 66.16 215.444 66.16 215.784 66.16C216.144 66.16 216.414 66.16 216.594 66.16V65.68C216.594 65.36 216.554 65.06 216.474 64.78C216.394 64.5 216.244 64.26 216.024 64.06C215.824 63.84 215.544 63.68 215.184 63.58C214.824 63.46 214.354 63.4 213.774 63.4C213.254 63.4 212.814 63.45 212.454 63.55C212.114 63.63 211.844 63.75 211.644 63.91C211.464 64.07 211.324 64.25 211.224 64.45C211.124 64.65 211.044 64.86 210.984 65.08H206.094C206.134 64.6 206.264 64.08 206.484 63.52C206.704 62.94 207.084 62.39 207.624 61.87C208.184 61.35 208.954 60.92 209.934 60.58C210.914 60.24 212.174 60.07 213.714 60.07C215.394 60.07 216.744 60.25 217.764 60.61C218.784 60.95 219.554 61.41 220.074 61.99C220.594 62.57 220.944 63.2 221.124 63.88C221.304 64.54 221.394 65.19 221.394 65.83ZM216.594 69.49V69.25C216.434 69.23 216.084 69.22 215.544 69.22C215.004 69.22 214.304 69.22 213.444 69.22C212.824 69.22 212.294 69.27 211.854 69.37C211.414 69.45 211.054 69.57 210.774 69.73C210.494 69.87 210.284 70.06 210.144 70.3C210.024 70.54 209.964 70.81 209.964 71.11C209.964 71.45 210.054 71.76 210.234 72.04C210.434 72.3 210.724 72.52 211.104 72.7C211.484 72.86 211.974 72.94 212.574 72.94C213.234 72.94 213.814 72.86 214.314 72.7C214.834 72.54 215.264 72.32 215.604 72.04C215.944 71.76 216.194 71.41 216.354 70.99C216.514 70.55 216.594 70.05 216.594 69.49ZM225.635 76V64.72C225.635 64.24 225.635 63.77 225.635 63.31C225.635 62.83 225.635 62.36 225.635 61.9C225.635 61.42 225.625 60.95 225.605 60.49H230.375C230.415 60.69 230.445 60.98 230.465 61.36C230.485 61.74 230.495 62.14 230.495 62.56C230.515 62.98 230.525 63.33 230.525 63.61C230.745 63.09 231.025 62.62 231.365 62.2C231.705 61.76 232.125 61.38 232.625 61.06C233.125 60.74 233.695 60.5 234.335 60.34C234.975 60.16 235.695 60.08 236.495 60.1V64.57C235.335 64.55 234.305 64.71 233.405 65.05C232.505 65.39 231.795 65.99 231.275 66.85C230.775 67.69 230.525 68.85 230.525 70.33V76H225.635ZM246.78 73.06C247.48 73.06 248.02 73 248.4 72.88C248.8 72.76 249.07 72.59 249.21 72.37C249.37 72.15 249.45 71.92 249.45 71.68C249.45 71.46 249.4 71.27 249.3 71.11C249.2 70.95 249.01 70.8 248.73 70.66C248.47 70.52 248.09 70.4 247.59 70.3C247.09 70.18 246.45 70.07 245.67 69.97C244.21 69.77 243.03 69.49 242.13 69.13C241.23 68.77 240.55 68.37 240.09 67.93C239.63 67.47 239.32 67 239.16 66.52C239.02 66.04 238.95 65.56 238.95 65.08C238.95 64.5 239.07 63.91 239.31 63.31C239.55 62.71 239.95 62.17 240.51 61.69C241.07 61.21 241.8 60.82 242.7 60.52C243.62 60.22 244.76 60.07 246.12 60.07C247.48 60.07 248.63 60.22 249.57 60.52C250.51 60.8 251.28 61.18 251.88 61.66C252.48 62.12 252.92 62.63 253.2 63.19C253.5 63.75 253.68 64.31 253.74 64.87H248.91C248.85 64.69 248.76 64.51 248.64 64.33C248.54 64.15 248.38 63.99 248.16 63.85C247.94 63.69 247.65 63.56 247.29 63.46C246.93 63.36 246.48 63.31 245.94 63.31C245.32 63.31 244.85 63.38 244.53 63.52C244.23 63.64 244.02 63.8 243.9 64C243.8 64.2 243.75 64.39 243.75 64.57C243.75 64.79 243.83 64.98 243.99 65.14C244.15 65.3 244.47 65.46 244.95 65.62C245.45 65.76 246.18 65.9 247.14 66.04C248.7 66.28 249.95 66.59 250.89 66.97C251.85 67.33 252.57 67.74 253.05 68.2C253.53 68.66 253.85 69.15 254.01 69.67C254.17 70.19 254.25 70.72 254.25 71.26C254.25 71.98 254.11 72.65 253.83 73.27C253.55 73.89 253.1 74.44 252.48 74.92C251.86 75.38 251.05 75.74 250.05 76C249.07 76.28 247.87 76.42 246.45 76.42C245.41 76.42 244.42 76.31 243.48 76.09C242.56 75.87 241.74 75.54 241.02 75.1C240.3 74.66 239.71 74.12 239.25 73.48C238.81 72.82 238.53 72.07 238.41 71.23H243.27C243.37 71.51 243.51 71.77 243.69 72.01C243.87 72.23 244.1 72.42 244.38 72.58C244.66 72.74 245 72.86 245.4 72.94C245.8 73.02 246.26 73.06 246.78 73.06ZM263.029 76H257.899V70.33H263.029V76ZM263.029 66.16H257.899V60.49H263.029V66.16Z" fill="black"/>
<path d="M390.172 130.697C390.758 131.283 391.708 131.283 392.293 130.697L401.839 121.151C402.425 120.565 402.425 119.615 401.839 119.03C401.254 118.444 400.304 118.444 399.718 119.03L391.233 127.515L382.747 119.03C382.162 118.444 381.212 118.444 380.626 119.03C380.04 119.615 380.04 120.565 380.626 121.151L390.172 130.697ZM292.31 70.4369C316.692 65.28 341.111 69.9753 359.402 81.0464C377.694 92.118 389.733 109.469 389.733 129.636L392.733 129.636C392.733 108.167 379.906 89.9501 360.956 78.48C342.005 67.0094 316.808 62.1893 291.69 67.5018L292.31 70.4369Z" fill="black"/>
<circle cx="292" cy="69" r="3" fill="black"/>
</svg>
