<svg width="552" height="151" viewBox="0 0 552 151" fill="none" xmlns="http://www.w3.org/2000/svg">
<path d="M28.215 133.726V60.9611H1.62V40.7111H81.81V60.9611H55.485V133.726H28.215ZM147.814 87.2861V112.666C147.814 114.736 147.814 116.896 147.814 119.146C147.904 121.306 147.994 123.376 148.084 125.356C148.174 127.336 148.264 129.091 148.354 130.621C148.444 132.061 148.534 133.096 148.624 133.726H124.324C124.144 133.276 123.964 132.646 123.784 131.836C123.694 131.026 123.604 130.216 123.514 129.406C123.424 128.506 123.334 127.786 123.244 127.246C122.164 128.686 120.769 130.036 119.059 131.296C117.439 132.556 115.324 133.546 112.714 134.266C110.194 135.076 107.044 135.481 103.264 135.481C98.0445 135.481 93.5895 134.491 89.8995 132.511C86.2995 130.441 83.5545 127.696 81.6645 124.276C79.7745 120.856 78.8295 117.076 78.8295 112.936C78.8295 109.516 79.3245 106.546 80.3145 104.026C81.3945 101.416 82.9245 99.1661 84.9045 97.2761C86.8845 95.3861 89.2695 93.8561 92.0595 92.6861C94.9395 91.4261 98.1795 90.5261 101.779 89.9861C105.469 89.3561 109.474 89.0411 113.794 89.0411C114.604 89.0411 115.504 89.0411 116.494 89.0411C117.574 89.0411 118.654 89.0411 119.734 89.0411C120.814 89.0411 121.714 89.0411 122.434 89.0411V85.1261C122.434 83.9561 122.299 82.9211 122.029 82.0211C121.849 81.0311 121.444 80.1761 120.814 79.4561C120.274 78.7361 119.509 78.1961 118.519 77.8361C117.529 77.4761 116.179 77.2961 114.469 77.2961C113.029 77.2961 111.814 77.4761 110.824 77.8361C109.834 78.1061 109.024 78.5561 108.394 79.1861C107.854 79.8161 107.404 80.5811 107.044 81.4811C106.774 82.3811 106.549 83.4161 106.369 84.5861H82.0695C82.3395 81.6161 83.0145 78.7361 84.0945 75.9461C85.2645 73.1561 87.0645 70.6811 89.4945 68.5211C92.0145 66.2711 95.3445 64.5161 99.4845 63.2561C103.714 61.9061 108.934 61.2311 115.144 61.2311C120.994 61.2311 125.944 61.8161 129.994 62.9861C134.134 64.0661 137.509 65.7311 140.119 67.9811C142.819 70.1411 144.754 72.8411 145.924 76.0811C147.184 79.3211 147.814 83.0561 147.814 87.2861ZM122.434 104.566V102.271C121.804 102.271 120.949 102.271 119.869 102.271C118.789 102.271 117.709 102.271 116.629 102.271C114.379 102.271 112.489 102.496 110.959 102.946C109.429 103.306 108.169 103.846 107.179 104.566C106.279 105.286 105.604 106.186 105.154 107.266C104.794 108.256 104.614 109.426 104.614 110.776C104.614 112.126 104.884 113.386 105.424 114.556C105.964 115.636 106.819 116.536 107.989 117.256C109.159 117.886 110.599 118.201 112.309 118.201C114.559 118.201 116.359 117.841 117.709 117.121C119.059 116.401 120.049 115.411 120.679 114.151C121.399 112.891 121.849 111.451 122.029 109.831C122.299 108.211 122.434 106.456 122.434 104.566ZM190.566 133.726H164.241V35.9861H190.566V133.726ZM240.741 117.796C242.271 117.796 243.531 117.661 244.521 117.391C245.601 117.031 246.456 116.581 247.086 116.041C247.806 115.501 248.391 114.826 248.841 114.016C249.291 113.206 249.696 112.351 250.056 111.451H275.841C275.391 113.341 274.626 115.366 273.546 117.526C272.556 119.686 271.161 121.846 269.361 124.006C267.651 126.076 265.491 128.011 262.881 129.811C260.271 131.521 257.076 132.871 253.296 133.861C249.606 134.941 245.241 135.481 240.201 135.481C233.541 135.481 227.871 134.491 223.191 132.511C218.601 130.441 214.866 127.651 211.986 124.141C209.106 120.631 206.991 116.716 205.641 112.396C204.381 107.986 203.751 103.486 203.751 98.8961C203.751 94.6661 204.201 90.6611 205.101 86.8811C206.001 83.1011 207.396 79.6361 209.286 76.4861C211.176 73.3361 213.606 70.6361 216.576 68.3861C219.546 66.0461 223.011 64.2911 226.971 63.1211C231.021 61.8611 235.611 61.2311 240.741 61.2311C247.581 61.2311 253.296 62.3111 257.886 64.4711C262.566 66.5411 266.256 69.3311 268.956 72.8411C271.656 76.2611 273.591 80.1311 274.761 84.4511C275.931 88.6811 276.516 93.0011 276.516 97.4111C276.516 98.2211 276.516 98.9861 276.516 99.7061C276.516 100.336 276.471 100.966 276.381 101.596C276.381 102.226 276.336 102.856 276.246 103.486H230.211C230.211 105.916 230.526 108.211 231.156 110.371C231.876 112.531 233.001 114.331 234.531 115.771C236.061 117.121 238.131 117.796 240.741 117.796ZM240.606 77.5661C239.256 77.5661 237.996 77.7911 236.826 78.2411C235.746 78.6011 234.846 79.1411 234.126 79.8611C233.406 80.5811 232.776 81.4811 232.236 82.5611C231.786 83.5511 231.381 84.6761 231.021 85.9361C230.751 87.1061 230.571 88.4111 230.481 89.8511H250.191C250.191 88.1411 250.011 86.5661 249.651 85.1261C249.381 83.6861 248.886 82.4261 248.166 81.3461C247.446 80.1761 246.456 79.2761 245.196 78.6461C244.026 77.9261 242.496 77.5661 240.606 77.5661ZM289.815 133.726V81.3461C289.815 79.2761 289.815 77.2061 289.815 75.1361C289.815 72.9761 289.815 70.9061 289.815 68.9261C289.815 66.8561 289.77 64.8761 289.68 62.9861H315.33C315.51 63.5261 315.645 64.2911 315.735 65.2811C315.825 66.1811 315.915 67.1261 316.005 68.1161C316.095 69.1061 316.14 70.0061 316.14 70.8161C316.77 69.8261 317.625 68.7911 318.705 67.7111C319.875 66.5411 321.27 65.4611 322.89 64.4711C324.51 63.4811 326.4 62.7161 328.56 62.1761C330.81 61.5461 333.375 61.2311 336.255 61.2311C339.855 61.2311 343.05 61.8161 345.84 62.9861C348.63 64.1561 351.015 65.9111 352.995 68.2511C355.065 70.5011 356.64 73.2911 357.72 76.6211C358.8 79.9511 359.34 83.7761 359.34 88.0961V133.726H333.15V91.2011C333.15 88.9511 332.88 87.0161 332.34 85.3961C331.8 83.7761 330.945 82.5611 329.775 81.7511C328.695 80.9411 327.12 80.5361 325.05 80.5361C323.25 80.5361 321.675 80.9411 320.325 81.7511C318.975 82.4711 317.94 83.7761 317.22 85.6661C316.5 87.4661 316.14 90.0311 316.14 93.3611V133.726H289.815ZM368.813 80.6711V62.9861H378.938V44.6261H404.993V62.9861H417.413V80.6711H404.993V111.046C404.993 112.486 405.173 113.656 405.533 114.556C405.983 115.456 406.703 116.131 407.693 116.581C408.683 116.941 410.123 117.121 412.013 117.121C412.463 117.121 413.003 117.121 413.633 117.121C414.263 117.121 414.938 117.076 415.658 116.986V133.186C414.308 133.636 412.688 133.951 410.798 134.131C408.998 134.401 407.153 134.581 405.263 134.671C403.373 134.761 401.708 134.806 400.268 134.806C396.038 134.806 392.528 134.311 389.738 133.321C387.038 132.331 384.878 130.936 383.258 129.136C381.638 127.246 380.468 124.996 379.748 122.386C379.118 119.686 378.803 116.671 378.803 113.341V80.6711H368.813Z" fill="black"/>
<path d="M504.993 133.726L497.781 104.152L471.765 119.957L487.607 93.9336L458 86.7333L487.565 79.5185L471.765 53.4956L497.781 69.3006L504.993 39.7261L512.219 69.3006L538.235 53.4956L522.435 79.5185L552 86.7333L522.435 93.9617L538.235 119.985L512.219 104.18L504.993 133.726Z" fill="#03FFDA"/>
</svg>
