<svg width="791" height="150" viewBox="0 0 791 150" fill="none" xmlns="http://www.w3.org/2000/svg">
<path d="M9.585 133V39.985H79.11V60.235H36.315V78.325H76.41V98.575H36.315V133H9.585ZM126.407 60.505C130.997 60.505 135.227 61.09 139.097 62.26C143.057 63.43 146.522 65.14 149.492 67.39C152.552 69.55 155.117 72.16 157.187 75.22C159.347 78.28 160.967 81.7 162.047 85.48C163.127 89.26 163.667 93.265 163.667 97.495C163.667 101.995 163.082 106.135 161.912 109.915C160.832 113.695 159.257 117.115 157.187 120.175C155.117 123.235 152.507 125.845 149.357 128.005C146.297 130.165 142.787 131.83 138.827 133C134.867 134.17 130.457 134.755 125.597 134.755C119.297 134.755 113.762 133.81 108.992 131.92C104.312 130.03 100.442 127.375 97.3825 123.955C94.3225 120.535 91.9825 116.62 90.3625 112.21C88.8325 107.71 88.0675 102.895 88.0675 97.765C88.0675 93.535 88.5625 89.53 89.5525 85.75C90.6325 81.97 92.1625 78.55 94.1425 75.49C96.2125 72.43 98.7775 69.775 101.837 67.525C104.987 65.275 108.587 63.565 112.637 62.395C116.777 61.135 121.367 60.505 126.407 60.505ZM125.867 78.325C124.517 78.325 123.257 78.55 122.087 79C121.007 79.36 120.017 79.99 119.117 80.89C118.307 81.79 117.587 83.005 116.957 84.535C116.327 85.975 115.832 87.82 115.472 90.07C115.112 92.23 114.932 94.75 114.932 97.63C114.932 100.96 115.157 103.885 115.607 106.405C116.147 108.835 116.867 110.86 117.767 112.48C118.757 114.01 119.927 115.18 121.277 115.99C122.627 116.71 124.202 117.07 126.002 117.07C127.352 117.07 128.567 116.845 129.647 116.395C130.817 115.855 131.807 115.09 132.617 114.1C133.517 113.11 134.237 111.85 134.777 110.32C135.407 108.79 135.857 106.99 136.127 104.92C136.487 102.85 136.667 100.51 136.667 97.9C136.667 94.3 136.397 91.24 135.857 88.72C135.407 86.2 134.732 84.175 133.832 82.645C133.022 81.115 131.942 80.035 130.592 79.405C129.242 78.685 127.667 78.325 125.867 78.325ZM245.085 62.26V110.32C245.085 112.48 245.085 114.91 245.085 117.61C245.085 120.22 245.085 122.875 245.085 125.575C245.175 128.275 245.22 130.75 245.22 133H219.435C219.345 132.46 219.255 131.74 219.165 130.84C219.165 129.85 219.12 128.86 219.03 127.87C219.03 126.88 218.985 126.115 218.895 125.575C217.365 127.735 215.655 129.49 213.765 130.84C211.875 132.19 209.76 133.18 207.42 133.81C205.08 134.44 202.38 134.755 199.32 134.755C195.54 134.755 192.21 134.17 189.33 133C186.45 131.92 184.02 130.3 182.04 128.14C180.06 125.89 178.575 123.145 177.585 119.905C176.595 116.665 176.1 112.93 176.1 108.7V62.26H202.425V104.38C202.425 106 202.515 107.485 202.695 108.835C202.965 110.185 203.37 111.355 203.91 112.345C204.54 113.335 205.35 114.1 206.34 114.64C207.42 115.09 208.68 115.315 210.12 115.315C212.19 115.315 213.855 114.865 215.115 113.965C216.465 113.065 217.41 111.625 217.95 109.645C218.49 107.575 218.76 104.83 218.76 101.41V62.26H245.085ZM261.571 133V80.62C261.571 78.55 261.571 76.48 261.571 74.41C261.571 72.25 261.571 70.18 261.571 68.2C261.571 66.13 261.526 64.15 261.436 62.26H287.086C287.266 62.8 287.401 63.565 287.491 64.555C287.581 65.455 287.671 66.4 287.761 67.39C287.851 68.38 287.896 69.28 287.896 70.09C288.526 69.1 289.381 68.065 290.461 66.985C291.631 65.815 293.026 64.735 294.646 63.745C296.266 62.755 298.156 61.99 300.316 61.45C302.566 60.82 305.131 60.505 308.011 60.505C311.611 60.505 314.806 61.09 317.596 62.26C320.386 63.43 322.771 65.185 324.751 67.525C326.821 69.775 328.396 72.565 329.476 75.895C330.556 79.225 331.096 83.05 331.096 87.37V133H304.906V90.475C304.906 88.225 304.636 86.29 304.096 84.67C303.556 83.05 302.701 81.835 301.531 81.025C300.451 80.215 298.876 79.81 296.806 79.81C295.006 79.81 293.431 80.215 292.081 81.025C290.731 81.745 289.696 83.05 288.976 84.94C288.256 86.74 287.896 89.305 287.896 92.635V133H261.571ZM391.846 35.26H418.171V111.535C418.171 113.875 418.171 116.35 418.171 118.96C418.171 121.48 418.171 123.955 418.171 126.385C418.261 128.725 418.306 130.93 418.306 133H392.791C392.701 132.28 392.566 131.515 392.386 130.705C392.296 129.895 392.206 129.085 392.116 128.275C392.116 127.465 392.071 126.79 391.981 126.25C390.811 127.96 389.371 129.445 387.661 130.705C385.951 131.965 383.881 132.955 381.451 133.675C379.021 134.395 376.096 134.755 372.676 134.755C368.086 134.755 363.991 133.81 360.391 131.92C356.881 130.03 353.866 127.465 351.346 124.225C348.916 120.895 347.071 117.025 345.811 112.615C344.641 108.115 344.056 103.255 344.056 98.035C344.056 93.715 344.506 89.665 345.406 85.885C346.396 82.105 347.746 78.685 349.456 75.625C351.166 72.475 353.281 69.775 355.801 67.525C358.411 65.275 361.336 63.565 364.576 62.395C367.906 61.135 371.551 60.505 375.511 60.505C377.671 60.505 379.606 60.685 381.316 61.045C383.116 61.315 384.691 61.72 386.041 62.26C387.481 62.71 388.696 63.34 389.686 64.15C390.676 64.87 391.396 65.635 391.846 66.445V35.26ZM382.396 78.865C380.866 78.865 379.471 79.09 378.211 79.54C377.041 79.99 376.006 80.71 375.106 81.7C374.296 82.69 373.576 83.95 372.946 85.48C372.316 86.92 371.821 88.63 371.461 90.61C371.191 92.59 371.056 94.84 371.056 97.36C371.056 100.51 371.281 103.255 371.731 105.595C372.181 107.935 372.856 109.915 373.756 111.535C374.746 113.065 375.916 114.235 377.266 115.045C378.616 115.855 380.236 116.26 382.126 116.26C384.106 116.26 385.726 115.945 386.986 115.315C388.246 114.595 389.281 113.65 390.091 112.48C390.991 111.22 391.621 109.825 391.981 108.295C392.341 106.675 392.566 104.965 392.656 103.165C392.836 101.365 392.926 99.475 392.926 97.495C392.926 94.525 392.791 91.915 392.521 89.665C392.341 87.325 391.891 85.345 391.171 83.725C390.451 82.105 389.371 80.89 387.931 80.08C386.581 79.27 384.736 78.865 382.396 78.865ZM468.089 117.07C469.619 117.07 470.879 116.935 471.869 116.665C472.949 116.305 473.804 115.855 474.434 115.315C475.154 114.775 475.739 114.1 476.189 113.29C476.639 112.48 477.044 111.625 477.404 110.725H503.189C502.739 112.615 501.974 114.64 500.894 116.8C499.904 118.96 498.509 121.12 496.709 123.28C494.999 125.35 492.839 127.285 490.229 129.085C487.619 130.795 484.424 132.145 480.644 133.135C476.954 134.215 472.589 134.755 467.549 134.755C460.889 134.755 455.219 133.765 450.539 131.785C445.949 129.715 442.214 126.925 439.334 123.415C436.454 119.905 434.339 115.99 432.989 111.67C431.729 107.26 431.099 102.76 431.099 98.17C431.099 93.94 431.549 89.935 432.449 86.155C433.349 82.375 434.744 78.91 436.634 75.76C438.524 72.61 440.954 69.91 443.924 67.66C446.894 65.32 450.359 63.565 454.319 62.395C458.369 61.135 462.959 60.505 468.089 60.505C474.929 60.505 480.644 61.585 485.234 63.745C489.914 65.815 493.604 68.605 496.304 72.115C499.004 75.535 500.939 79.405 502.109 83.725C503.279 87.955 503.864 92.275 503.864 96.685C503.864 97.495 503.864 98.26 503.864 98.98C503.864 99.61 503.819 100.24 503.729 100.87C503.729 101.5 503.684 102.13 503.594 102.76H457.559C457.559 105.19 457.874 107.485 458.504 109.645C459.224 111.805 460.349 113.605 461.879 115.045C463.409 116.395 465.479 117.07 468.089 117.07ZM467.954 76.84C466.604 76.84 465.344 77.065 464.174 77.515C463.094 77.875 462.194 78.415 461.474 79.135C460.754 79.855 460.124 80.755 459.584 81.835C459.134 82.825 458.729 83.95 458.369 85.21C458.099 86.38 457.919 87.685 457.829 89.125H477.539C477.539 87.415 477.359 85.84 476.999 84.4C476.729 82.96 476.234 81.7 475.514 80.62C474.794 79.45 473.804 78.55 472.544 77.92C471.374 77.2 469.844 76.84 467.954 76.84ZM517.029 133V82.51C517.029 80.26 517.029 77.965 517.029 75.625C517.029 73.285 517.029 70.99 517.029 68.74C517.029 66.49 516.984 64.33 516.894 62.26H542.679C542.769 62.98 542.859 64.06 542.949 65.5C543.039 66.85 543.084 68.29 543.084 69.82C543.174 71.35 543.219 72.655 543.219 73.735C543.939 72.025 544.884 70.405 546.054 68.875C547.314 67.255 548.799 65.815 550.509 64.555C552.309 63.295 554.424 62.305 556.854 61.585C559.284 60.865 561.984 60.505 564.954 60.505V84.535C560.004 84.355 555.909 84.76 552.669 85.75C549.519 86.65 547.179 88.54 545.649 91.42C544.119 94.21 543.354 98.395 543.354 103.975V133H517.029ZM607.7 118.15C609.41 118.15 610.805 118.015 611.885 117.745C612.965 117.385 613.775 116.845 614.315 116.125C614.855 115.315 615.125 114.37 615.125 113.29C615.125 112.48 614.9 111.76 614.45 111.13C614.09 110.41 613.415 109.825 612.425 109.375C611.435 108.925 610.13 108.475 608.51 108.025C606.98 107.485 605.045 106.99 602.705 106.54C596.675 105.1 591.77 103.57 587.99 101.95C584.3 100.24 581.51 98.395 579.62 96.415C577.73 94.435 576.425 92.32 575.705 90.07C575.075 87.82 574.76 85.435 574.76 82.915C574.76 80.305 575.255 77.695 576.245 75.085C577.325 72.475 579.035 70.09 581.375 67.93C583.805 65.68 587.045 63.88 591.095 62.53C595.145 61.18 600.185 60.505 606.215 60.505C611.975 60.505 616.835 61.18 620.795 62.53C624.845 63.79 628.13 65.5 630.65 67.66C633.17 69.82 635.015 72.205 636.185 74.815C637.445 77.335 638.12 79.855 638.21 82.375H614.72C614.63 81.745 614.405 81.07 614.045 80.35C613.685 79.63 613.19 78.955 612.56 78.325C611.93 77.695 611.03 77.2 609.86 76.84C608.69 76.48 607.25 76.3 605.54 76.3C603.92 76.3 602.615 76.48 601.625 76.84C600.725 77.2 600.05 77.74 599.6 78.46C599.24 79.09 599.06 79.81 599.06 80.62C599.06 81.52 599.375 82.33 600.005 83.05C600.725 83.68 602.075 84.31 604.055 84.94C606.125 85.48 609.05 86.2 612.83 87.1C618.5 88.36 623.09 89.8 626.6 91.42C630.2 93.04 632.99 94.84 634.97 96.82C637.04 98.8 638.435 101.005 639.155 103.435C639.965 105.775 640.37 108.34 640.37 111.13C640.37 114.28 639.74 117.295 638.48 120.175C637.31 122.965 635.375 125.485 632.675 127.735C630.065 129.895 626.6 131.605 622.28 132.865C618.05 134.125 612.92 134.755 606.89 134.755C601.13 134.755 596.135 134.125 591.905 132.865C587.765 131.605 584.345 129.895 581.645 127.735C578.945 125.485 576.83 122.92 575.3 120.04C573.86 117.16 572.96 114.19 572.6 111.13H597.035C597.395 112.21 597.845 113.2 598.385 114.1C598.925 115 599.645 115.765 600.545 116.395C601.535 116.935 602.615 117.385 603.785 117.745C604.955 118.015 606.26 118.15 607.7 118.15Z" fill="black"/>
<g clip-path="url(#clip0_1063_3935)">
<path d="M737.769 51H726.593V76.4441H737.769V51Z" fill="#FBC02D"/>
<path d="M737.769 121.906H726.593V147.35H737.769V121.906Z" fill="#FBC02D"/>
<path d="M780.35 93.5931H754.906V104.769H780.35V93.5931Z" fill="#FBC02D"/>
<path d="M709.444 93.5931H684V104.769H709.444V93.5931Z" fill="#FBC02D"/>
<path d="M762.295 61.1631L744.303 79.1548L752.206 87.0574L770.198 69.0657L762.295 61.1631Z" fill="#FBC02D"/>
<path d="M712.143 111.292L694.151 129.284L702.054 137.187L720.045 119.195L712.143 111.292Z" fill="#FBC02D"/>
<path d="M752.201 111.298L744.298 119.2L762.29 137.192L770.192 129.289L752.201 111.298Z" fill="#FBC02D"/>
<path d="M702.059 61.158L694.156 69.0607L712.148 87.0524L720.051 79.1497L702.059 61.158Z" fill="#FBC02D"/>
</g>
<defs>
<clipPath id="clip0_1063_3935">
<rect width="96.35" height="96.35" fill="white" transform="translate(684 51)"/>
</clipPath>
</defs>
</svg>
