<svg width="552" height="150" viewBox="0 0 552 150" fill="none" xmlns="http://www.w3.org/2000/svg">
<path d="M28.215 133V60.235H1.62V39.985H81.81V60.235H55.485V133H28.215ZM147.814 86.56V111.94C147.814 114.01 147.814 116.17 147.814 118.42C147.904 120.58 147.994 122.65 148.084 124.63C148.174 126.61 148.264 128.365 148.354 129.895C148.444 131.335 148.534 132.37 148.624 133H124.324C124.144 132.55 123.964 131.92 123.784 131.11C123.694 130.3 123.604 129.49 123.514 128.68C123.424 127.78 123.334 127.06 123.244 126.52C122.164 127.96 120.769 129.31 119.059 130.57C117.439 131.83 115.324 132.82 112.714 133.54C110.194 134.35 107.044 134.755 103.264 134.755C98.0445 134.755 93.5895 133.765 89.8995 131.785C86.2995 129.715 83.5545 126.97 81.6645 123.55C79.7745 120.13 78.8295 116.35 78.8295 112.21C78.8295 108.79 79.3245 105.82 80.3145 103.3C81.3945 100.69 82.9245 98.44 84.9045 96.55C86.8845 94.66 89.2695 93.13 92.0595 91.96C94.9395 90.7 98.1795 89.8 101.779 89.26C105.469 88.63 109.474 88.315 113.794 88.315C114.604 88.315 115.504 88.315 116.494 88.315C117.574 88.315 118.654 88.315 119.734 88.315C120.814 88.315 121.714 88.315 122.434 88.315V84.4C122.434 83.23 122.299 82.195 122.029 81.295C121.849 80.305 121.444 79.45 120.814 78.73C120.274 78.01 119.509 77.47 118.519 77.11C117.529 76.75 116.179 76.57 114.469 76.57C113.029 76.57 111.814 76.75 110.824 77.11C109.834 77.38 109.024 77.83 108.394 78.46C107.854 79.09 107.404 79.855 107.044 80.755C106.774 81.655 106.549 82.69 106.369 83.86H82.0695C82.3395 80.89 83.0145 78.01 84.0945 75.22C85.2645 72.43 87.0645 69.955 89.4945 67.795C92.0145 65.545 95.3445 63.79 99.4845 62.53C103.714 61.18 108.934 60.505 115.144 60.505C120.994 60.505 125.944 61.09 129.994 62.26C134.134 63.34 137.509 65.005 140.119 67.255C142.819 69.415 144.754 72.115 145.924 75.355C147.184 78.595 147.814 82.33 147.814 86.56ZM122.434 103.84V101.545C121.804 101.545 120.949 101.545 119.869 101.545C118.789 101.545 117.709 101.545 116.629 101.545C114.379 101.545 112.489 101.77 110.959 102.22C109.429 102.58 108.169 103.12 107.179 103.84C106.279 104.56 105.604 105.46 105.154 106.54C104.794 107.53 104.614 108.7 104.614 110.05C104.614 111.4 104.884 112.66 105.424 113.83C105.964 114.91 106.819 115.81 107.989 116.53C109.159 117.16 110.599 117.475 112.309 117.475C114.559 117.475 116.359 117.115 117.709 116.395C119.059 115.675 120.049 114.685 120.679 113.425C121.399 112.165 121.849 110.725 122.029 109.105C122.299 107.485 122.434 105.73 122.434 103.84ZM190.566 133H164.241V35.26H190.566V133ZM240.741 117.07C242.271 117.07 243.531 116.935 244.521 116.665C245.601 116.305 246.456 115.855 247.086 115.315C247.806 114.775 248.391 114.1 248.841 113.29C249.291 112.48 249.696 111.625 250.056 110.725H275.841C275.391 112.615 274.626 114.64 273.546 116.8C272.556 118.96 271.161 121.12 269.361 123.28C267.651 125.35 265.491 127.285 262.881 129.085C260.271 130.795 257.076 132.145 253.296 133.135C249.606 134.215 245.241 134.755 240.201 134.755C233.541 134.755 227.871 133.765 223.191 131.785C218.601 129.715 214.866 126.925 211.986 123.415C209.106 119.905 206.991 115.99 205.641 111.67C204.381 107.26 203.751 102.76 203.751 98.17C203.751 93.94 204.201 89.935 205.101 86.155C206.001 82.375 207.396 78.91 209.286 75.76C211.176 72.61 213.606 69.91 216.576 67.66C219.546 65.32 223.011 63.565 226.971 62.395C231.021 61.135 235.611 60.505 240.741 60.505C247.581 60.505 253.296 61.585 257.886 63.745C262.566 65.815 266.256 68.605 268.956 72.115C271.656 75.535 273.591 79.405 274.761 83.725C275.931 87.955 276.516 92.275 276.516 96.685C276.516 97.495 276.516 98.26 276.516 98.98C276.516 99.61 276.471 100.24 276.381 100.87C276.381 101.5 276.336 102.13 276.246 102.76H230.211C230.211 105.19 230.526 107.485 231.156 109.645C231.876 111.805 233.001 113.605 234.531 115.045C236.061 116.395 238.131 117.07 240.741 117.07ZM240.606 76.84C239.256 76.84 237.996 77.065 236.826 77.515C235.746 77.875 234.846 78.415 234.126 79.135C233.406 79.855 232.776 80.755 232.236 81.835C231.786 82.825 231.381 83.95 231.021 85.21C230.751 86.38 230.571 87.685 230.481 89.125H250.191C250.191 87.415 250.011 85.84 249.651 84.4C249.381 82.96 248.886 81.7 248.166 80.62C247.446 79.45 246.456 78.55 245.196 77.92C244.026 77.2 242.496 76.84 240.606 76.84ZM289.815 133V80.62C289.815 78.55 289.815 76.48 289.815 74.41C289.815 72.25 289.815 70.18 289.815 68.2C289.815 66.13 289.77 64.15 289.68 62.26H315.33C315.51 62.8 315.645 63.565 315.735 64.555C315.825 65.455 315.915 66.4 316.005 67.39C316.095 68.38 316.14 69.28 316.14 70.09C316.77 69.1 317.625 68.065 318.705 66.985C319.875 65.815 321.27 64.735 322.89 63.745C324.51 62.755 326.4 61.99 328.56 61.45C330.81 60.82 333.375 60.505 336.255 60.505C339.855 60.505 343.05 61.09 345.84 62.26C348.63 63.43 351.015 65.185 352.995 67.525C355.065 69.775 356.64 72.565 357.72 75.895C358.8 79.225 359.34 83.05 359.34 87.37V133H333.15V90.475C333.15 88.225 332.88 86.29 332.34 84.67C331.8 83.05 330.945 81.835 329.775 81.025C328.695 80.215 327.12 79.81 325.05 79.81C323.25 79.81 321.675 80.215 320.325 81.025C318.975 81.745 317.94 83.05 317.22 84.94C316.5 86.74 316.14 89.305 316.14 92.635V133H289.815ZM368.813 79.945V62.26H378.938V43.9H404.993V62.26H417.413V79.945H404.993V110.32C404.993 111.76 405.173 112.93 405.533 113.83C405.983 114.73 406.703 115.405 407.693 115.855C408.683 116.215 410.123 116.395 412.013 116.395C412.463 116.395 413.003 116.395 413.633 116.395C414.263 116.395 414.938 116.35 415.658 116.26V132.46C414.308 132.91 412.688 133.225 410.798 133.405C408.998 133.675 407.153 133.855 405.263 133.945C403.373 134.035 401.708 134.08 400.268 134.08C396.038 134.08 392.528 133.585 389.738 132.595C387.038 131.605 384.878 130.21 383.258 128.41C381.638 126.52 380.468 124.27 379.748 121.66C379.118 118.96 378.803 115.945 378.803 112.615V79.945H368.813Z" fill="black"/>
<path d="M504.993 133L497.781 103.426L471.765 119.231L487.607 93.2075L458 86.0072L487.565 78.7925L471.765 52.7695L497.781 68.5745L504.993 39L512.219 68.5745L538.235 52.7695L522.435 78.7925L552 86.0072L522.435 93.2356L538.235 119.259L512.219 103.454L504.993 133Z" fill="#03FFDA"/>
</svg>
