<svg width="97" height="97" viewBox="0 0 97 97" fill="none" xmlns="http://www.w3.org/2000/svg">
<g clip-path="url(#clip0_130_368)">
<path d="M53.7693 0.174927H42.5933V25.6191H53.7693V0.174927Z" fill="currentColor"/>
<path d="M53.7693 71.0808H42.5933V96.525H53.7693V71.0808Z" fill="currentColor"/>
<path d="M96.3499 42.7681H70.9058V53.9441H96.3499V42.7681Z" fill="currentColor"/>
<path d="M25.4441 42.7681H0V53.9441H25.4441V42.7681Z" fill="currentColor"/>
<path d="M78.295 10.338L60.3032 28.3297L68.2059 36.2324L86.1976 18.2406L78.295 10.338Z" fill="currentColor"/>
<path d="M28.1426 60.4675L10.1509 78.4592L18.0535 86.3619L36.0453 68.3702L28.1426 60.4675Z" fill="currentColor"/>
<path d="M68.2005 60.4726L60.2979 68.3752L78.2896 86.367L86.1922 78.4643L68.2005 60.4726Z" fill="currentColor"/>
<path d="M18.0589 10.3329L10.1562 18.2356L28.148 36.2273L36.0506 28.3247L18.0589 10.3329Z" fill="currentColor"/>
</g>
<defs>
<clipPath id="clip0_130_368">
<rect width="96.35" height="96.35" fill="white" transform="translate(0 0.174927)"/>
</clipPath>
</defs>
</svg>
