<svg width="85" height="88" viewBox="0 0 85 88" fill="none" xmlns="http://www.w3.org/2000/svg">
<path d="M42.5 16.75C57.7167 16.75 70 29.0333 70 44.25C70 59.4667 57.7167 71.75 42.5 71.75C27.2833 71.75 15 59.4667 15 44.25C15 29.0333 27.2833 16.75 42.5 16.75Z" fill="#FFDD67"/>
<path d="M45.9834 33.7085C43.9667 34.7169 40.9417 34.7169 38.9251 33.7085C36.8167 32.6085 34.1584 31.8752 30.9501 31.6002C27.8334 31.3252 21.3251 31.3252 18.1167 32.5169C17.7501 32.6085 17.3834 32.7919 17.0167 32.9752C16.9251 33.0669 16.8334 33.1585 16.8334 33.5252V33.9835C16.8334 34.9002 16.7417 34.5335 17.3834 34.9002C18.6667 35.6335 19.4001 37.5585 19.7667 40.2169C20.3167 44.0669 22.2417 46.5419 25.2667 47.6419C28.1084 48.7419 31.3167 48.6502 34.1584 47.5502C35.7167 46.9085 37.0917 45.9919 38.1917 44.3419C40.1167 41.5919 39.4751 39.8502 40.4834 37.4669C41.3084 35.3585 43.6917 35.3585 44.6084 37.4669C45.6167 39.8502 44.9751 41.5919 46.9001 44.3419C48.0001 45.9002 49.3751 46.9085 50.9334 47.5502C53.7751 48.6502 56.9834 48.7419 59.8251 47.6419C62.9417 46.4502 64.7751 44.0669 65.3251 40.2169C65.6917 37.5585 66.4251 35.6335 67.7084 34.9002C68.3501 34.5335 68.2584 34.9002 68.2584 33.9835V33.5252C68.2584 33.1585 68.2584 33.0669 67.9834 32.9752C67.6167 32.7919 67.2501 32.6085 66.8834 32.5169C63.5834 31.3252 57.0751 31.3252 54.0501 31.6002C50.8417 31.8752 48.1834 32.6085 45.9834 33.7085Z" fill="#494949"/>
<path d="M54.0499 53.6918C46.6249 58.9168 38.3749 58.8252 30.9499 53.6918C30.0332 53.0502 29.2999 54.1502 29.8499 55.1585C32.1415 58.8252 36.6332 62.2168 42.4999 62.2168C48.3665 62.2168 52.8582 58.9168 55.1499 55.1585C55.6999 54.1502 54.9665 53.0502 54.0499 53.6918Z" fill="#664E27"/>
<path d="M70 43.8418C70 59.0585 57.7167 71.3418 42.5 71.3418C27.2833 71.3418 15 59.0585 15 43.8418C15 30.6418 24.2583 19.6418 36.725 16.9835H37.4583L38.0083 16.7085C38.4667 16.6168 38.925 16.6168 39.3833 16.5251H40.3L41.0333 16.3418H41.4L42.5 16.5251L43.2333 16.3418H43.6L45.0667 16.7085L46.8083 16.6168C46.9917 16.6168 47.2667 16.7085 47.45 16.7085L54.05 20.9251L61.2 23.6751C66.6083 28.7168 70 35.8668 70 43.8418Z" fill="#450ADF"/>
<path d="M43.8753 25.0497C45.7086 25.5997 45.6169 24.4997 46.7169 25.7831C47.3586 26.5164 48.5503 27.8914 49.9253 28.2581C50.1086 28.3497 50.5669 27.8914 50.5669 27.5247C50.5669 27.1581 49.5586 26.5164 49.0086 26.3331C48.4586 26.1497 49.1919 25.1414 48.4586 24.8664C47.7253 24.5914 46.9003 23.3997 46.6253 22.4831C46.3503 21.5664 45.0669 22.2997 44.6086 22.1164C44.1503 21.9331 43.6003 22.0247 43.1419 22.7581C42.6836 23.4914 43.4169 24.8664 43.8753 25.0497Z" fill="#FBC02D"/>
<path d="M53.5001 50.9003C53.5001 50.5336 49.9251 48.6086 49.5584 48.517C48.8251 48.517 47.9084 48.1503 47.2668 48.517C46.9918 48.7003 46.7168 48.8836 46.6251 49.1586C46.5334 49.342 45.8001 48.9753 45.5251 49.067C44.8834 49.4336 44.5168 48.3336 44.7001 47.8753C45.1584 46.867 43.6001 47.5086 43.4168 47.2336C43.6001 47.6003 43.3251 44.3003 42.7751 46.1336C42.3168 47.5086 40.7584 45.9503 40.9418 44.942C41.2168 43.3836 43.6001 43.1086 44.1501 43.3836C44.4251 43.567 45.3418 44.942 45.5251 44.8503C45.8001 44.7586 45.3418 43.2003 45.3418 43.017C45.1584 42.2836 46.6251 42.0086 46.7168 41.1836C46.8084 40.542 47.2668 40.7253 47.7251 40.3586C48.3668 39.8086 47.9084 38.892 48.7334 38.342C49.0084 38.1586 50.1084 38.067 50.2001 37.7003C50.2918 37.4253 49.2834 36.692 50.2001 36.417C51.0251 36.2336 51.8501 36.6003 52.0334 35.4086C52.2168 34.4003 51.0251 34.1253 50.7501 33.3003C50.6584 33.0253 50.4751 31.6503 50.0168 31.9253C49.3751 32.292 49.0084 33.0253 48.5501 32.1086C47.6334 30.4586 45.4334 29.7253 46.4418 32.3836C46.9918 33.7586 44.9751 37.8836 44.7001 34.0336C44.6084 32.7503 40.6668 32.292 41.9501 30.8253C43.3251 29.3586 45.1584 29.267 45.6168 26.9753C46.3501 23.767 44.1501 26.517 42.9584 25.8753C41.3084 24.9586 42.6834 25.417 41.8584 26.6086C41.4918 27.067 40.4834 26.3336 39.9334 26.4253C39.4751 26.517 38.3751 27.4336 38.0084 26.8836C37.4584 25.7836 33.5168 25.0503 32.4168 25.5086C30.2168 26.3336 29.3918 25.2336 27.1918 24.7753C26.4584 24.592 22.6084 24.5003 22.8834 25.7836C22.9751 26.3336 23.3418 26.7003 23.5251 27.1586C23.8001 27.892 22.7001 27.342 22.4251 27.5253C22.3334 27.617 23.7084 28.5336 23.8001 28.6253C24.1668 28.992 22.4251 29.4503 22.2418 30.092C21.8751 31.3753 24.6251 31.0086 24.1668 32.4753C23.9834 32.9336 22.4251 33.667 22.2418 35.2253C22.2418 35.5003 24.1668 33.3003 25.4501 33.7586C26.5501 34.1253 26.4584 31.1003 27.9251 31.1003C30.5834 31.1003 31.0418 33.667 32.4168 35.4086C33.0584 36.2336 33.6084 36.5086 33.7001 37.6086C33.7918 38.617 33.6084 39.8086 33.9751 40.7253C34.3418 41.642 34.9834 41.642 35.4418 42.3753C35.9918 43.2003 36.2668 44.0253 37.0001 44.7586C38.1001 45.8586 39.8418 47.417 41.4918 47.2336C41.8584 47.142 43.0501 47.8753 43.3251 48.0586C43.7834 48.4253 43.9668 48.8836 44.3334 49.342C44.6084 49.7086 45.5251 49.5253 45.9834 49.7086C46.3501 49.892 45.0668 52.642 45.5251 53.3753C46.0751 54.2003 46.0751 55.0253 46.9001 55.667C47.6334 56.217 47.9084 56.3086 48.0001 57.317C48.1834 58.967 47.6334 60.7086 47.2668 62.267C47.0834 63.092 47.4501 64.0086 47.1751 64.742C46.8084 65.6586 46.5334 66.4836 46.9001 67.5836C47.4501 69.417 50.8418 69.692 48.8251 68.1336C48.0001 67.492 49.7418 65.7503 49.1918 65.6586C48.2751 65.292 49.3751 64.9253 49.4668 64.467C49.7418 63.642 53.4084 60.342 53.6834 59.792C53.9584 59.3336 53.7751 58.8753 54.1418 58.417C54.6001 57.9586 55.1501 58.142 55.6084 57.7753C56.6168 57.1336 56.2501 56.0336 56.6168 55.117C57.4418 53.2836 57.7168 54.017 56.6168 52.642C56.2501 52.1836 53.5918 52.367 53.5001 50.9003Z" fill="#FBC02D"/>
<path d="M33.7 23.7667C34.3417 24.5 35.075 23.4 35.1667 23.7667C35.2583 24.1333 35.2583 24.8667 36.0833 24.8667C36.9083 24.8667 35.35 25.4167 35.8083 25.6917C36.3583 25.875 37.4583 26.6083 37.825 26.3333C38.1917 26.0583 38.7417 25.7833 38.925 26.0583C39.1083 26.2417 40.2083 26.0583 39.9333 25.6917C39.6583 25.325 38.7417 24.4083 38.8333 23.95C38.8333 23.4 39.8417 22.1167 38.7417 22.3C38.1 22.2083 37.9167 22.85 37.9167 23.2167C37.9167 23.5833 36.9083 22.6667 36.725 22.6667C36.5417 22.6667 35.8083 21.5667 35.5333 21.5667C35.2583 21.5667 33.5167 21.0167 33.7 21.5667C33.8833 22.1167 33.0583 23.0333 33.7 23.7667ZM49.2833 29.0833C48.7333 28.8083 47.725 27.4333 47.3583 27.8917C46.9 28.35 47.45 29.3583 47.8167 29.8167C48.1833 30.275 49.7417 31.1917 49.5583 30.825C49.375 30.4583 50.2917 29.6333 49.2833 29.0833ZM34.7083 19.6417C34.9833 19.6417 35.4417 20.5583 35.8083 20.65C36.175 20.7417 36.3583 21.2 36.5417 21.2917C36.725 21.3833 38.375 20.7417 38.7417 20.65C39.2 20.4667 38.2833 19.55 37.9167 18.9083C37.6417 18.2667 37.9167 20.0083 37.3667 19.7333C36.8167 19.4583 37 19.0917 36.45 19.0917C35.9 19.0917 36.2667 17.9 35.5333 18.175C34.8 18.45 34.4333 19.6417 34.7083 19.6417ZM40.6667 21.8417C40.2083 21.9333 40.3 22.3 40.025 22.575C39.75 22.85 39.75 23.2167 40.025 23.5833C40.3 23.95 40.6667 24.5 40.9417 23.95C41.2167 23.4 40.9417 22.9417 40.9417 22.575C40.9417 22.2083 40.9417 21.75 40.6667 21.8417ZM41.675 23.5833C41.7667 23.8583 42.0417 23.0333 42.5 22.6667C42.9583 22.2083 42.225 21.2 41.8583 21.75C41.4917 22.025 41.5833 23.3083 41.675 23.5833ZM41.5833 23.95C41.3083 24.3167 41.125 25.2333 41.5833 25.325C42.0417 25.4167 42.3167 24.8667 42.1333 24.5C41.95 24.1333 41.675 23.7667 41.5833 23.95ZM43.4167 17.7167C42.9583 17.9 44.0583 18.2667 43.325 18.45C42.5917 18.6333 42.5917 19.275 41.95 18.725C41.3083 18.175 40.575 18.9083 41.125 19.1833C41.675 19.4583 42.4083 20.2833 42.4083 20.65C42.4083 21.1083 43.1417 21.2917 43.875 21.2C44.6083 21.1083 45.525 21.3833 45.525 21.0167C45.525 20.65 45.6167 20.5583 45.525 20.2833C45.4333 19.9167 45.0667 19.55 44.3333 19.9167C43.6 20.1917 43.05 20.1 42.9583 19.7333C42.8667 19.3667 44.425 18.6333 45.1583 19.1833C45.8917 19.6417 46.5333 18.9083 45.9833 18.5417C45.4333 18.175 45.8 17.8083 46.1667 17.8083C46.4417 17.8083 46.625 17.075 46.8083 16.6167C45.7083 16.4333 44.6083 16.3417 43.5083 16.25C43.6 17.075 43.875 17.5333 43.4167 17.7167ZM36.9083 17.075C37.3667 17.2583 38.1917 17.075 38.1 16.7083L36.725 16.9833C36.725 16.9833 36.8167 17.075 36.9083 17.075ZM37.1833 17.4417C36.45 17.075 36.5417 17.9917 36.8167 18.2667C37.0917 18.5417 38.1 17.9 37.1833 17.4417Z" fill="#FBC02D"/>
<path d="M41.4 16.3418C41.95 16.4335 42.225 16.8001 42.3167 17.1668C42.5 17.4418 43.2333 16.8001 43.2333 16.3418H41.4ZM39.9333 17.3501C39.6583 17.8085 39.9333 18.2668 40.3 17.9001C40.6667 17.4418 40.3917 16.3418 40.6667 16.8918C40.9417 17.3501 41.4917 18.0835 41.8583 18.1751C42.225 18.1751 41.95 17.7168 41.8583 17.3501C41.8583 16.9835 40.9417 16.6168 41.0333 16.4335C40.4833 16.4335 39.9333 16.5251 39.3833 16.5251C39.75 16.8001 40.2083 17.0751 39.9333 17.3501ZM41.5833 21.1085C42.0417 21.2918 41.5833 20.1918 41.5833 20.1918C41.125 20.4668 41.125 20.9251 41.5833 21.1085ZM40.025 20.3751C40.1167 20.6501 40.575 20.7418 40.85 20.3751C41.125 20.0085 40.85 18.5418 40.4833 19.0001C40.1167 19.4585 39.75 19.2751 39.0167 19.0001C38.2833 18.7251 39.9333 20.1001 40.025 20.3751ZM44.8833 45.6751C45.525 45.5835 45.8917 46.3168 46.5333 46.3168C47.175 46.3168 48.275 47.3251 48.825 46.6835C49.2833 46.2251 46.7167 45.7668 45.8917 45.3085C44.975 44.8501 44.2417 45.7668 44.8833 45.6751ZM47.9083 17.8085C48.7333 18.1751 48.6417 18.1751 48.0917 18.6335C47.5417 19.0918 47.725 19.9168 48.9167 19.8251C50.1083 19.7335 50.75 18.6335 51.3 20.1918C51.85 21.8418 51.4833 23.5835 52.125 24.0418C52.7667 24.5001 52.2167 24.8668 52.125 25.3251C52.0333 25.7835 52.3083 26.1501 52.8583 25.9668C53.4083 25.7835 53.225 26.7918 52.8583 27.1585C52.4917 27.5251 52.0333 28.3501 53.225 29.7251C54.4167 31.1001 54.5083 30.9168 54.875 31.4668C55.2417 31.9251 55.5167 31.2835 55.6083 30.7335C55.7 30.1835 55.2417 28.2585 56.6167 28.2585C57.9 28.2585 58.2667 27.2501 58.45 26.8835C58.6333 26.5168 59.6417 26.6085 60.1917 26.1501C60.65 25.6918 61.2 25.3251 61.2917 23.6751C57.5333 20.1918 52.8583 17.8085 47.6333 16.8001C47.45 17.1668 47.45 17.6251 47.9083 17.8085Z" fill="#FBC02D"/>
</svg>
