<svg width="80" height="97" viewBox="0 0 80 97" fill="none" xmlns="http://www.w3.org/2000/svg">
<g clip-path="url(#clip0_130_422)">
<path d="M79.3277 33.7C75.8753 11.4177 54.2754 -3.64344 32.201 1.02449C17.0088 4.23736 6.602 13.4377 2.01089 28.2729C-2.51243 42.8958 0.632657 56.2759 11.1344 67.5007C18.5904 75.4718 26.5119 83.0047 34.2209 90.7364C36.1098 92.6297 37.9851 94.5322 39.9553 96.5204C40.2536 96.2493 40.4524 96.0821 40.6331 95.9014C49.8696 86.6604 59.2009 77.5143 68.3199 68.1559C77.6783 58.5534 81.3792 46.9491 79.3277 33.6955V33.7ZM39.9372 54.8661C31.5955 54.8661 24.8354 48.1059 24.8354 39.7642C24.8354 31.4225 31.5955 24.6624 39.9372 24.6624C48.2789 24.6624 55.0391 31.4225 55.0391 39.7642C55.0391 48.1059 48.2789 54.8661 39.9372 54.8661Z" fill="currentColor"/>
</g>
<defs>
<clipPath id="clip0_130_422">
<rect width="79.879" height="96.35" fill="white" transform="translate(0 0.174927)"/>
</clipPath>
</defs>
</svg>
