<svg width="114" height="114" viewBox="0 0 114 114" fill="none" xmlns="http://www.w3.org/2000/svg">
<path d="M101.172 92.9349C101.758 93.5206 102.708 93.5206 103.293 92.9349L112.839 83.3889C113.425 82.8031 113.425 81.8534 112.839 81.2676C112.254 80.6818 111.304 80.6818 110.718 81.2676L102.233 89.7529L93.7475 81.2676C93.1617 80.6818 92.2119 80.6818 91.6262 81.2676C91.0404 81.8534 91.0404 82.8031 91.6262 83.3889L101.172 92.9349ZM3.31039 32.6749C27.6925 27.5181 52.1114 32.2133 70.4022 43.2845C88.6936 54.356 100.733 71.7072 100.733 91.8742L103.733 91.8742C103.733 70.405 90.9055 52.1881 71.9556 40.718C53.005 29.2474 27.8075 24.4274 2.68961 29.7399L3.31039 32.6749Z" fill="black"/>
<circle cx="3" cy="31.238" r="3" fill="black"/>
</svg>
