<svg width="410" height="413" viewBox="0 0 410 413" fill="none" xmlns="http://www.w3.org/2000/svg"><g clip-path="url(#clip0_341_1907)"><g clip-path="url(#clip1_341_1907)"><path d="M267.809 45.9773L265.921 51.9982L258.642 49.7036L252.041 70.6737L244.941 68.4372L251.542 47.467L244.262 45.1724L246.151 39.1515L267.809 45.9773Z" fill="#450ADF"/><path d="M285.738 73.8308L280.638 83.7429L274.422 80.5522L279.4 70.8857C280.752 68.2685 280.66 66.3135 278.477 65.1756C276.32 64.0601 274.324 64.948 272.972 67.5652L267.994 77.2317L261.777 74.0411L274.718 48.8944L280.935 52.0851L276.547 60.6004C278.398 59.9203 280.372 59.8816 282.817 61.1448C286.486 63.032 289.354 66.8273 285.738 73.8308Z" fill="#450ADF"/><path d="M304.064 74.7066C309.396 78.722 310.612 84.6292 306.965 89.4826C306.525 90.0567 306.032 90.6506 305.443 91.1738L293.821 82.4198L293.773 82.4891C292.566 84.6244 292.672 86.5183 294.675 88.0168C296.223 89.1838 297.691 89.3167 298.935 88.3341L304.432 92.4686C301.573 95.3303 296.682 95.849 292.037 92.3481C286.062 87.8443 285.083 81.96 288.979 76.7943C292.946 71.5324 298.899 70.8105 304.095 74.7138L304.064 74.7066ZM302.657 83.7079C303.519 81.8787 303.05 80.158 301.378 78.8978C299.664 77.6117 297.914 77.6545 296.463 79.04L302.657 83.7079Z" fill="#450ADF"/><path d="M336.069 94.8551L324.641 111.379L343.432 104.114L348.243 110.151L320.323 120.491L314.84 113.605L331.157 88.6978L336.066 94.8703L336.069 94.8551Z" fill="#450ADF"/><path d="M348.813 125.801C352.083 131.607 350.802 137.512 345.516 140.484C344.886 140.837 344.195 141.175 343.445 141.419L336.318 128.735L336.246 128.766C334.294 130.228 333.621 132.005 334.836 134.19C335.78 135.876 337.062 136.594 338.605 136.197L341.962 142.185C338.205 143.645 333.507 142.162 330.664 137.084C327.01 130.575 328.476 124.778 334.112 121.614C339.858 118.394 345.595 120.119 348.783 125.794L348.813 125.801ZM343.899 133.468C345.431 132.15 345.684 130.372 344.658 128.554C343.613 126.682 341.977 126.027 340.108 126.719L343.91 133.487L343.899 133.468Z" fill="#450ADF"/><path d="M365.819 145.044L339.628 155.707L336.999 149.228L363.189 138.565L365.819 145.044Z" fill="#450ADF"/><path d="M351.278 156.121C357.532 154.454 362.721 157.631 364.505 164.347C366.29 171.064 363.367 176.408 357.117 178.06C350.866 179.711 345.674 176.55 343.889 169.834C342.105 163.117 345.028 157.773 351.278 156.121ZM355.284 171.203C358.222 170.422 359.804 168.407 359.108 165.795C358.412 163.183 356.026 162.224 353.103 163.008C350.181 163.793 348.569 165.801 349.28 168.416C349.976 171.028 352.362 171.988 355.3 171.207L355.284 171.203Z" fill="#450ADF"/><path d="M348.108 193.812C347.487 187.012 351.285 182.403 357.724 181.811C364.242 181.221 368.745 185.059 369.366 191.859C369.909 197.818 367.081 201.928 362.008 203.161L361.345 195.917C363.007 195.354 363.985 194.132 363.817 192.369C363.584 189.914 361.405 188.616 358.376 188.892C355.362 189.172 353.44 190.85 353.657 193.302C353.823 195.145 355.054 196.222 356.903 196.379L357.565 203.624C352.266 203.338 348.649 199.851 348.108 193.812Z" fill="#450ADF"/><path d="M369.557 215.348L348.722 214.66L348.951 207.672L369.786 208.36L369.557 215.348ZM374.797 215.958C372.622 215.886 371.064 214.137 371.132 211.913C371.2 209.689 372.872 208.049 375.061 208.125C377.236 208.197 378.794 209.946 378.726 212.17C378.658 214.394 376.987 216.034 374.797 215.958Z" fill="#450ADF"/><path d="M363.231 222.573L363.652 219.32L369.373 220.075L368.952 223.328L374.753 224.085L373.846 231.012L368.045 230.255L367.46 234.694L361.739 233.94L362.324 229.5L354.989 228.546C353.662 228.365 353.03 228.862 352.868 230.178L352.528 232.741L346.807 231.986L347.479 226.826C347.992 222.901 350.377 220.896 354.508 221.424L363.234 222.558L363.231 222.573Z" fill="#450ADF"/><path d="M365.098 245.648L350.59 246.227L362.821 254.027L360.864 261.241L340.555 246.351C337.555 244.152 335.988 242.514 336.891 239.196L338.568 233.045L344.145 234.556L343.281 237.706C342.95 238.917 343.081 239.528 344.063 240.224L344.725 240.701L367.06 238.484L365.113 245.652L365.098 245.648Z" fill="#450ADF"/><path d="M354.436 292.177C351.229 297.842 345.717 299.778 340.552 296.849C337.533 295.146 335.878 292.294 335.697 289.271L323.993 288.538L328.018 281.437L337.659 282.107L339.632 278.62L332.032 274.317L335.702 267.842L360.312 281.769L354.443 292.146L354.436 292.177ZM344.894 281.62L342.98 284.992C341.78 287.097 342.279 289.099 344.288 290.228C346.296 291.357 348.258 290.752 349.458 288.647L351.373 285.275L344.898 281.605L344.894 281.62Z" fill="#450ADF"/><path d="M332.841 310.905C328.61 316.057 322.649 317.019 317.968 313.188C317.397 312.732 316.841 312.216 316.34 311.599L325.557 300.344L325.487 300.295C323.404 299.003 321.513 299.029 319.933 300.965C318.712 302.469 318.503 303.918 319.444 305.202L315.094 310.519C312.356 307.544 312.05 302.639 315.725 298.146C320.456 292.37 326.397 291.629 331.387 295.726C336.489 299.897 336.96 305.888 332.837 310.921L332.841 310.905ZM323.91 309.128C325.702 310.078 327.443 309.662 328.772 308.039C330.124 306.388 330.165 304.625 328.824 303.12L323.91 309.128Z" fill="#450ADF"/><path d="M297.396 330.64C293.104 325.691 293.467 319.991 297.586 316.425C299.565 314.711 301.701 314.259 303.739 314.573L296.884 306.657L302.175 302.075L321.114 323.944L316.469 327.968L314.316 326.354C314.426 328.507 313.691 330.688 311.611 332.491C307.455 336.145 301.622 335.526 297.396 330.64ZM302.819 326.04C304.8 328.323 307.351 328.854 309.293 327.164C311.272 325.45 311.06 322.904 309.079 320.621C307.098 318.338 304.557 317.696 302.578 319.41C300.621 321.096 300.838 323.757 302.819 326.04Z" fill="#450ADF"/><path d="M294.344 332.877C297.674 338.424 296.065 344.284 290.104 347.872C284.143 351.46 278.203 350.123 274.873 344.576C271.542 339.03 273.151 333.169 279.113 329.581C285.074 325.993 291.014 327.33 294.344 332.877ZM280.978 340.925C282.545 343.53 284.913 344.502 287.239 343.095C289.565 341.688 289.807 339.134 288.251 336.547C286.684 333.942 284.316 332.97 281.99 334.377C279.667 335.769 279.422 338.338 280.978 340.925Z" fill="#450ADF"/><path d="M261.77 361.371L259.377 355.672L261.79 354.656C264.433 353.548 265.09 351.559 263.896 348.734L260.009 339.497L266.456 336.796L274.524 356.016L268.61 358.503L266.898 355.896C266.568 358.139 265.483 359.82 262.696 360.99L261.766 361.386L261.77 361.371Z" fill="#450ADF"/><path d="M252.825 358.204L255.966 357.309L257.553 362.868L254.412 363.763L256.016 369.39L249.301 371.304L247.697 365.676L243.381 366.909L241.794 361.35L246.11 360.118L244.08 353.005C243.717 351.728 243.018 351.34 241.726 351.699L239.24 352.408L237.653 346.849L242.658 345.423C246.47 344.346 249.259 345.722 250.403 349.727L252.809 358.2L252.825 358.204Z" fill="#450ADF"/><path d="M205.004 370.894C200.848 370.891 197.736 367.861 197.74 363.769C197.751 359.647 200.859 356.617 205.031 356.624C209.187 356.627 212.299 359.657 212.288 363.78C212.288 367.856 209.165 370.882 205.008 370.879L205.004 370.894Z" fill="#450ADF"/><path d="M142.375 367.223L144.278 361.205L151.558 363.5L158.174 342.533L165.274 344.77L158.658 365.737L165.937 368.031L164.034 374.048L142.379 367.207L142.375 367.223Z" fill="#450ADF"/><path d="M124.465 339.357L129.58 329.449L135.793 332.655L130.815 342.321C129.463 344.939 129.555 346.894 131.738 348.031C133.895 349.147 135.891 348.259 137.243 345.642L142.221 335.975L148.434 339.181L135.478 364.324L129.265 361.118L133.653 352.603C131.802 353.283 129.827 353.322 127.383 352.059C123.714 350.172 120.845 346.376 124.461 339.373L124.465 339.357Z" fill="#450ADF"/><path d="M106.17 338.489C100.854 334.477 99.6376 328.57 103.284 323.716C103.724 323.142 104.217 322.548 104.806 322.025L116.428 330.779L116.476 330.71C117.683 328.575 117.577 326.681 115.574 325.182C114.026 324.015 112.558 323.882 111.314 324.865L105.833 320.734C108.692 317.872 113.579 317.369 118.224 320.87C124.199 325.373 125.163 331.254 121.282 336.423C117.315 341.685 111.362 342.407 106.17 338.489ZM107.592 329.491C106.73 331.32 107.199 333.041 108.871 334.301C110.585 335.587 112.335 335.544 113.786 334.159L107.592 329.491Z" fill="#450ADF"/><path d="M74.1258 318.299L85.5544 301.775L66.7478 309.037L61.9367 303L89.8682 292.678L95.3477 299.58L79.0154 324.483L74.107 318.311L74.1258 318.299Z" fill="#450ADF"/><path d="M61.4123 287.36C58.1613 281.542 59.427 275.634 64.7092 272.677C65.3393 272.324 66.0305 271.986 66.7803 271.742L73.8925 284.423L73.9643 284.391C75.9167 282.929 76.6043 281.156 75.3747 278.968C74.4308 277.281 73.1481 276.563 71.6052 276.961L68.2489 270.973C72.0208 269.517 76.6994 271.011 79.5429 276.089C83.1932 282.613 81.7161 288.391 76.0793 291.556C70.3331 294.775 64.5848 293.031 61.4123 287.36ZM66.3271 279.693C64.7949 281.011 64.5449 282.774 65.5672 284.607C66.613 286.479 68.2298 287.146 70.1144 286.458L66.3271 279.693Z" fill="#450ADF"/><path d="M44.4186 268.136L70.6091 257.473L73.2386 263.952L47.0481 274.615L44.4186 268.136Z" fill="#450ADF"/><path d="M58.9744 257.063C52.7203 258.729 47.5317 255.553 45.7473 248.836C43.9628 242.12 46.8855 236.775 53.1361 235.124C59.3866 233.472 64.5787 236.633 66.3632 243.35C68.1477 250.067 65.2249 255.411 58.9744 257.063ZM54.9684 241.981C52.0308 242.761 50.4335 244.774 51.1446 247.389C51.8405 250 54.2269 250.96 57.1645 250.179C60.102 249.398 61.6841 247.382 60.9883 244.771C60.2924 242.159 57.906 241.2 54.9837 241.984L54.9684 241.981Z" fill="#450ADF"/><path d="M62.1447 219.372C62.7657 226.172 58.9674 230.78 52.5288 231.373C46.0104 231.963 41.5268 228.113 40.9057 221.313C40.3626 215.353 43.1906 211.244 48.2793 210.014L48.9416 217.258C47.2831 217.806 46.3015 219.043 46.4701 220.807C46.6877 223.258 48.8816 224.56 51.892 224.295C54.906 224.016 56.8283 222.337 56.6108 219.886C56.4447 218.042 55.2135 216.965 53.365 216.808L52.7027 209.564C58.0017 209.849 61.6041 213.332 62.1599 219.376L62.1447 219.372Z" fill="#450ADF"/><path d="M35.4596 197.21C37.6341 197.282 39.1918 199.032 39.1241 201.256C39.0564 203.48 37.3846 205.12 35.1948 205.044C33.0203 204.972 31.4626 203.222 31.5303 200.998C31.598 198.775 33.2697 197.134 35.4596 197.21ZM40.699 197.82L61.5341 198.508L61.3055 205.496L40.4704 204.808L40.699 197.82Z" fill="#450ADF"/><path d="M47.0371 190.614L46.62 193.852L40.8986 193.097L41.3193 189.844L35.518 189.087L36.4251 182.16L42.2264 182.917L42.8111 178.478L48.5324 179.232L47.9477 183.672L55.2823 184.626C56.6097 184.807 57.2413 184.31 57.4033 182.994L57.7435 180.431L63.4648 181.186L62.7926 186.346C62.2797 190.271 59.8943 192.276 55.7638 191.748L47.0371 190.614Z" fill="#450ADF"/><path d="M45.1734 167.524L59.6815 166.945L47.4507 159.145L49.4076 151.931L69.7167 166.821C72.7165 169.02 74.2839 170.658 73.3808 173.976L71.704 180.127L66.1268 178.616L66.9907 175.466C67.3218 174.254 67.1903 173.644 66.2087 172.947L65.5465 172.471L43.2119 174.688L45.1581 167.52L45.1734 167.524Z" fill="#450ADF"/><path d="M55.8512 120.999C59.0582 115.334 64.5696 113.397 69.7352 116.327C72.7538 118.03 74.4088 120.881 74.5897 123.905L86.2942 124.637L82.2687 131.739L72.6282 131.068L70.6545 134.556L78.2549 138.859L74.585 145.334L49.9747 131.407L55.8441 121.029L55.8512 120.999ZM65.3773 131.552L67.292 128.18C68.492 126.075 67.9923 124.073 65.9838 122.944C63.9753 121.815 62.0132 122.42 60.8131 124.525L58.8984 127.897L65.3737 131.567L65.3773 131.552Z" fill="#450ADF"/><path d="M77.4612 102.274C81.6926 97.1219 87.6533 96.1601 92.3462 100.01C92.9132 100.481 93.473 100.982 93.9737 101.599L84.7419 112.851L84.8112 112.899C86.8946 114.191 88.7859 114.165 90.3807 112.233C91.617 110.733 91.811 109.28 90.8885 107.985L95.2543 102.671C97.9923 105.646 98.298 110.551 94.6045 115.055C89.8577 120.828 83.9352 121.557 78.93 117.457C73.8321 113.27 73.3573 107.294 77.4954 102.266L77.4612 102.274ZM86.3886 104.067C84.5961 103.117 82.8591 103.517 81.5261 105.156C80.1743 106.806 80.1335 108.569 81.459 110.071L86.3886 104.067Z" fill="#450ADF"/><path d="M112.918 82.5577C117.194 87.5032 116.847 93.2067 112.727 96.7734C110.748 98.487 108.613 98.9394 106.575 98.6251L113.414 106.537L108.127 111.104L89.2073 89.2233L93.8522 85.1992L96.0054 86.8133C95.8953 84.6607 96.6298 82.4795 98.7101 80.6768C102.866 77.022 108.699 77.6418 112.922 82.5424L112.918 82.5577ZM107.479 87.1539C105.502 84.8556 102.966 84.3285 101.006 86.0303C99.027 87.7439 99.2385 90.2908 101.219 92.5738C103.2 94.8568 105.738 95.5133 107.721 93.7845C109.677 92.0979 109.475 89.4405 107.479 87.1539Z" fill="#450ADF"/><path d="M115.97 80.321C112.639 74.7745 114.248 68.914 120.21 65.3259C126.167 61.753 132.111 63.0753 135.441 68.6218C138.771 74.1684 137.162 80.0288 131.201 83.6169C125.244 87.1898 119.3 85.8676 115.97 80.321ZM129.333 72.2884C127.781 69.6866 125.398 68.7116 123.075 70.1033C120.752 71.495 120.496 74.0454 122.063 76.6509C123.615 79.2527 125.998 80.2276 128.321 78.836C130.643 77.4443 130.9 74.8939 129.333 72.2884Z" fill="#450ADF"/><path d="M148.559 51.831L150.952 57.5294L148.524 58.5421C145.881 59.6495 145.224 61.6391 146.418 64.4636L150.305 73.7011L143.858 76.4024L135.79 57.1823L141.719 54.6984L143.431 57.3054C143.761 55.0621 144.846 53.3816 147.652 52.1993L148.582 51.804L148.559 51.831Z" fill="#450ADF"/><path d="M157.52 55.0012L154.378 55.8957L152.791 50.3369L155.932 49.4424L154.332 43.8001L161.062 41.8898L162.662 47.5321L166.978 46.2994L168.55 51.8546L164.234 53.0874L166.25 60.1962C166.612 61.4732 167.311 61.8619 168.603 61.5027L171.089 60.7936L172.661 66.3489L167.64 67.7716C163.828 68.848 161.043 67.457 159.899 63.4517L157.493 54.9788L157.52 55.0012Z" fill="#450ADF"/><path d="M205.317 42.3379C209.474 42.3408 212.582 45.3864 212.582 49.4629C212.571 53.5853 209.448 56.611 205.295 56.5928C201.138 56.5898 198.03 53.5443 198.041 49.4219C198.042 45.3453 201.165 42.3196 205.336 42.3261L205.317 42.3379Z" fill="#450ADF"/></g></g><defs><clipPath id="clip0_341_1907"><rect width="410" height="413" fill="white"/></clipPath><clipPath id="clip1_341_1907"><rect width="340.81" height="344.811" fill="white" transform="translate(78.3459) rotate(13.1331)"/></clipPath></defs></svg>