<svg width="410" height="413" viewBox="0 0 410 413" fill="none" xmlns="http://www.w3.org/2000/svg"><g clip-path="url(#clip0_341_1906)"><g clip-path="url(#clip1_341_1906)"><path d="M183.914 188.459C182.188 184.474 179.002 181.288 175.001 179.546C172.945 178.652 170.733 178.197 168.504 178.213H147.838V233.887L158.932 233.95V211.683H168.504C170.733 211.683 172.945 211.259 175.001 210.396C176.978 209.549 178.782 208.341 180.305 206.819C181.827 205.281 183.051 203.476 183.914 201.483C184.808 199.412 185.247 197.2 185.232 194.94C185.232 192.712 184.792 190.499 183.914 188.444V188.459ZM172.882 196.133C172.647 197.278 172.082 198.314 171.266 199.13C170.733 199.679 170.089 200.103 169.383 200.401C168.677 200.699 167.924 200.84 167.155 200.824H164.487H164.519L158.948 200.809V189.118H167.155C168.316 189.118 169.446 189.464 170.419 190.107C171.376 190.75 172.129 191.676 172.584 192.743C173.024 193.81 173.133 195.003 172.914 196.133H172.882Z" fill="#450ADF"/><path d="M262.388 263.435H147.697V253.031H262.388V263.435ZM210.26 212.876C209.884 212.013 209.366 211.212 208.707 210.538C208.032 209.847 207.232 209.314 206.353 208.937C205.474 208.56 204.517 208.372 203.56 208.372H195.086L203.654 189.056H189.374V177.805H220.711L211.343 198.957C212.3 199.381 213.21 199.914 214.058 200.542C214.936 201.185 215.768 201.891 216.568 202.629C218.247 204.386 219.581 206.426 220.538 208.655C221.48 210.899 221.966 213.315 221.951 215.763C221.951 218.195 221.48 220.612 220.538 222.871C219.612 225.1 218.279 227.14 216.6 228.897C214.921 230.639 212.881 232.02 210.637 232.945C208.393 233.856 206.008 234.326 203.591 234.311C201.19 234.311 198.805 233.856 196.577 232.93C194.349 232.004 192.324 230.623 190.661 228.866C187.209 225.351 185.294 220.627 185.31 215.7H196.451C196.451 216.673 196.64 217.646 197.016 218.556C197.377 219.419 197.911 220.219 198.57 220.894C199.197 221.569 199.951 222.102 200.798 222.479C201.677 222.871 202.634 223.06 203.591 223.06C204.548 223.06 205.49 222.871 206.384 222.51C207.263 222.134 208.063 221.6 208.738 220.91C209.397 220.235 209.915 219.435 210.292 218.572C210.668 217.677 210.856 216.704 210.856 215.732C210.856 214.759 210.668 213.802 210.292 212.891L210.26 212.876ZM250.619 212.86C250.243 211.997 249.725 211.197 249.066 210.522C248.391 209.831 247.591 209.298 246.712 208.921C245.833 208.545 244.876 208.356 243.919 208.356H235.445L244.013 189.04H229.734V177.789H261.07L251.702 198.941C252.659 199.365 253.569 199.899 254.417 200.526C255.296 201.17 256.127 201.876 256.928 202.613C258.607 204.371 259.94 206.411 260.898 208.639C261.839 210.883 262.325 213.299 262.31 215.747C262.325 218.18 261.839 220.596 260.898 222.856C259.972 225.084 258.638 227.124 256.975 228.881C255.296 230.623 253.256 232.004 251.012 232.93C248.768 233.84 246.383 234.311 243.966 234.295C241.565 234.295 239.18 233.84 236.952 232.914C234.724 231.988 232.699 230.607 231.036 228.85C227.584 225.335 225.669 220.612 225.685 215.685H236.826C236.826 216.657 237.015 217.63 237.391 218.54C237.752 219.403 238.286 220.204 238.945 220.879C239.572 221.553 240.326 222.087 241.173 222.463C242.052 222.856 243.009 223.044 243.966 223.044C244.923 223.044 245.865 222.856 246.759 222.495C247.654 222.134 248.438 221.585 249.113 220.894C249.756 220.219 250.29 219.419 250.666 218.556C251.043 217.662 251.231 216.689 251.231 215.716C251.231 214.743 251.043 213.786 250.666 212.876L250.619 212.86ZM262.388 159.116H147.697V148.759H262.388V159.163V159.116Z" fill="#450ADF"/></g></g><defs><clipPath id="clip0_341_1906"><rect width="410" height="413" fill="white"/></clipPath><clipPath id="clip1_341_1906"><rect width="114.691" height="114.676" fill="white" transform="translate(147.697 148.759)"/></clipPath></defs></svg>