<svg width="664" height="98" viewBox="0 0 664 98" fill="none" xmlns="http://www.w3.org/2000/svg">
<path d="M242.384 27.9962L255.575 67.97H268.024L281.159 27.9962H270.251L261.743 55.1784L253.52 27.9962H242.384ZM278.839 53.351C278.839 62.4879 284.949 68.3126 295.513 68.3126C303.737 68.3126 308.819 63.5729 309.619 57.9195H299.911C299.34 60.0895 297.569 61.1745 294.828 61.1745C291.288 61.1745 289.575 59.1187 289.118 55.6924V55.5781H309.676C309.904 54.4931 309.961 53.4081 309.961 52.3802C309.961 43.8144 303.565 38.161 294.143 38.161C284.949 38.161 278.839 44.0429 278.839 53.351ZM289.232 49.525C289.689 46.7268 291.63 45.185 294.657 45.185C297.626 45.185 299.625 46.7268 300.196 49.525H289.232ZM313.888 27.9962V67.97H323.768V27.9962H313.888ZM343.737 68.3126C353.559 68.3126 359.784 62.3737 359.784 53.2368C359.784 44.1 353.559 38.161 343.737 38.161C333.915 38.161 327.691 44.1 327.691 53.2368C327.691 62.3737 333.915 68.3126 343.737 68.3126ZM343.737 60.4321C339.911 60.4321 337.741 57.5197 337.741 53.2368C337.741 48.9539 339.911 46.0415 343.737 46.0415C347.563 46.0415 349.733 48.9539 349.733 53.2368C349.733 57.5197 347.563 60.4321 343.737 60.4321ZM393.211 56.2634H382.932C382.475 58.8332 380.819 60.4321 378.192 60.4321C374.708 60.4321 372.595 57.5197 372.595 53.2368C372.595 48.9539 374.708 46.0415 378.192 46.0415C380.704 46.0415 382.303 47.5834 382.874 49.9818H393.153C392.068 42.6723 386.643 38.161 378.192 38.161C368.541 38.161 362.545 43.9857 362.545 53.2368C362.545 62.3737 368.541 68.3126 378.192 68.3126C386.758 68.3126 392.126 63.6871 393.211 56.2634ZM401.894 25.712C398.753 25.712 396.354 27.9962 396.354 31.0799C396.354 34.1636 398.753 36.4478 401.894 36.4478C405.034 36.4478 407.433 34.1636 407.433 31.0799C407.433 27.9962 405.034 25.712 401.894 25.712ZM396.926 38.5036V67.97H406.805V38.5036H396.926ZM413.754 59.1187C413.754 65.0005 417.009 67.97 422.606 67.97H429.972V59.8039H426.317C424.433 59.8039 423.633 59.0045 423.633 57.12V46.6697H429.972V38.5036H423.633V30.2233H413.754V38.5036H409.129V46.6697H413.754V59.1187ZM430.542 38.5036L441.849 68.1413L441.449 69.2263C440.878 70.8253 440.078 71.225 438.308 71.225H433.683V79.3911H442.705C447.559 79.3911 449.215 76.65 451.1 71.739L463.891 38.5036H453.327L447.217 58.0908L441.049 38.5036H430.542ZM480.478 27.9962V67.97H490.985V55.6352H496.639L502.521 67.97H514.056L506.803 53.0655C510.401 50.7242 512.742 46.7268 512.742 41.8157C512.742 33.4212 506.518 27.9962 497.324 27.9962H480.478ZM490.985 36.562H496.467C499.894 36.562 502.007 38.5607 502.007 41.8157C502.007 45.0707 499.894 47.0694 496.467 47.0694H490.985V36.562ZM515.179 53.351C515.179 62.4879 521.289 68.3126 531.854 68.3126C540.077 68.3126 545.16 63.5729 545.959 57.9195H536.251C535.68 60.0895 533.91 61.1745 531.169 61.1745C527.628 61.1745 525.915 59.1187 525.458 55.6924V55.5781H546.016C546.245 54.4931 546.302 53.4081 546.302 52.3802C546.302 43.8144 539.906 38.161 530.483 38.161C521.289 38.161 515.179 44.0429 515.179 53.351ZM525.572 49.525C526.029 46.7268 527.971 45.185 530.997 45.185C533.967 45.185 535.966 46.7268 536.537 49.525H525.572ZM568.274 38.161C564.391 38.161 561.593 39.8171 559.708 42.2155L558.909 38.5036H550.229V79.3911H560.108V64.6008C561.993 66.8279 564.677 68.3126 568.389 68.3126C576.098 68.3126 581.751 62.545 581.751 53.2939C581.751 44.1571 576.098 38.1039 568.274 38.161ZM565.819 60.4892C562.107 60.4892 559.994 57.4626 559.994 53.1797C559.994 48.8968 562.107 45.9844 565.819 45.9844C569.474 45.9844 571.701 48.8968 571.701 53.1797C571.701 57.4626 569.474 60.4892 565.819 60.4892ZM600.544 68.3126C610.366 68.3126 616.591 62.3737 616.591 53.2368C616.591 44.1 610.366 38.161 600.544 38.161C590.722 38.161 584.498 44.1 584.498 53.2368C584.498 62.3737 590.722 68.3126 600.544 68.3126ZM600.544 60.4321C596.718 60.4321 594.548 57.5197 594.548 53.2368C594.548 48.9539 596.718 46.0415 600.544 46.0415C604.37 46.0415 606.54 48.9539 606.54 53.2368C606.54 57.5197 604.37 60.4321 600.544 60.4321ZM638.711 38.5036C634.428 38.5036 632.086 40.1026 630.43 42.8436L629.631 38.5036H620.551V67.97H630.43V53.8079C630.43 49.4679 632.372 47.2408 636.426 47.2408H640.138V38.5036H638.711ZM646.581 59.1187C646.581 65.0005 649.836 67.97 655.433 67.97H662.799V59.8039H659.145C657.26 59.8039 656.461 59.0045 656.461 57.12V46.6697H662.799V38.5036H656.461V30.2233H646.581V38.5036H641.956V46.6697H646.581V59.1187Z" fill="black"/>
<path d="M146.836 45.4761H148.539C149.027 45.4814 149.51 45.3886 149.961 45.2033C150.412 45.018 150.822 44.744 151.165 44.3976C151.691 43.8772 152.05 43.2121 152.198 42.4869C152.345 41.7617 152.274 41.0091 151.992 40.3246C151.711 39.6402 151.232 39.0549 150.617 38.643C150.003 38.2311 149.279 38.0114 148.539 38.0116H143.31V45.4619H146.858L146.836 45.4761Z" fill="black"/>
<path d="M123.875 6.10352e-05V97.6568H221.532V6.10352e-05H123.875ZM209.235 85.3744H136.15V78.747H209.235V85.3744ZM136.236 66.5426V31.0646H149.412C150.838 31.0548 152.25 31.3449 153.556 31.9161C156.099 33.0207 158.128 35.0495 159.232 37.5925C159.797 38.8981 160.085 40.3068 160.077 41.7293C160.084 43.1609 159.797 44.5787 159.232 45.8944C158.687 47.1619 157.907 48.3149 156.933 49.2932C155.963 50.2609 154.817 51.0341 153.556 51.5709C152.245 52.123 150.835 52.403 149.412 52.394H143.31V66.5852L136.236 66.5426ZM176.013 53.1532C175.777 52.6014 175.443 52.0966 175.027 51.6632C174.601 51.226 174.091 50.8789 173.528 50.6424C172.965 50.4059 172.36 50.2849 171.749 50.2866H166.349L171.806 37.9757H162.702V30.8092H182.669L176.702 44.2908C177.312 44.5653 177.893 44.903 178.433 45.2984C178.99 45.7121 179.523 46.1574 180.03 46.6323C181.097 47.7487 181.953 49.0493 182.556 50.4711C183.155 51.9048 183.462 53.444 183.457 54.9981C183.467 56.5526 183.16 58.0928 182.556 59.5251C181.963 60.9471 181.114 62.2483 180.051 63.3638C178.976 64.4769 177.68 65.3541 176.248 65.9395C174.822 66.5212 173.296 66.8177 171.756 66.8123C170.222 66.8202 168.702 66.521 167.286 65.9324C165.862 65.3403 164.576 64.4583 163.511 63.3425C161.312 61.1068 160.087 58.0915 160.105 54.9555H167.201C167.197 55.5793 167.32 56.1972 167.563 56.772C167.797 57.3252 168.131 57.8303 168.549 58.262C168.951 58.6897 169.433 59.0345 169.968 59.2767C170.529 59.5232 171.136 59.649 171.749 59.6457C172.359 59.648 172.963 59.5273 173.525 59.2908C174.087 59.0542 174.595 58.7067 175.02 58.2691C175.436 57.8357 175.77 57.3309 176.006 56.7791C176.245 56.2069 176.368 55.5931 176.368 54.9732C176.368 54.3533 176.245 53.7396 176.006 53.1674L176.013 53.1532ZM201.735 53.1532C201.498 52.6014 201.164 52.0966 200.749 51.6632C200.322 51.226 199.812 50.8789 199.249 50.6424C198.686 50.4059 198.081 50.2849 197.471 50.2866H192.071L197.527 37.9757H188.424V30.8092H208.391L202.423 44.2908C203.034 44.5653 203.614 44.903 204.155 45.2984C204.712 45.7121 205.245 46.1574 205.751 46.6323C206.818 47.7487 207.674 49.0493 208.277 50.4711C208.877 51.9048 209.183 53.444 209.178 54.9981C209.188 56.5526 208.882 58.0928 208.277 59.5251C207.684 60.9471 206.835 62.2483 205.772 63.3638C204.697 64.4769 203.402 65.3541 201.969 65.9395C200.543 66.5212 199.017 66.8177 197.478 66.8123C195.944 66.8202 194.424 66.521 193.007 65.9324C191.583 65.3403 190.298 64.4583 189.233 63.3425C187.033 61.1068 185.809 58.0915 185.827 54.9555H192.922C192.919 55.5793 193.042 56.1972 193.284 56.772C193.518 57.3252 193.853 57.8303 194.27 58.262C194.673 58.6897 195.155 59.0345 195.69 59.2767C196.251 59.5232 196.858 59.649 197.471 59.6457C198.08 59.648 198.684 59.5273 199.246 59.2908C199.808 59.0542 200.317 58.7067 200.742 58.2691C201.157 57.8357 201.491 57.3309 201.728 56.7791C201.967 56.2069 202.089 55.5931 202.089 54.9732C202.089 54.3533 201.967 53.7396 201.728 53.1674L201.735 53.1532ZM209.235 18.917H136.15V12.2897H209.235V18.917Z" fill="black"/>
<path d="M1.14211 27.67V36.5785H11.935V67.6438H22.4424V36.5785H33.2353V27.67H1.14211ZM55.0246 37.8348C51.1415 37.8348 48.6859 39.1482 46.8014 41.204V27.67H36.9222V67.6438H46.8014V52.2825C46.8014 48.1138 48.743 45.7154 52.1694 45.7154C55.6528 45.7154 57.0233 48.1138 57.0233 52.2825V67.6438H66.9025V51.8827C66.9025 40.7472 60.8494 37.8348 55.0246 37.8348ZM70.2985 53.0248C70.2985 62.1617 76.4088 67.9865 86.9733 67.9865C95.1965 67.9865 100.279 63.2467 101.078 57.5933H91.3704C90.7994 59.7633 89.0291 60.8483 86.288 60.8483C82.7475 60.8483 81.0343 58.7925 80.5775 55.3662V55.252H101.135C101.364 54.167 101.421 53.082 101.421 52.0541C101.421 43.4882 95.0252 37.8348 85.6028 37.8348C76.4088 37.8348 70.2985 43.7167 70.2985 53.0248ZM80.6917 49.1988C81.1486 46.4006 83.0901 44.8588 86.1167 44.8588C89.0862 44.8588 91.0849 46.4006 91.656 49.1988H80.6917Z" fill="black"/>
</svg>
