<svg width="417" height="101" viewBox="0 0 417 101" fill="none" xmlns="http://www.w3.org/2000/svg">
<path d="M27.215 98.7261V25.9611H0.62V5.71107H80.81V25.9611H54.485V98.7261H27.215ZM146.814 52.2861V77.6661C146.814 79.7361 146.814 81.8961 146.814 84.1461C146.904 86.3061 146.994 88.3761 147.084 90.3561C147.174 92.3361 147.264 94.0911 147.354 95.6211C147.444 97.0611 147.534 98.0961 147.624 98.7261H123.324C123.144 98.2761 122.964 97.6461 122.784 96.8361C122.694 96.0261 122.604 95.2161 122.514 94.4061C122.424 93.5061 122.334 92.7861 122.244 92.2461C121.164 93.6861 119.769 95.0361 118.059 96.2961C116.439 97.5561 114.324 98.5461 111.714 99.2661C109.194 100.076 106.044 100.481 102.264 100.481C97.0445 100.481 92.5895 99.4911 88.8995 97.5111C85.2995 95.4411 82.5545 92.6961 80.6645 89.2761C78.7745 85.8561 77.8295 82.0761 77.8295 77.9361C77.8295 74.5161 78.3245 71.5461 79.3145 69.0261C80.3945 66.4161 81.9245 64.1661 83.9045 62.2761C85.8845 60.3861 88.2695 58.8561 91.0595 57.6861C93.9395 56.4261 97.1795 55.5261 100.779 54.9861C104.469 54.3561 108.474 54.0411 112.794 54.0411C113.604 54.0411 114.504 54.0411 115.494 54.0411C116.574 54.0411 117.654 54.0411 118.734 54.0411C119.814 54.0411 120.714 54.0411 121.434 54.0411V50.1261C121.434 48.9561 121.299 47.9211 121.029 47.0211C120.849 46.0311 120.444 45.1761 119.814 44.4561C119.274 43.7361 118.509 43.1961 117.519 42.8361C116.529 42.4761 115.179 42.2961 113.469 42.2961C112.029 42.2961 110.814 42.4761 109.824 42.8361C108.834 43.1061 108.024 43.5561 107.394 44.1861C106.854 44.8161 106.404 45.5811 106.044 46.4811C105.774 47.3811 105.549 48.4161 105.369 49.5861H81.0695C81.3395 46.6161 82.0145 43.7361 83.0945 40.9461C84.2645 38.1561 86.0645 35.6811 88.4945 33.5211C91.0145 31.2711 94.3445 29.5161 98.4845 28.2561C102.714 26.9061 107.934 26.2311 114.144 26.2311C119.994 26.2311 124.944 26.8161 128.994 27.9861C133.134 29.0661 136.509 30.7311 139.119 32.9811C141.819 35.1411 143.754 37.8411 144.924 41.0811C146.184 44.3211 146.814 48.0561 146.814 52.2861ZM121.434 69.5661V67.2711C120.804 67.2711 119.949 67.2711 118.869 67.2711C117.789 67.2711 116.709 67.2711 115.629 67.2711C113.379 67.2711 111.489 67.4961 109.959 67.9461C108.429 68.3061 107.169 68.8461 106.179 69.5661C105.279 70.2861 104.604 71.1861 104.154 72.2661C103.794 73.2561 103.614 74.4261 103.614 75.7761C103.614 77.1261 103.884 78.3861 104.424 79.5561C104.964 80.6361 105.819 81.5361 106.989 82.2561C108.159 82.8861 109.599 83.2011 111.309 83.2011C113.559 83.2011 115.359 82.8411 116.709 82.1211C118.059 81.4011 119.049 80.4111 119.679 79.1511C120.399 77.8911 120.849 76.4511 121.029 74.8311C121.299 73.2111 121.434 71.4561 121.434 69.5661ZM189.566 98.7261H163.241V0.986069H189.566V98.7261ZM239.741 82.7961C241.271 82.7961 242.531 82.6611 243.521 82.3911C244.601 82.0311 245.456 81.5811 246.086 81.0411C246.806 80.5011 247.391 79.8261 247.841 79.0161C248.291 78.2061 248.696 77.3511 249.056 76.4511H274.841C274.391 78.3411 273.626 80.3661 272.546 82.5261C271.556 84.6861 270.161 86.8461 268.361 89.0061C266.651 91.0761 264.491 93.0111 261.881 94.8111C259.271 96.5211 256.076 97.8711 252.296 98.8611C248.606 99.9411 244.241 100.481 239.201 100.481C232.541 100.481 226.871 99.4911 222.191 97.5111C217.601 95.4411 213.866 92.6511 210.986 89.1411C208.106 85.6311 205.991 81.7161 204.641 77.3961C203.381 72.9861 202.751 68.4861 202.751 63.8961C202.751 59.6661 203.201 55.6611 204.101 51.8811C205.001 48.1011 206.396 44.6361 208.286 41.4861C210.176 38.3361 212.606 35.6361 215.576 33.3861C218.546 31.0461 222.011 29.2911 225.971 28.1211C230.021 26.8611 234.611 26.2311 239.741 26.2311C246.581 26.2311 252.296 27.3111 256.886 29.4711C261.566 31.5411 265.256 34.3311 267.956 37.8411C270.656 41.2611 272.591 45.1311 273.761 49.4511C274.931 53.6811 275.516 58.0011 275.516 62.4111C275.516 63.2211 275.516 63.9861 275.516 64.7061C275.516 65.3361 275.471 65.9661 275.381 66.5961C275.381 67.2261 275.336 67.8561 275.246 68.4861H229.211C229.211 70.9161 229.526 73.2111 230.156 75.3711C230.876 77.5311 232.001 79.3311 233.531 80.7711C235.061 82.1211 237.131 82.7961 239.741 82.7961ZM239.606 42.5661C238.256 42.5661 236.996 42.7911 235.826 43.2411C234.746 43.6011 233.846 44.1411 233.126 44.8611C232.406 45.5811 231.776 46.4811 231.236 47.5611C230.786 48.5511 230.381 49.6761 230.021 50.9361C229.751 52.1061 229.571 53.4111 229.481 54.8511H249.191C249.191 53.1411 249.011 51.5661 248.651 50.1261C248.381 48.6861 247.886 47.4261 247.166 46.3461C246.446 45.1761 245.456 44.2761 244.196 43.6461C243.026 42.9261 241.496 42.5661 239.606 42.5661ZM288.815 98.7261V46.3461C288.815 44.2761 288.815 42.2061 288.815 40.1361C288.815 37.9761 288.815 35.9061 288.815 33.9261C288.815 31.8561 288.77 29.8761 288.68 27.9861H314.33C314.51 28.5261 314.645 29.2911 314.735 30.2811C314.825 31.1811 314.915 32.1261 315.005 33.1161C315.095 34.1061 315.14 35.0061 315.14 35.8161C315.77 34.8261 316.625 33.7911 317.705 32.7111C318.875 31.5411 320.27 30.4611 321.89 29.4711C323.51 28.4811 325.4 27.7161 327.56 27.1761C329.81 26.5461 332.375 26.2311 335.255 26.2311C338.855 26.2311 342.05 26.8161 344.84 27.9861C347.63 29.1561 350.015 30.9111 351.995 33.2511C354.065 35.5011 355.64 38.2911 356.72 41.6211C357.8 44.9511 358.34 48.7761 358.34 53.0961V98.7261H332.15V56.2011C332.15 53.9511 331.88 52.0161 331.34 50.3961C330.8 48.7761 329.945 47.5611 328.775 46.7511C327.695 45.9411 326.12 45.5361 324.05 45.5361C322.25 45.5361 320.675 45.9411 319.325 46.7511C317.975 47.4711 316.94 48.7761 316.22 50.6661C315.5 52.4661 315.14 55.0311 315.14 58.3611V98.7261H288.815ZM367.813 45.6711V27.9861H377.938V9.62607H403.993V27.9861H416.413V45.6711H403.993V76.0461C403.993 77.4861 404.173 78.6561 404.533 79.5561C404.983 80.4561 405.703 81.1311 406.693 81.5811C407.683 81.9411 409.123 82.1211 411.013 82.1211C411.463 82.1211 412.003 82.1211 412.633 82.1211C413.263 82.1211 413.938 82.0761 414.658 81.9861V98.1861C413.308 98.6361 411.688 98.9511 409.798 99.1311C407.998 99.4011 406.153 99.5811 404.263 99.6711C402.373 99.7611 400.708 99.8061 399.268 99.8061C395.038 99.8061 391.528 99.3111 388.738 98.3211C386.038 97.3311 383.878 95.9361 382.258 94.1361C380.638 92.2461 379.468 89.9961 378.748 87.3861C378.118 84.6861 377.803 81.6711 377.803 78.3411V45.6711H367.813Z" fill="black"/>
</svg>
