<svg width="64" height="445" viewBox="0 0 64 445" fill="none" xmlns="http://www.w3.org/2000/svg">
<path fill-rule="evenodd" clip-rule="evenodd" d="M22.3174 6.86646e-05L44.6625 23.4331L42.345 25.8634L20 2.43033L22.3174 6.86646e-05Z" fill="black"/>
<path fill-rule="evenodd" clip-rule="evenodd" d="M44.6626 2.43026L22.3175 25.8633L20.0001 23.4331L42.3452 5.75893e-07L44.6626 2.43026Z" fill="black"/>
<path d="M19 60.8379L47.8655 60.8379L47.8655 82.4138L41.5813 82.4138L41.5813 69.1331L35.9674 69.1331L35.9674 81.5759L29.6832 81.5759L29.6832 69.1331L19 69.1331L19 60.8379ZM41.4975 96.6727C41.4975 98.0972 41.316 99.4099 40.9529 100.611C40.5898 101.84 40.0591 102.915 39.3609 103.837C38.6906 104.786 37.8806 105.582 36.931 106.225C35.9814 106.895 34.92 107.398 33.747 107.733C32.5739 108.068 31.331 108.236 30.0183 108.236C28.6218 108.236 27.3371 108.054 26.164 107.691C24.991 107.356 23.9296 106.867 22.98 106.225C22.0304 105.582 21.2204 104.772 20.5501 103.795C19.8798 102.845 19.3631 101.756 19 100.527C18.6369 99.2981 18.4554 97.9296 18.4554 96.4214C18.4554 94.4663 18.7486 92.7486 19.3352 91.2683C19.9217 89.8159 20.7456 88.615 21.807 87.6653C22.8683 86.7157 24.0832 85.9895 25.4518 85.4868C26.8483 85.012 28.3425 84.7746 29.9346 84.7746C31.2473 84.7746 32.4901 84.9282 33.6632 85.2354C34.8362 85.5706 35.8976 86.0454 36.8472 86.6599C37.7968 87.3023 38.6207 88.0983 39.319 89.0479C40.0172 90.0254 40.5479 91.1426 40.911 92.3995C41.302 93.6842 41.4975 95.1087 41.4975 96.6727ZM35.9674 96.5052C35.9674 96.0862 35.8976 95.6952 35.7579 95.3321C35.6462 94.9969 35.4507 94.6897 35.1714 94.4104C34.8921 94.159 34.5151 93.9356 34.0402 93.7401C33.5934 93.5446 33.0208 93.391 32.3226 93.2792C31.6522 93.1675 30.8702 93.1117 29.9764 93.1117C28.943 93.1117 28.0353 93.1815 27.2533 93.3211C26.4992 93.4887 25.8708 93.7122 25.368 93.9915C24.8932 94.2987 24.5301 94.6618 24.2787 95.0807C24.0553 95.4997 23.9436 95.9884 23.9436 96.547C23.9436 96.966 24.0134 97.343 24.1531 97.6782C24.3206 98.0413 24.558 98.3485 24.8653 98.5999C25.1725 98.8792 25.5635 99.1026 26.0383 99.2702C26.5131 99.4657 27.0717 99.6054 27.7141 99.6892C28.3565 99.8009 29.0827 99.8567 29.8927 99.8567C31.0099 99.8567 31.9595 99.7729 32.7415 99.6054C33.5235 99.4657 34.152 99.2562 34.6268 98.9769C35.1016 98.7256 35.4367 98.3904 35.6322 97.9715C35.8557 97.5525 35.9674 97.0637 35.9674 96.5052ZM40.9529 133.083L26.0383 133.083C25.368 133.083 24.6139 133.083 23.776 133.083C22.966 133.083 22.1421 133.083 21.3042 133.083C20.4663 133.111 19.6982 133.125 19 133.125L19 125.123C19.1676 125.095 19.391 125.067 19.6703 125.039C19.9775 125.039 20.2848 125.025 20.592 124.998C20.8992 124.998 21.1366 124.984 21.3042 124.956C20.6339 124.481 20.0893 123.95 19.6703 123.364C19.2514 122.777 18.9441 122.121 18.7486 121.395C18.5531 120.668 18.4554 119.831 18.4554 118.881C18.4554 117.708 18.6369 116.674 19 115.781C19.3352 114.887 19.8379 114.133 20.5082 113.518C21.2065 112.904 22.0583 112.443 23.0638 112.136C24.0693 111.829 25.2284 111.675 26.5411 111.675L40.9529 111.675L40.9529 119.845L27.8817 119.844C27.379 119.844 26.9181 119.872 26.4992 119.928C26.0802 120.012 25.7171 120.138 25.4099 120.305C25.1027 120.501 24.8653 120.752 24.6977 121.059C24.558 121.395 24.4882 121.786 24.4882 122.233C24.4882 122.875 24.6279 123.392 24.9072 123.783C25.1865 124.202 25.6333 124.495 26.2478 124.662C26.8902 124.83 27.7421 124.914 28.8034 124.914L40.9529 124.914L40.9529 133.083ZM19 137.78L35.2552 137.78C35.8976 137.78 36.54 137.78 37.1824 137.78C37.8527 137.78 38.4951 137.78 39.1095 137.78C39.7519 137.78 40.3664 137.766 40.9529 137.739L40.9529 145.699C40.7853 145.754 40.5479 145.796 40.2407 145.824C39.9614 145.852 39.6681 145.88 39.3609 145.908C39.0537 145.936 38.7744 145.95 38.523 145.95C38.8302 146.145 39.1514 146.411 39.4866 146.746C39.8497 147.109 40.1848 147.542 40.492 148.045C40.7993 148.547 41.0367 149.134 41.2043 149.804C41.3998 150.502 41.4975 151.298 41.4975 152.192C41.4975 153.309 41.316 154.301 40.9529 155.167C40.5898 156.033 40.0452 156.773 39.319 157.387C38.6207 158.03 37.7549 158.518 36.7215 158.853C35.6881 159.189 34.5011 159.356 33.1605 159.356L19 159.356L19 151.229L32.1969 151.229C32.8951 151.229 33.4956 151.145 33.9983 150.977C34.5011 150.81 34.8781 150.544 35.1295 150.181C35.3809 149.846 35.5066 149.357 35.5066 148.715C35.5066 148.156 35.3809 147.668 35.1295 147.249C34.9061 146.83 34.5011 146.508 33.9146 146.285C33.356 146.062 32.56 145.95 31.5266 145.95L19 145.95L19 137.78ZM49.3319 177.79L49.3319 185.959L25.6613 185.959C24.9351 185.959 24.167 185.959 23.3571 185.959C22.575 185.959 21.8069 185.959 21.0528 185.959C20.3267 185.987 19.6424 186.001 19 186.001L19 178.083C19.2234 178.055 19.4608 178.013 19.7122 177.958C19.9636 177.93 20.2149 177.902 20.4663 177.874C20.7177 177.874 20.9272 177.86 21.0947 177.832C20.5641 177.469 20.1032 177.022 19.7122 176.491C19.3212 175.961 19.014 175.318 18.7905 174.564C18.5671 173.81 18.4554 172.902 18.4554 171.841C18.4554 170.416 18.7486 169.146 19.3352 168.028C19.9217 166.939 20.7177 166.004 21.7232 165.222C22.7566 164.467 23.9576 163.895 25.3261 163.504C26.7226 163.141 28.2308 162.959 29.8508 162.959C31.1914 162.959 32.4482 163.099 33.6213 163.378C34.7943 163.685 35.8557 164.104 36.8053 164.635C37.7828 165.166 38.6207 165.822 39.319 166.604C40.0172 167.414 40.5479 168.322 40.911 169.327C41.302 170.361 41.4975 171.492 41.4975 172.721C41.4975 173.391 41.4417 173.992 41.3299 174.522C41.2462 175.081 41.1205 175.57 40.9529 175.988C40.8132 176.435 40.6177 176.812 40.3664 177.12C40.1429 177.427 39.9055 177.65 39.6541 177.79L49.3319 177.79ZM35.7998 174.857C35.7998 174.383 35.73 173.95 35.5903 173.559C35.4507 173.195 35.2273 172.874 34.92 172.595C34.6128 172.344 34.2218 172.12 33.747 171.925C33.3001 171.729 32.7694 171.576 32.155 171.464C31.5405 171.38 30.8423 171.338 30.0602 171.338C29.0827 171.338 28.2308 171.408 27.5046 171.548C26.7785 171.687 26.164 171.897 25.6613 172.176C25.1865 172.483 24.8234 172.846 24.572 173.265C24.3206 173.684 24.195 174.187 24.195 174.774C24.195 175.388 24.2927 175.891 24.4882 176.282C24.7117 176.673 25.0049 176.994 25.368 177.245C25.759 177.525 26.1919 177.72 26.6667 177.832C27.1695 177.944 27.7002 178.013 28.2588 178.041C28.8174 178.097 29.4039 178.125 30.0183 178.125C30.94 178.125 31.75 178.083 32.4482 177.999C33.1744 177.944 33.7889 177.804 34.2916 177.58C34.7943 177.357 35.1714 177.022 35.4228 176.575C35.6741 176.156 35.7998 175.584 35.7998 174.857ZM23.9436 201.032C23.9436 201.507 23.9855 201.898 24.0693 202.205C24.181 202.54 24.3206 202.805 24.4882 203.001C24.6558 203.224 24.8653 203.406 25.1166 203.545C25.368 203.685 25.6333 203.811 25.9126 203.923L25.9126 211.924C25.3261 211.785 24.6977 211.547 24.0274 211.212C23.3571 210.905 22.6867 210.472 22.0164 209.913C21.374 209.383 20.7735 208.712 20.2149 207.903C19.6843 207.093 19.2653 206.101 18.9581 204.928C18.6229 203.783 18.4554 202.428 18.4554 200.864C18.4554 198.797 18.7626 197.038 19.377 195.585C20.0194 194.161 20.8853 193.002 21.9745 192.108C23.0638 191.214 24.2787 190.558 25.6194 190.139C26.9879 189.748 28.3844 189.553 29.8089 189.553C31.1216 189.553 32.3644 189.692 33.5375 189.972C34.7106 190.251 35.7859 190.684 36.7634 191.27C37.741 191.857 38.5788 192.611 39.2771 193.533C40.0033 194.454 40.5479 195.53 40.911 196.759C41.302 198.015 41.4975 199.44 41.4975 201.032C41.4975 203.154 41.1624 204.928 40.492 206.352C39.8497 207.805 38.9838 208.95 37.8946 209.788C36.8332 210.626 35.6322 211.226 34.2916 211.589C32.9789 211.952 31.6383 212.134 30.2697 212.134C30.0183 212.134 29.7809 212.134 29.5575 212.134C29.362 212.134 29.1665 212.12 28.971 212.092C28.7755 212.092 28.5799 212.078 28.3844 212.05L28.3844 197.764C27.6303 197.764 26.9181 197.862 26.2478 198.057C25.5775 198.281 25.0189 198.63 24.572 199.105C24.1531 199.579 23.9436 200.222 23.9436 201.032ZM36.4282 200.99C36.4282 200.571 36.3584 200.18 36.2188 199.817C36.1071 199.482 35.9395 199.202 35.716 198.979C35.4926 198.755 35.2133 198.56 34.8781 198.392C34.5709 198.253 34.2218 198.127 33.8308 198.015C33.4677 197.932 33.0627 197.876 32.6158 197.848L32.6158 203.964C33.1465 203.964 33.6353 203.909 34.0821 203.797C34.529 203.713 34.92 203.559 35.2552 203.336C35.6183 203.113 35.8976 202.805 36.0931 202.414C36.3165 202.051 36.4282 201.576 36.4282 200.99ZM19 215.8L34.6687 215.8C35.3669 215.8 36.0791 215.8 36.8053 215.8C37.5315 215.8 38.2437 215.8 38.9419 215.8C39.6402 215.8 40.3105 215.786 40.9529 215.758L40.9529 223.76C40.7294 223.788 40.3943 223.816 39.9474 223.844C39.5285 223.872 39.0816 223.886 38.6068 223.886C38.132 223.914 37.727 223.928 37.3918 223.928C37.9225 224.151 38.4252 224.445 38.9 224.808C39.4028 225.199 39.8497 225.66 40.2407 226.19C40.6317 226.749 40.9389 227.405 41.1624 228.159C41.3858 228.913 41.4975 229.751 41.4975 230.673L34.0402 230.673C34.0961 229.137 33.9704 227.866 33.6632 226.861C33.3839 225.883 32.7974 225.157 31.9036 224.682C31.0378 224.207 29.739 223.97 28.0074 223.97L19 223.97L19 215.8ZM23.6084 243.52C23.6084 244.05 23.6503 244.483 23.7341 244.818C23.8458 245.154 24.0134 245.405 24.2368 245.573C24.4882 245.74 24.7815 245.824 25.1166 245.824C25.368 245.824 25.5914 245.754 25.787 245.614C26.0104 245.503 26.1919 245.293 26.3316 244.986C26.4712 244.679 26.6109 244.274 26.7505 243.771C26.9181 243.296 27.0717 242.696 27.2114 241.97C27.6583 240.098 28.1331 238.576 28.6358 237.403C29.1665 236.258 29.739 235.392 30.3535 234.806C30.968 234.219 31.6243 233.814 32.3225 233.591C33.0208 233.395 33.7609 233.297 34.543 233.297C35.3529 233.297 36.1629 233.451 36.9729 233.758C37.7828 234.093 38.523 234.624 39.1933 235.35C39.8915 236.104 40.4501 237.11 40.8691 238.367C41.288 239.623 41.4975 241.188 41.4975 243.059C41.4975 244.846 41.288 246.355 40.8691 247.583C40.4781 248.84 39.9474 249.86 39.2771 250.642C38.6068 251.424 37.8666 251.996 37.0567 252.359C36.2746 252.751 35.4926 252.96 34.7106 252.988L34.7106 245.698C34.9061 245.67 35.1155 245.6 35.339 245.489C35.5624 245.377 35.7719 245.223 35.9674 245.028C36.1629 244.832 36.3165 244.553 36.4282 244.19C36.54 243.827 36.5958 243.38 36.5958 242.849C36.5958 242.347 36.54 241.942 36.4282 241.634C36.3165 241.355 36.1489 241.146 35.9255 241.006C35.73 240.894 35.5066 240.838 35.2552 240.838C34.9759 240.838 34.7245 240.936 34.5011 241.132C34.3056 241.355 34.1101 241.774 33.9146 242.389C33.747 243.031 33.5235 243.939 33.2442 245.112C32.8532 246.871 32.4063 248.296 31.9036 249.385C31.4009 250.502 30.8423 251.368 30.2278 251.982C29.6133 252.625 28.9291 253.058 28.175 253.281C27.4488 253.533 26.6528 253.658 25.787 253.658C24.8094 253.658 23.8738 253.463 22.98 253.072C22.1142 252.709 21.3321 252.108 20.6339 251.27C19.9636 250.46 19.4329 249.385 19.0419 248.044C18.6509 246.732 18.4554 245.14 18.4554 243.268C18.4554 241.481 18.6509 239.931 19.0419 238.618C19.4329 237.333 19.9636 236.272 20.6339 235.434C21.3321 234.596 22.1281 233.94 23.0219 233.465C23.9157 233.018 24.8373 232.739 25.787 232.627L25.787 240.21C25.4518 240.322 25.1446 240.461 24.8653 240.629C24.586 240.797 24.3486 241.02 24.1531 241.299C23.9855 241.606 23.8458 241.942 23.7341 242.305C23.6503 242.668 23.6084 243.073 23.6084 243.52Z" fill="black"/>
</svg>
