<svg width="64" height="445" viewBox="0 0 64 445" fill="none" xmlns="http://www.w3.org/2000/svg">
<path fill-rule="evenodd" clip-rule="evenodd" d="M22.3174 6.86646e-05L44.6625 23.4331L42.345 25.8634L20 2.43033L22.3174 6.86646e-05Z" fill="black"/>
<path fill-rule="evenodd" clip-rule="evenodd" d="M44.6626 2.43026L22.3175 25.8633L20.0001 23.4331L42.3452 5.75893e-07L44.6626 2.43026Z" fill="black"/>
<path d="M29.8927 72.0238L29.8927 69.0493L19 69.0493L19 60.8379L47.8655 60.8379L47.8655 75.1241C47.8655 76.8278 47.6561 78.3081 47.2371 79.5649C46.8182 80.8497 46.2316 81.911 45.4775 82.7489C44.7514 83.5868 43.8995 84.2013 42.9219 84.5923C41.9723 85.0112 40.9529 85.2207 39.8636 85.2207C38.5509 85.2207 37.4337 84.9973 36.512 84.5504C35.5904 84.1035 34.8502 83.5449 34.2916 82.8746C33.733 82.2322 33.3141 81.5759 33.0348 80.9055C32.8672 81.3524 32.6158 81.7993 32.2807 82.2462C31.9455 82.6931 31.4847 83.098 30.8981 83.4611C30.3116 83.8242 29.5854 84.1175 28.7196 84.3409C27.8538 84.5644 26.8064 84.6761 25.5775 84.6761L24.3625 84.6761C23.9157 84.6761 23.4409 84.6761 22.9381 84.6761C22.4633 84.704 21.9745 84.718 21.4718 84.718C20.997 84.7459 20.5361 84.7878 20.0893 84.8437C19.6703 84.8995 19.3072 84.9693 19 85.0531L19 76.9674C19.3072 76.8557 19.6703 76.758 20.0893 76.6742C20.5082 76.5904 20.983 76.5206 21.5137 76.4647C22.0444 76.4368 22.6169 76.4088 23.2314 76.3809C23.8738 76.3809 24.558 76.3809 25.2842 76.3809L26.0383 76.3809C26.8762 76.3809 27.5745 76.2692 28.1331 76.0457C28.7196 75.8502 29.1525 75.4453 29.4318 74.8308C29.739 74.2163 29.8927 73.2807 29.8927 72.0238ZM41.9584 69.0493L35.7998 69.0493L35.7998 72.9874C35.7998 73.6857 35.8697 74.2722 36.0093 74.747C36.149 75.2497 36.3445 75.6547 36.5958 75.962C36.8751 76.2692 37.2103 76.4787 37.6013 76.5904C37.9923 76.73 38.4252 76.7999 38.9 76.7999C39.5424 76.7999 40.0871 76.6602 40.5339 76.3809C41.0088 76.1016 41.3579 75.6827 41.5813 75.1241C41.8327 74.5655 41.9584 73.8532 41.9584 72.9874L41.9584 69.0493ZM23.9436 99.3632C23.9436 99.838 23.9855 100.229 24.0693 100.536C24.181 100.871 24.3206 101.137 24.4882 101.332C24.6558 101.556 24.8653 101.737 25.1166 101.877C25.368 102.017 25.6333 102.142 25.9126 102.254L25.9126 110.256C25.3261 110.116 24.6977 109.879 24.0274 109.544C23.3571 109.236 22.6867 108.803 22.0164 108.245C21.374 107.714 20.7735 107.044 20.2149 106.234C19.6843 105.424 19.2653 104.432 18.9581 103.259C18.6229 102.114 18.4554 100.76 18.4554 99.1956C18.4554 97.1288 18.7626 95.3692 19.3771 93.9168C20.0194 92.4924 20.8853 91.3333 21.9745 90.4396C23.0638 89.5458 24.2787 88.8895 25.6194 88.4705C26.9879 88.0795 28.3844 87.884 29.8089 87.884C31.1216 87.884 32.3645 88.0236 33.5375 88.3029C34.7106 88.5822 35.7859 89.0151 36.7634 89.6017C37.741 90.1882 38.5789 90.9423 39.2771 91.864C40.0033 92.7857 40.5479 93.861 40.911 95.0899C41.302 96.3467 41.4975 97.7712 41.4975 99.3632C41.4975 101.486 41.1624 103.259 40.492 104.684C39.8497 106.136 38.9838 107.281 37.8946 108.119C36.8332 108.957 35.6322 109.558 34.2916 109.921C32.9789 110.284 31.6383 110.465 30.2697 110.465C30.0183 110.465 29.7809 110.465 29.5575 110.465C29.362 110.465 29.1665 110.451 28.971 110.423C28.7755 110.423 28.5799 110.409 28.3844 110.382L28.3844 96.0954C27.6303 96.0954 26.9181 96.1931 26.2478 96.3886C25.5775 96.6121 25.0189 96.9612 24.572 97.436C24.1531 97.9108 23.9436 98.5532 23.9436 99.3632ZM36.4282 99.3213C36.4282 98.9023 36.3584 98.5113 36.2188 98.1482C36.1071 97.8131 35.9395 97.5338 35.716 97.3103C35.4926 97.0869 35.2133 96.8914 34.8781 96.7238C34.5709 96.5841 34.2218 96.4585 33.8308 96.3467C33.4677 96.2629 33.0627 96.2071 32.6158 96.1792L32.6158 102.296C33.1465 102.296 33.6353 102.24 34.0821 102.128C34.529 102.044 34.92 101.891 35.2552 101.667C35.6183 101.444 35.8976 101.137 36.0931 100.746C36.3165 100.383 36.4282 99.9078 36.4282 99.3213ZM34.6687 136.165L22.2678 136.165C20.4803 136.165 18.8603 135.984 17.408 135.621C15.9556 135.258 14.7267 134.629 13.7212 133.736C12.6878 132.87 11.9058 131.669 11.3751 130.133C10.8165 128.596 10.5372 126.683 10.5372 124.393C10.5372 122.633 10.7048 121.139 11.04 119.91C11.3751 118.681 11.822 117.676 12.3806 116.894C12.9113 116.112 13.4978 115.497 14.1402 115.05C14.7826 114.632 15.425 114.324 16.0674 114.129C16.6818 113.933 17.2404 113.822 17.7432 113.794L17.7432 121.837C17.3521 121.949 17.017 122.103 16.7377 122.298C16.4304 122.522 16.193 122.829 16.0255 123.22C15.8579 123.611 15.7741 124.1 15.7741 124.686C15.7741 125.412 15.8858 125.999 16.1093 126.446C16.3048 126.893 16.626 127.228 17.0728 127.451C17.4918 127.703 18.0364 127.87 18.7067 127.954C19.3771 128.066 20.1591 128.122 21.0528 128.122L22.2259 128.122C21.6673 127.759 21.1785 127.312 20.7596 126.781C20.3406 126.25 20.0194 125.608 19.796 124.854C19.5726 124.128 19.4608 123.248 19.4608 122.215C19.4608 120.762 19.7262 119.477 20.2568 118.36C20.8154 117.271 21.5695 116.349 22.5192 115.595C23.4967 114.841 24.6139 114.268 25.8708 113.877C27.1555 113.486 28.5241 113.291 29.9764 113.291C31.6802 113.291 33.2303 113.514 34.6268 113.961C36.0512 114.436 37.2661 115.092 38.2716 115.93C39.305 116.796 40.101 117.802 40.6596 118.947C41.2182 120.092 41.4975 121.349 41.4975 122.717C41.4975 123.918 41.3579 124.882 41.0786 125.608C40.7993 126.362 40.4502 126.935 40.0312 127.326C39.6402 127.745 39.2771 128.01 38.9419 128.122C39.1095 128.15 39.333 128.164 39.6123 128.164C39.8916 128.192 40.1569 128.219 40.4083 128.247C40.6596 128.303 40.8412 128.331 40.9529 128.331L40.9529 136.249C40.5339 136.249 40.0871 136.235 39.6123 136.207C39.1654 136.207 38.6766 136.193 38.1459 136.165C37.6153 136.165 37.0567 136.165 36.4701 136.165C35.9115 136.165 35.3111 136.165 34.6687 136.165ZM35.8836 125.147C35.8836 124.644 35.7719 124.184 35.5485 123.765C35.3529 123.346 35.0318 122.983 34.5849 122.675C34.1659 122.368 33.6073 122.117 32.9091 121.921C32.2108 121.754 31.359 121.67 30.3535 121.67C29.2642 121.67 28.3286 121.796 27.5465 122.047C26.7645 122.326 26.164 122.717 25.7451 123.22C25.3261 123.723 25.1166 124.323 25.1166 125.021C25.1166 125.552 25.2004 126.013 25.368 126.404C25.5356 126.795 25.773 127.116 26.0802 127.368C26.3875 127.619 26.7505 127.814 27.1695 127.954C27.6164 128.094 28.1051 128.192 28.6358 128.247C29.1944 128.331 29.7949 128.373 30.4373 128.373C31.3031 128.373 32.0712 128.331 32.7415 128.247C33.4118 128.164 33.9844 128.01 34.4592 127.787C34.934 127.591 35.2831 127.27 35.5066 126.823C35.7579 126.404 35.8836 125.845 35.8836 125.147ZM19 140.725L40.9529 140.725L40.9529 148.895L19 148.895L19 140.725ZM43.6761 140.725L49.3319 140.725L49.3319 148.895L43.6761 148.895L43.6761 140.725ZM41.4975 164.465C41.4975 165.89 41.316 167.203 40.9529 168.404C40.5898 169.632 40.0591 170.708 39.3609 171.629C38.6906 172.579 37.8806 173.375 36.931 174.017C35.9814 174.688 34.92 175.191 33.747 175.526C32.5739 175.861 31.331 176.028 30.0183 176.028C28.6218 176.028 27.3371 175.847 26.164 175.484C24.991 175.149 23.9296 174.66 22.98 174.017C22.0304 173.375 21.2204 172.565 20.5501 171.588C19.8798 170.638 19.3631 169.549 19 168.32C18.6369 167.091 18.4554 165.722 18.4554 164.214C18.4554 162.259 18.7486 160.541 19.3352 159.061C19.9217 157.609 20.7456 156.408 21.8069 155.458C22.8683 154.508 24.0832 153.782 25.4518 153.28C26.8483 152.805 28.3425 152.567 29.9345 152.567C31.2473 152.567 32.4901 152.721 33.6632 153.028C34.8362 153.363 35.8976 153.838 36.8472 154.453C37.7968 155.095 38.6207 155.891 39.319 156.841C40.0172 157.818 40.5479 158.935 40.911 160.192C41.302 161.477 41.4975 162.901 41.4975 164.465ZM35.9674 164.298C35.9674 163.879 35.8976 163.488 35.7579 163.125C35.6462 162.79 35.4507 162.482 35.1714 162.203C34.8921 161.952 34.515 161.728 34.0402 161.533C33.5934 161.337 33.0208 161.184 32.3226 161.072C31.6522 160.96 30.8702 160.904 29.9764 160.904C28.943 160.904 28.0353 160.974 27.2533 161.114C26.4992 161.281 25.8707 161.505 25.368 161.784C24.8932 162.091 24.5301 162.454 24.2787 162.873C24.0553 163.292 23.9436 163.781 23.9436 164.34C23.9436 164.759 24.0134 165.136 24.1531 165.471C24.3206 165.834 24.558 166.141 24.8653 166.393C25.1725 166.672 25.5635 166.895 26.0383 167.063C26.5131 167.258 27.0717 167.398 27.7141 167.482C28.3565 167.594 29.0827 167.649 29.8927 167.649C31.0098 167.649 31.9595 167.566 32.7415 167.398C33.5235 167.258 34.152 167.049 34.6268 166.77C35.1016 166.518 35.4367 166.183 35.6322 165.764C35.8557 165.345 35.9674 164.856 35.9674 164.298ZM19 179.675L35.2552 179.675C35.8976 179.675 36.54 179.675 37.1824 179.675C37.8527 179.675 38.4951 179.675 39.1095 179.675C39.7519 179.675 40.3664 179.661 40.9529 179.633L40.9529 187.593C40.7853 187.649 40.5479 187.691 40.2407 187.719C39.9614 187.747 39.6681 187.775 39.3609 187.803C39.0537 187.831 38.7744 187.845 38.523 187.845C38.8302 188.04 39.1514 188.306 39.4866 188.641C39.8497 189.004 40.1848 189.437 40.492 189.939C40.7993 190.442 41.0367 191.029 41.2043 191.699C41.3998 192.397 41.4975 193.193 41.4975 194.087C41.4975 195.204 41.316 196.196 40.9529 197.062C40.5898 197.927 40.0452 198.668 39.319 199.282C38.6207 199.924 37.7549 200.413 36.7215 200.748C35.6881 201.083 34.5011 201.251 33.1604 201.251L19 201.251L19 193.123L32.1969 193.123C32.8951 193.123 33.4956 193.04 33.9983 192.872C34.5011 192.705 34.8781 192.439 35.1295 192.076C35.3809 191.741 35.5066 191.252 35.5066 190.61C35.5066 190.051 35.3809 189.562 35.1295 189.143C34.9061 188.725 34.5011 188.403 33.9146 188.18C33.356 187.956 32.56 187.845 31.5266 187.845L19 187.845L19 179.675ZM33.4118 225.973L25.5356 225.973C24.8932 225.973 24.2229 225.973 23.5246 225.973C22.8543 226.001 22.2119 226.029 21.5975 226.057C20.983 226.085 20.4384 226.113 19.9636 226.141C19.5167 226.168 19.1955 226.196 19 226.224L19 218.683C19.1396 218.627 19.3352 218.572 19.5865 218.516C19.8379 218.488 20.0893 218.46 20.3406 218.432C20.6199 218.404 20.8434 218.376 21.0109 218.348C20.5641 218.013 20.1451 217.58 19.7541 217.049C19.3631 216.547 19.0559 215.89 18.8324 215.08C18.581 214.298 18.4554 213.321 18.4554 212.148C18.4554 210.528 18.7626 209.145 19.377 208C20.0194 206.883 20.8713 206.031 21.9326 205.444C22.994 204.858 24.167 204.565 25.4518 204.565C26.5131 204.565 27.4348 204.718 28.2169 205.026C29.0268 205.361 29.7251 205.836 30.3116 206.45C30.8981 207.064 31.3729 207.805 31.736 208.67C32.127 209.564 32.4063 210.57 32.5739 211.687C32.7694 212.832 32.8672 214.075 32.8672 215.415C32.8672 215.667 32.8672 215.946 32.8672 216.253C32.8672 216.589 32.8672 216.924 32.8672 217.259C32.8672 217.594 32.8672 217.873 32.8672 218.097L34.0821 218.097C34.4452 218.097 34.7664 218.055 35.0457 217.971C35.3529 217.915 35.6183 217.789 35.8417 217.594C36.0652 217.426 36.2327 217.189 36.3445 216.882C36.4562 216.575 36.512 216.156 36.512 215.625C36.512 215.178 36.4562 214.801 36.3445 214.494C36.2607 214.187 36.121 213.935 35.9255 213.74C35.73 213.572 35.4926 213.432 35.2133 213.321C34.934 213.237 34.6128 213.167 34.2497 213.111L34.2497 205.57C35.1714 205.654 36.0652 205.863 36.931 206.199C37.7968 206.562 38.5649 207.12 39.2352 207.874C39.9334 208.656 40.4781 209.69 40.8691 210.975C41.288 212.287 41.4975 213.907 41.4975 215.834C41.4975 217.65 41.316 219.186 40.9529 220.443C40.6177 221.728 40.101 222.775 39.4028 223.585C38.7325 224.423 37.8946 225.023 36.8891 225.386C35.8836 225.777 34.7245 225.973 33.4118 225.973ZM28.0493 218.097L28.7615 218.097C28.7615 217.901 28.7615 217.636 28.7615 217.301C28.7615 216.966 28.7615 216.63 28.7615 216.295C28.7615 215.597 28.6917 215.01 28.552 214.536C28.4403 214.061 28.2727 213.67 28.0493 213.363C27.8258 213.083 27.5465 212.874 27.2114 212.734C26.9042 212.622 26.5411 212.567 26.1221 212.567C25.7032 212.567 25.3121 212.65 24.9491 212.818C24.6139 212.986 24.3346 213.251 24.1112 213.614C23.9157 213.977 23.8179 214.424 23.8179 214.955C23.8179 215.653 23.9296 216.211 24.1531 216.63C24.3765 217.049 24.6837 217.357 25.0747 217.552C25.4658 217.776 25.9126 217.915 26.4154 217.971C26.9181 218.055 27.4627 218.097 28.0493 218.097ZM19 238.821L19 230.652L49.3319 230.652L49.3319 238.821L19 238.821ZM19 253.415L47.8655 253.415L47.8655 266.779C47.8655 268.986 47.4745 270.899 46.6925 272.519C45.9384 274.139 44.8631 275.396 43.4666 276.29C42.098 277.211 40.4781 277.672 38.6068 277.672C36.4562 277.672 34.6826 277.169 33.2861 276.164C31.8896 275.158 30.8423 273.818 30.144 272.142C29.4737 270.494 29.1385 268.651 29.1385 266.612L29.1385 261.752L19 261.752L19 253.415ZM41.9165 261.752L35.0876 261.752L35.0876 265.229C35.0876 265.816 35.1435 266.361 35.2552 266.863C35.3948 267.366 35.6043 267.799 35.8836 268.162C36.1629 268.525 36.512 268.804 36.931 269C37.3779 269.195 37.8946 269.293 38.4811 269.293C39.319 269.293 39.9893 269.112 40.492 268.749C40.9948 268.413 41.3579 267.939 41.5813 267.324C41.8047 266.738 41.9165 266.039 41.9165 265.229L41.9165 261.752ZM19 281.097L34.6687 281.097C35.3669 281.097 36.0791 281.097 36.8053 281.097C37.5315 281.097 38.2437 281.097 38.9419 281.097C39.6402 281.097 40.3105 281.083 40.9529 281.055L40.9529 289.057C40.7294 289.085 40.3943 289.113 39.9474 289.141C39.5285 289.169 39.0816 289.183 38.6068 289.183C38.132 289.211 37.727 289.225 37.3918 289.225C37.9225 289.448 38.4252 289.742 38.9 290.105C39.4028 290.496 39.8497 290.957 40.2407 291.487C40.6317 292.046 40.9389 292.702 41.1624 293.456C41.3858 294.21 41.4975 295.048 41.4975 295.97L34.0402 295.97C34.0961 294.434 33.9704 293.163 33.6632 292.158C33.3839 291.18 32.7974 290.454 31.9036 289.979C31.0378 289.504 29.739 289.267 28.0074 289.267L19 289.267L19 281.097ZM19 299.099L40.9529 299.099L40.9529 307.269L19 307.269L19 299.099ZM43.676 299.099L49.3318 299.099L49.3318 307.269L43.676 307.269L43.676 299.099ZM41.4975 322.839C41.4975 324.264 41.316 325.576 40.9529 326.777C40.5898 328.006 40.0591 329.082 39.3609 330.003C38.6906 330.953 37.8806 331.749 36.931 332.391C35.9814 333.062 34.92 333.564 33.747 333.9C32.5739 334.235 31.331 334.402 30.0183 334.402C28.6218 334.402 27.3371 334.221 26.164 333.858C24.9909 333.523 23.9296 333.034 22.98 332.391C22.0304 331.749 21.2204 330.939 20.5501 329.961C19.8798 329.012 19.3631 327.923 19 326.694C18.6369 325.465 18.4554 324.096 18.4554 322.588C18.4554 320.633 18.7486 318.915 19.3351 317.435C19.9217 315.983 20.7456 314.782 21.8069 313.832C22.8683 312.882 24.0832 312.156 25.4518 311.653C26.8483 311.179 28.3425 310.941 29.9345 310.941C31.2472 310.941 32.4901 311.095 33.6632 311.402C34.8362 311.737 35.8976 312.212 36.8472 312.827C37.7968 313.469 38.6207 314.265 39.319 315.215C40.0172 316.192 40.5479 317.309 40.911 318.566C41.302 319.851 41.4975 321.275 41.4975 322.839ZM35.9674 322.672C35.9674 322.253 35.8976 321.862 35.7579 321.499C35.6462 321.164 35.4507 320.856 35.1714 320.577C34.8921 320.326 34.515 320.102 34.0402 319.907C33.5934 319.711 33.0208 319.558 32.3225 319.446C31.6522 319.334 30.8702 319.278 29.9764 319.278C28.943 319.278 28.0353 319.348 27.2533 319.488C26.4992 319.655 25.8707 319.879 25.368 320.158C24.8932 320.465 24.5301 320.828 24.2787 321.247C24.0553 321.666 23.9436 322.155 23.9436 322.714C23.9436 323.133 24.0134 323.51 24.1531 323.845C24.3206 324.208 24.558 324.515 24.8653 324.767C25.1725 325.046 25.5635 325.269 26.0383 325.437C26.5131 325.632 27.0717 325.772 27.7141 325.856C28.3565 325.968 29.0827 326.023 29.8926 326.023C31.0098 326.023 31.9595 325.94 32.7415 325.772C33.5235 325.632 34.152 325.423 34.6268 325.144C35.1016 324.892 35.4367 324.557 35.6322 324.138C35.8557 323.719 35.9674 323.23 35.9674 322.672ZM19 338.007L34.6687 338.007C35.3669 338.007 36.0791 338.007 36.8053 338.007C37.5315 338.007 38.2437 338.007 38.9419 338.007C39.6402 338.007 40.3105 337.993 40.9529 337.965L40.9529 345.967C40.7294 345.995 40.3943 346.023 39.9474 346.051C39.5285 346.079 39.0816 346.093 38.6068 346.093C38.132 346.121 37.727 346.135 37.3918 346.135C37.9225 346.358 38.4252 346.652 38.9 347.015C39.4028 347.406 39.8497 347.867 40.2407 348.397C40.6317 348.956 40.9389 349.612 41.1624 350.366C41.3858 351.12 41.4975 351.958 41.4975 352.88L34.0402 352.88C34.0961 351.344 33.9704 350.073 33.6632 349.067C33.3839 348.09 32.7974 347.364 31.9036 346.889C31.0378 346.414 29.739 346.177 28.0074 346.177L19 346.177L19 338.007ZM19 356.009L40.9529 356.009L40.9529 364.178L19 364.178L19 356.009ZM43.676 356.009L49.3318 356.009L49.3318 364.178L43.676 364.178L43.676 356.009ZM35.4647 367.219L40.9529 367.219L40.9529 370.361L46.6506 370.361L46.6506 378.447L40.9529 378.447L40.9529 382.301L35.4647 382.301L35.4647 378.447L26.0383 378.447C25.5914 378.447 25.2284 378.502 24.9491 378.614C24.6698 378.754 24.4603 378.977 24.3206 379.284C24.2089 379.592 24.1531 380.039 24.1531 380.625C24.1531 380.765 24.1531 380.932 24.1531 381.128C24.1531 381.323 24.167 381.533 24.1949 381.756L19.1676 381.756C19.0279 381.337 18.9302 380.835 18.8743 380.248C18.7905 379.689 18.7347 379.117 18.7067 378.53C18.6788 377.944 18.6648 377.427 18.6648 376.98C18.6648 375.668 18.8184 374.578 19.1257 373.712C19.4329 372.875 19.8658 372.204 20.4244 371.701C21.0109 371.199 21.7092 370.836 22.5192 370.612C23.357 370.417 24.2927 370.319 25.3261 370.319L35.4647 370.319L35.4647 367.219ZM19 385.303L40.9529 385.303L40.9529 393.472L19 393.472L19 385.303ZM43.676 385.303L49.3318 385.303L49.3318 393.472L43.676 393.472L43.676 385.303ZM23.9436 408.624C23.9436 409.099 23.9855 409.49 24.0693 409.797C24.181 410.132 24.3206 410.397 24.4882 410.593C24.6558 410.816 24.8653 410.998 25.1166 411.138C25.368 411.277 25.6333 411.403 25.9126 411.515L25.9126 419.517C25.3261 419.377 24.6977 419.14 24.0274 418.804C23.357 418.497 22.6867 418.064 22.0164 417.506C21.374 416.975 20.7735 416.305 20.2149 415.495C19.6843 414.685 19.2653 413.693 18.9581 412.52C18.6229 411.375 18.4554 410.02 18.4554 408.456C18.4554 406.39 18.7626 404.63 19.377 403.178C20.0194 401.753 20.8853 400.594 21.9745 399.7C23.0638 398.807 24.2787 398.15 25.6194 397.731C26.9879 397.34 28.3844 397.145 29.8089 397.145C31.1216 397.145 32.3644 397.284 33.5375 397.564C34.7105 397.843 35.7858 398.276 36.7634 398.862C37.7409 399.449 38.5788 400.203 39.2771 401.125C40.0033 402.046 40.5479 403.122 40.911 404.351C41.302 405.608 41.4975 407.032 41.4975 408.624C41.4975 410.747 41.1624 412.52 40.492 413.945C39.8496 415.397 38.9838 416.542 37.8946 417.38C36.8332 418.218 35.6322 418.818 34.2916 419.181C32.9789 419.545 31.6383 419.726 30.2697 419.726C30.0183 419.726 29.7809 419.726 29.5575 419.726C29.362 419.726 29.1665 419.712 28.971 419.684C28.7754 419.684 28.5799 419.67 28.3844 419.642L28.3844 405.356C27.6303 405.356 26.9181 405.454 26.2478 405.649C25.5775 405.873 25.0189 406.222 24.572 406.697C24.153 407.172 23.9436 407.814 23.9436 408.624ZM36.4282 408.582C36.4282 408.163 36.3584 407.772 36.2188 407.409C36.107 407.074 35.9395 406.795 35.716 406.571C35.4926 406.348 35.2133 406.152 34.8781 405.985C34.5709 405.845 34.2218 405.719 33.8308 405.608C33.4677 405.524 33.0627 405.468 32.6158 405.44L32.6158 411.557C33.1465 411.557 33.6352 411.501 34.0821 411.389C34.529 411.305 34.92 411.152 35.2552 410.928C35.6183 410.705 35.8976 410.397 36.0931 410.006C36.3165 409.643 36.4282 409.169 36.4282 408.582ZM23.6084 432.906C23.6084 433.436 23.6503 433.869 23.7341 434.204C23.8458 434.539 24.0134 434.791 24.2368 434.958C24.4882 435.126 24.7815 435.21 25.1166 435.21C25.368 435.21 25.5914 435.14 25.7869 435C26.0104 434.889 26.1919 434.679 26.3316 434.372C26.4712 434.065 26.6109 433.66 26.7505 433.157C26.9181 432.682 27.0717 432.082 27.2114 431.355C27.6582 429.484 28.1331 427.962 28.6358 426.789C29.1665 425.644 29.739 424.778 30.3535 424.191C30.9679 423.605 31.6243 423.2 32.3225 422.977C33.0208 422.781 33.7609 422.683 34.543 422.683C35.3529 422.683 36.1629 422.837 36.9729 423.144C37.7828 423.479 38.523 424.01 39.1933 424.736C39.8915 425.49 40.4501 426.496 40.8691 427.753C41.288 429.009 41.4975 430.573 41.4975 432.445C41.4975 434.232 41.288 435.74 40.8691 436.969C40.4781 438.226 39.9474 439.246 39.2771 440.028C38.6068 440.81 37.8666 441.382 37.0567 441.745C36.2746 442.136 35.4926 442.346 34.7105 442.374L34.7105 435.084C34.9061 435.056 35.1155 434.986 35.339 434.875C35.5624 434.763 35.7719 434.609 35.9674 434.414C36.1629 434.218 36.3165 433.939 36.4282 433.576C36.54 433.213 36.5958 432.766 36.5958 432.235C36.5958 431.733 36.54 431.328 36.4282 431.02C36.3165 430.741 36.1489 430.532 35.9255 430.392C35.73 430.28 35.5065 430.224 35.2552 430.224C34.9759 430.224 34.7245 430.322 34.5011 430.518C34.3056 430.741 34.1101 431.16 33.9145 431.774C33.747 432.417 33.5235 433.325 33.2442 434.498C32.8532 436.257 32.4063 437.682 31.9036 438.771C31.4009 439.888 30.8423 440.754 30.2278 441.368C29.6133 442.011 28.9291 442.444 28.175 442.667C27.4488 442.918 26.6528 443.044 25.7869 443.044C24.8094 443.044 23.8737 442.849 22.98 442.458C22.1142 442.095 21.3321 441.494 20.6339 440.656C19.9636 439.846 19.4329 438.771 19.0419 437.43C18.6509 436.118 18.4554 434.526 18.4554 432.654C18.4554 430.867 18.6509 429.317 19.0419 428.004C19.4329 426.719 19.9636 425.658 20.6339 424.82C21.3321 423.982 22.1281 423.326 23.0219 422.851C23.9156 422.404 24.8373 422.125 25.7869 422.013L25.7869 429.596C25.4518 429.708 25.1446 429.847 24.8653 430.015C24.586 430.182 24.3486 430.406 24.153 430.685C23.9855 430.992 23.8458 431.328 23.7341 431.691C23.6503 432.054 23.6084 432.459 23.6084 432.906Z" fill="black"/>
</svg>
