<svg width="64" height="445" viewBox="0 0 64 445" fill="none" xmlns="http://www.w3.org/2000/svg">
<path fill-rule="evenodd" clip-rule="evenodd" d="M22.3174 6.86646e-05L44.6625 23.4331L42.345 25.8634L20 2.43033L22.3174 6.86646e-05Z" fill="black"/>
<path fill-rule="evenodd" clip-rule="evenodd" d="M44.6626 2.43026L22.3175 25.8633L20.0001 23.4331L42.3452 5.75893e-07L44.6626 2.43026Z" fill="black"/>
<path d="M19 70.6194L41.5813 70.6194L41.5813 62.3661L47.8655 62.3661L47.8655 87.2517L41.5813 87.2517L41.5813 79.0822L19 79.0822L19 70.6194ZM33.4118 107.316L25.5356 107.316C24.8932 107.316 24.2229 107.316 23.5246 107.316C22.8543 107.344 22.2119 107.372 21.5975 107.4C20.983 107.428 20.4384 107.456 19.9636 107.484C19.5167 107.512 19.1955 107.539 19 107.567L19 100.026C19.1396 99.9704 19.3352 99.9146 19.5865 99.8587C19.8379 99.8308 20.0893 99.8029 20.3406 99.7749C20.6199 99.747 20.8434 99.7191 21.011 99.6911C20.5641 99.356 20.1451 98.9231 19.7541 98.3924C19.3631 97.8897 19.0559 97.2333 18.8324 96.4234C18.5811 95.6413 18.4554 94.6638 18.4554 93.4907C18.4554 91.8708 18.7626 90.4882 19.3771 89.3431C20.0194 88.2259 20.8713 87.3741 21.9326 86.7875C22.994 86.201 24.167 85.9077 25.4518 85.9077C26.5131 85.9077 27.4348 86.0614 28.2169 86.3686C29.0268 86.7037 29.7251 87.1786 30.3116 87.793C30.8981 88.4075 31.3729 89.1476 31.736 90.0134C32.127 90.9072 32.4063 91.9127 32.5739 93.0299C32.7694 94.175 32.8672 95.4179 32.8672 96.7585C32.8672 97.0099 32.8672 97.2892 32.8672 97.5964C32.8672 97.9316 32.8672 98.2667 32.8672 98.6019C32.8672 98.937 32.8672 99.2163 32.8672 99.4398L34.0821 99.4398C34.4452 99.4398 34.7664 99.3979 35.0457 99.3141C35.3529 99.2582 35.6183 99.1326 35.8417 98.937C36.0652 98.7695 36.2327 98.5321 36.3445 98.2248C36.4562 97.9176 36.512 97.4987 36.512 96.968C36.512 96.5211 36.4562 96.1441 36.3445 95.8368C36.2607 95.5296 36.121 95.2782 35.9255 95.0827C35.73 94.9151 35.4926 94.7755 35.2133 94.6638C34.934 94.58 34.6128 94.5102 34.2497 94.4543L34.2497 86.9132C35.1714 86.997 36.0652 87.2065 36.931 87.5416C37.7968 87.9047 38.5649 88.4633 39.2352 89.2174C39.9335 89.9995 40.4781 91.0329 40.8691 92.3177C41.288 93.6304 41.4975 95.2503 41.4975 97.1775C41.4975 98.9929 41.316 100.529 40.9529 101.786C40.6177 103.071 40.101 104.118 39.4028 104.928C38.7325 105.766 37.8946 106.366 36.8891 106.729C35.8836 107.12 34.7245 107.316 33.4118 107.316ZM28.0493 99.4398L28.7615 99.4398C28.7615 99.2443 28.7615 98.9789 28.7615 98.6438C28.7615 98.3086 28.7615 97.9735 28.7615 97.6383C28.7615 96.9401 28.6917 96.3535 28.552 95.8787C28.4403 95.4039 28.2727 95.0129 28.0493 94.7057C27.8258 94.4264 27.5465 94.2169 27.2114 94.0772C26.9042 93.9655 26.5411 93.9097 26.1221 93.9097C25.7032 93.9097 25.3122 93.9935 24.9491 94.161C24.6139 94.3286 24.3346 94.5939 24.1112 94.957C23.9157 95.3201 23.8179 95.767 23.8179 96.2977C23.8179 96.9959 23.9296 97.5545 24.1531 97.9735C24.3765 98.3924 24.6837 98.6996 25.0747 98.8951C25.4658 99.1186 25.9126 99.2582 26.4154 99.3141C26.9181 99.3979 27.4628 99.4398 28.0493 99.4398ZM19 120.164L19 111.995L49.3319 111.995L49.3319 120.164L19 120.164ZM23.9436 135.316C23.9436 135.791 23.9855 136.182 24.0693 136.489C24.181 136.824 24.3206 137.09 24.4882 137.285C24.6558 137.509 24.8653 137.69 25.1166 137.83C25.368 137.969 25.6333 138.095 25.9126 138.207L25.9126 146.209C25.3261 146.069 24.6977 145.832 24.0274 145.497C23.3571 145.189 22.6867 144.756 22.0164 144.198C21.374 143.667 20.7735 142.997 20.2149 142.187C19.6843 141.377 19.2653 140.385 18.9581 139.212C18.6229 138.067 18.4554 136.713 18.4554 135.149C18.4554 133.082 18.7626 131.322 19.3771 129.87C20.0194 128.445 20.8853 127.286 21.9745 126.393C23.0638 125.499 24.2787 124.842 25.6194 124.423C26.9879 124.032 28.3844 123.837 29.8089 123.837C31.1216 123.837 32.3644 123.977 33.5375 124.256C34.7106 124.535 35.7859 124.968 36.7634 125.555C37.741 126.141 38.5788 126.895 39.2771 127.817C40.0033 128.739 40.5479 129.814 40.911 131.043C41.302 132.3 41.4975 133.724 41.4975 135.316C41.4975 137.439 41.1624 139.212 40.492 140.637C39.8497 142.089 38.9838 143.234 37.8946 144.072C36.8332 144.91 35.6322 145.511 34.2916 145.874C32.9789 146.237 31.6383 146.418 30.2697 146.418C30.0183 146.418 29.7809 146.418 29.5575 146.418C29.362 146.418 29.1665 146.404 28.971 146.376C28.7755 146.376 28.5799 146.362 28.3844 146.334L28.3844 132.048C27.6303 132.048 26.9181 132.146 26.2478 132.342C25.5775 132.565 25.0189 132.914 24.572 133.389C24.1531 133.864 23.9436 134.506 23.9436 135.316ZM36.4282 135.274C36.4282 134.855 36.3584 134.464 36.2188 134.101C36.1071 133.766 35.9395 133.487 35.716 133.263C35.4926 133.04 35.2133 132.844 34.8781 132.677C34.5709 132.537 34.2218 132.411 33.8308 132.3C33.4677 132.216 33.0627 132.16 32.6158 132.132L32.6158 138.249C33.1465 138.249 33.6353 138.193 34.0821 138.081C34.529 137.997 34.92 137.844 35.2552 137.62C35.6183 137.397 35.8976 137.09 36.0931 136.699C36.3165 136.336 36.4282 135.861 36.4282 135.274ZM19 150.127L35.2552 150.127C35.8976 150.127 36.54 150.127 37.1824 150.127C37.8527 150.127 38.4951 150.127 39.1095 150.127C39.7519 150.127 40.3664 150.113 40.9529 150.085L40.9529 158.045C40.7853 158.101 40.5479 158.143 40.2407 158.17C39.9614 158.198 39.6681 158.226 39.3609 158.254C39.0537 158.282 38.7744 158.296 38.523 158.296C38.8302 158.492 39.1514 158.757 39.4866 159.092C39.8497 159.455 40.1848 159.888 40.492 160.391C40.7993 160.894 41.0367 161.48 41.2043 162.15C41.3998 162.849 41.4975 163.645 41.4975 164.538C41.4975 165.656 41.316 166.647 40.9529 167.513C40.5898 168.379 40.0452 169.119 39.319 169.733C38.6207 170.376 37.7549 170.865 36.7215 171.2C35.6881 171.535 34.5011 171.702 33.1604 171.702L19 171.702L19 163.575L32.1969 163.575C32.8951 163.575 33.4956 163.491 33.9983 163.324C34.5011 163.156 34.8781 162.891 35.1295 162.528C35.3809 162.192 35.5066 161.704 35.5066 161.061C35.5066 160.503 35.3809 160.014 35.1295 159.595C34.9061 159.176 34.5011 158.855 33.9146 158.631C33.356 158.408 32.56 158.296 31.5266 158.296L19 158.296L19 150.127ZM35.4647 174.223L40.9529 174.223L40.9529 177.365L46.6506 177.365L46.6506 185.451L40.9529 185.451L40.9529 189.305L35.4647 189.305L35.4647 185.451L26.0383 185.451C25.5914 185.451 25.2284 185.507 24.9491 185.618C24.6698 185.758 24.4603 185.982 24.3206 186.289C24.2089 186.596 24.1531 187.043 24.1531 187.629C24.1531 187.769 24.1531 187.937 24.1531 188.132C24.1531 188.328 24.167 188.537 24.195 188.761L19.1676 188.761C19.0279 188.342 18.9302 187.839 18.8743 187.252C18.7905 186.694 18.7347 186.121 18.7067 185.535C18.6788 184.948 18.6648 184.431 18.6648 183.985C18.6648 182.672 18.8185 181.583 19.1257 180.717C19.4329 179.879 19.8658 179.209 20.4244 178.706C21.0109 178.203 21.7092 177.84 22.5192 177.617C23.3571 177.421 24.2927 177.323 25.3261 177.323L35.4647 177.323L35.4647 174.223Z" fill="black"/>
</svg>
